<svg preserveAspectRatio="none" width="100%" height="100%" overflow="visible" style="display: block;" viewBox="0 0 63.6067 63.6075" fill="none" xmlns="http://www.w3.org/2000/svg">
<path id="&#227;&#131;&#145;&#227;&#130;&#185; 127" d="M21.738 19.2377L27.834 2.76361C29.197 -0.921204 34.4091 -0.921204 35.7729 2.76361L41.869 19.2377C42.297 20.3957 43.2111 21.3098 44.369 21.7377L60.843 27.8337C64.528 29.1977 64.528 34.4096 60.843 35.7726L44.369 41.8686C43.2111 42.2978 42.297 43.2106 41.868 44.3698L35.7729 60.8437C34.4091 64.5287 29.197 64.5287 27.834 60.8437L21.738 44.3698C21.309 43.2106 20.396 42.2978 19.2371 41.8686L2.76306 35.7726C-0.921021 34.4096 -0.921021 29.1977 2.76306 27.8347L19.238 21.7377C20.396 21.3098 21.309 20.3957 21.738 19.2377Z" fill="var(--fill-0, #FAAF3B)"/>
</svg>
