<svg preserveAspectRatio="none" width="100%" height="100%" overflow="visible" style="display: block;" viewBox="0 0 63.6067 63.6074" fill="none" xmlns="http://www.w3.org/2000/svg">
<path id="&#227;&#131;&#145;&#227;&#130;&#185; 128" d="M21.738 19.2377L27.834 2.76379C29.198 -0.921265 34.409 -0.921265 35.773 2.76379L41.869 19.2377C42.297 20.3956 43.211 21.3097 44.369 21.7377L60.843 27.8336C64.528 29.1976 64.528 34.4098 60.843 35.7726L44.369 41.8688C43.211 42.2977 42.297 43.2108 41.868 44.3698L35.773 60.8436C34.409 64.5287 29.197 64.5287 27.834 60.8436L21.738 44.3698C21.309 43.2108 20.396 42.2977 19.237 41.8688L2.76297 35.7726C-0.92099 34.4098 -0.92099 29.1976 2.76297 27.8336L19.237 21.7377C20.396 21.3097 21.309 20.3956 21.738 19.2377Z" fill="var(--fill-0, #FAAF3B)"/>
</svg>
