<svg preserveAspectRatio="none" width="100%" height="100%" overflow="visible" style="display: block;" viewBox="0 0 33.0498 33.0498" fill="none" xmlns="http://www.w3.org/2000/svg">
<path id="&#227;&#131;&#145;&#227;&#130;&#185; 130" d="M11.2953 9.99561L14.4623 1.43555C15.1713 -0.478516 17.8793 -0.478516 18.5873 1.43555L21.7552 9.99561C21.9773 10.5977 22.4523 11.0715 23.0543 11.2947L31.6143 14.4626C33.5283 15.1707 33.5283 17.8787 31.6143 18.5876L23.0543 21.7546C22.4523 21.9775 21.9773 22.4517 21.7552 23.0537L18.5873 31.6135C17.8793 33.5286 15.1713 33.5286 14.4623 31.6135L11.2953 23.0537C11.0723 22.4517 10.5983 21.9775 9.99634 21.7546L1.43628 18.5876C-0.47876 17.8787 -0.47876 15.1707 1.43628 14.4626L9.99634 11.2947C10.5983 11.0725 11.0723 10.5977 11.2953 9.99561Z" fill="var(--fill-0, #FAAF3B)"/>
</svg>
