<svg preserveAspectRatio="none" width="100%" height="100%" overflow="visible" style="display: block;" viewBox="0 0 46.2584 46.2589" fill="none" xmlns="http://www.w3.org/2000/svg">
<path id="&#227;&#131;&#145;&#227;&#130;&#185; 129" d="M15.8091 13.9909L20.2421 2.00995C21.2341 -0.669983 25.0242 -0.669983 26.0162 2.00995L30.4491 13.9909C30.7612 14.8329 31.4252 15.498 32.2681 15.809L44.2491 20.2419C46.9281 21.2338 46.9281 25.0239 44.2491 26.0161L32.2681 30.4489C31.4252 30.7609 30.7612 31.426 30.4491 32.268L26.0162 44.249C25.0242 46.9289 21.2341 46.9289 20.2421 44.249L15.8091 32.269C15.4971 31.426 14.8331 30.7619 13.9902 30.4499L2.01012 26.017C-0.669876 25.0248 -0.669876 21.235 2.00914 20.2429L13.9902 15.81C14.8331 15.498 15.4971 14.8339 15.8091 13.9909Z" fill="var(--fill-0, #FAAF3B)"/>
</svg>
