<svg preserveAspectRatio="none" width="100%" height="100%" overflow="visible" style="display: block;" viewBox="0 0 445.25 161.207" fill="none" xmlns="http://www.w3.org/2000/svg">
<g id="&#227;&#130;&#176;&#227;&#131;&#171;&#227;&#131;&#188;&#227;&#131;&#151; 68">
<path id="&#227;&#131;&#145;&#227;&#130;&#185; 131" d="M161.456 111.934V130.33H115.147V48.0334H135.503V111.934H161.456Z" fill="var(--fill-0, #231815)"/>
<rect id="&#233;&#149;&#183;&#230;&#150;&#185;&#229;&#189;&#162; 47" x="175.959" y="74.075" width="19.377" height="56.2539" fill="var(--fill-0, #231815)"/>
<path id="&#227;&#131;&#145;&#227;&#130;&#185; 132" d="M253.046 113.36V130.331H239.715C227.275 130.331 219.713 122.725 219.713 110.224V98.372H209.416V93.843L234.62 67.0031H238.601V83.451H252.734V98.372H239.09V106.901C239.09 110.93 241.522 113.36 245.609 113.36H253.046Z" fill="var(--fill-0, #55B032)"/>
<path id="&#227;&#131;&#145;&#227;&#130;&#185; 133" d="M311.293 113.36V130.331H297.962C285.522 130.331 277.96 122.725 277.96 110.224V98.372H267.663V93.843L292.867 67.0031H296.847V83.451H310.981V98.372H297.337V106.901C297.337 110.93 299.769 113.36 303.856 113.36H311.293Z" fill="var(--fill-0, #FCCF00)"/>
<rect id="&#233;&#149;&#183;&#230;&#150;&#185;&#229;&#189;&#162; 48" x="325.936" y="51.886" width="19.377" height="78.4438" fill="var(--fill-0, #231815)"/>
<path id="&#227;&#131;&#145;&#227;&#130;&#185; 134" d="M390.38 116.591C384.262 116.591 380.164 113.255 378.896 106.801H420.668C420.92 105.062 421.068 103.367 421.068 101.673V101.669C421.068 85.17 408.514 72.233 390.38 72.233C372.723 72.233 359.824 84.915 359.824 102.161C359.824 119.346 372.828 132.177 390.38 132.177C399.801 132.177 407.989 128.588 413.579 122.393L400.551 111.316C398.688 114.608 394.906 116.591 390.38 116.591ZM390.38 87.416C396.227 87.416 400.28 90.449 401.979 96.071H379.238C380.806 90.484 384.732 87.416 390.38 87.416Z" fill="var(--fill-0, #231815)"/>
<path id="&#227;&#131;&#145;&#227;&#130;&#185; 135" d="M194.849 54.916C194.849 59.998 190.729 64.118 185.647 64.118C180.565 64.118 176.446 59.998 176.446 54.916C176.446 49.834 180.565 45.7141 185.647 45.7141C190.729 45.7141 194.849 49.834 194.849 54.916Z" fill="var(--fill-0, #231815)"/>
<path id="&#227;&#131;&#145;&#227;&#130;&#185; 136" d="M445.25 120.115C445.25 124.97 441.314 128.906 436.459 128.906C431.604 128.906 427.668 124.97 427.668 120.115C427.668 115.26 431.604 111.324 436.459 111.324C441.314 111.324 445.25 115.26 445.25 120.115Z" fill="var(--fill-0, #C89409)"/>
<path id="&#227;&#131;&#145;&#227;&#130;&#185; 137" d="M92.874 88.946C92.874 65.045 81.059 42.592 46.519 42.592C11.979 42.592 0.164001 65.045 0.164001 88.946C0.164001 112.846 11.979 135.301 46.519 135.301C81.059 135.301 92.874 112.846 92.874 88.946Z" fill="var(--fill-0, #009844)"/>
<path id="&#227;&#131;&#145;&#227;&#130;&#185; 138" d="M21.354 104.384C21.354 100.913 23.126 98.327 27.705 98.327C31.029 98.327 34.279 99.8781 37.085 100.469C38.046 98.77 38.562 95.742 38.858 93.822L39.449 89.686C34.5 88.874 28.592 86.8051 24.455 82.522L29.108 76.3911C33.023 79.6411 37.085 81.192 40.483 81.931C42.033 71.295 46.244 64.5 56.362 64.5C61.458 64.5 67.293 67.897 67.293 74.84C67.293 80.454 62.788 89.021 48.238 90.0551L47.5 95.151C47.13 97.5891 46.244 101.43 45.062 103.423C46.982 104.236 49.494 104.605 52.3 104.605C57.544 104.605 61.68 101.651 65.078 95.151L71.356 98.1801C67.515 106.378 61.237 112.065 52.004 111.77C47.647 111.622 43.289 110.514 39.227 109.11C36.716 111.031 33.54 111.77 30.29 111.77C24.677 111.77 21.427 108.446 21.354 104.384ZM58.578 75.062C58.578 73.215 57.396 72.255 55.772 72.255C52.669 72.255 50.454 76.3911 49.494 82.2271C56.879 81.192 58.578 77.056 58.578 75.062Z" fill="var(--fill-0, white)"/>
<path id="&#227;&#131;&#145;&#227;&#130;&#185; 139" d="M439.799 151.948C439.799 149.597 437.825 147.696 435.399 147.696C434.491 147.696 433.643 147.961 432.943 148.416V148.018H429.446V159.292H432.943V152.759C432.943 151.709 433.723 150.859 434.686 150.859C435.658 150.859 436.435 151.709 436.435 152.759V159.292H439.799V151.948ZM420.134 152.391H425.165C424.726 151.256 423.765 150.471 422.649 150.471C421.536 150.471 420.573 151.256 420.134 152.391ZM420.042 154.872C420.427 156.158 421.449 157.072 422.649 157.072C423.547 157.072 424.341 156.567 424.846 155.777H428.367C427.497 158.032 425.266 159.64 422.649 159.64C419.277 159.64 416.534 156.971 416.534 153.67C416.534 150.37 419.277 147.7 422.649 147.7C426.026 147.7 428.768 150.37 428.768 153.67C428.768 154.088 428.719 154.489 428.637 154.877L420.042 154.872ZM417.627 148.018H413.747L410.347 152.692V144.523H406.849V159.292H410.347V154.895L413.312 159.264H417.332L413.643 153.566L417.627 148.018ZM406.499 148.018H402.611L399.21 152.692V144.523H395.715V159.292H399.21V154.895L402.183 159.264H406.204L402.511 153.566L406.499 148.018ZM391.429 153.588C391.429 155.338 390.109 156.756 388.487 156.756C386.862 156.756 385.549 155.338 385.549 153.588C385.549 151.837 386.862 150.417 388.487 150.417C390.109 150.417 391.429 151.837 391.429 153.588ZM391.186 148.518C390.331 148.047 389.35 147.772 388.303 147.772C385.026 147.772 382.377 150.429 382.377 153.701C382.377 156.974 384.763 159.631 388.303 159.631C389.111 159.631 390.079 159.304 390.99 158.744C391.051 158.708 391.186 158.789 391.186 158.867V159.292H394.544V148.018H391.186V148.518ZM381.865 151.742C381.865 156.103 378.322 159.64 373.96 159.64C369.588 159.64 366.047 156.103 366.047 151.742C366.047 147.374 369.588 143.833 373.96 143.833C377.427 143.833 380.364 146.067 381.429 149.17H377.648C376.87 147.867 375.507 147.001 373.96 147.001C371.524 147.001 369.558 149.123 369.558 151.742C369.558 154.353 371.524 156.471 373.96 156.471C375.641 156.471 377.096 155.454 377.839 153.964H373.18V150.737H381.796C381.824 151.061 381.865 151.4 381.865 151.742Z" fill="var(--fill-0, #231815)"/>
<path id="&#227;&#131;&#145;&#227;&#130;&#185; 140" d="M291.006 161.207H288.887V152.204H291.006V152.872C291.458 152.302 292.075 152.017 292.856 152.017C293.285 152.017 293.685 152.101 294.056 152.268C294.426 152.436 294.748 152.665 295.022 152.954C295.295 153.242 295.508 153.582 295.66 153.972C295.812 154.362 295.888 154.78 295.888 155.225C295.888 155.67 295.812 156.084 295.66 156.466C295.508 156.849 295.297 157.184 295.027 157.472C294.758 157.762 294.44 157.988 294.073 158.152C293.706 158.316 293.308 158.397 292.879 158.397C292.129 158.397 291.505 158.141 291.006 157.625V161.207ZM293.675 155.225C293.675 155.037 293.642 154.86 293.576 154.693C293.509 154.525 293.414 154.377 293.289 154.253C293.164 154.129 293.018 154.028 292.85 153.954C292.682 153.881 292.5 153.843 292.305 153.843C292.118 153.843 291.943 153.878 291.778 153.948C291.614 154.019 291.472 154.117 291.351 154.242C291.23 154.366 291.133 154.512 291.059 154.68C290.984 154.849 290.947 155.025 290.947 155.213C290.947 155.4 290.982 155.576 291.053 155.74C291.123 155.903 291.221 156.047 291.346 156.167C291.47 156.288 291.616 156.386 291.785 156.46C291.952 156.535 292.129 156.572 292.317 156.572C292.504 156.572 292.68 156.536 292.844 156.466C293.008 156.396 293.15 156.298 293.272 156.173C293.392 156.048 293.489 155.903 293.564 155.74C293.638 155.576 293.675 155.404 293.675 155.225Z" fill="var(--fill-0, #231815)"/>
<path id="&#227;&#131;&#145;&#227;&#130;&#185; 141" d="M296.508 155.155C296.508 154.709 296.598 154.294 296.778 153.907C296.958 153.521 297.207 153.186 297.527 152.901C297.847 152.615 298.227 152.392 298.669 152.228C299.11 152.064 299.592 151.981 300.115 151.981C300.63 151.981 301.108 152.061 301.549 152.221C301.99 152.382 302.372 152.604 302.696 152.888C303.02 153.175 303.272 153.513 303.451 153.907C303.631 154.301 303.721 154.737 303.721 155.213C303.721 155.69 303.629 156.124 303.445 156.518C303.262 156.913 303.01 157.252 302.69 157.537C302.37 157.822 301.986 158.043 301.537 158.199C301.088 158.355 300.602 158.432 300.079 158.432C299.564 158.432 299.088 158.355 298.651 158.199C298.214 158.043 297.837 157.82 297.522 157.531C297.205 157.242 296.958 156.897 296.778 156.495C296.598 156.093 296.508 155.647 296.508 155.155ZM298.745 155.178C298.745 155.381 298.782 155.567 298.856 155.734C298.93 155.902 299.028 156.048 299.149 156.173C299.27 156.298 299.414 156.396 299.582 156.466C299.75 156.536 299.927 156.572 300.115 156.572C300.302 156.572 300.479 156.536 300.647 156.466C300.815 156.396 300.959 156.298 301.081 156.173C301.201 156.048 301.299 155.902 301.373 155.734C301.447 155.567 301.485 155.385 301.485 155.189C301.485 155.003 301.447 154.824 301.373 154.657C301.299 154.489 301.201 154.343 301.081 154.218C300.959 154.093 300.815 153.995 300.647 153.925C300.479 153.855 300.302 153.82 300.115 153.82C299.927 153.82 299.75 153.855 299.582 153.925C299.414 153.995 299.27 154.093 299.149 154.218C299.028 154.343 298.93 154.487 298.856 154.651C298.782 154.814 298.745 154.991 298.745 155.178Z" fill="var(--fill-0, #231815)"/>
<path id="&#227;&#131;&#145;&#227;&#130;&#185; 142" d="M305.922 152.204L307.362 155.366L308.861 152.204H310.196L311.694 155.459L313.205 152.204H315.558L312.42 158.21H311.004L309.505 154.92L308.077 158.21H306.637L303.557 152.204H305.922Z" fill="var(--fill-0, #231815)"/>
<path id="&#227;&#131;&#145;&#227;&#130;&#185; 143" d="M317.56 155.565C317.56 156.478 317.989 156.934 318.848 156.934C319.308 156.934 319.656 156.747 319.89 156.372H321.939C321.525 157.747 320.49 158.433 318.836 158.433C318.328 158.433 317.864 158.357 317.443 158.204C317.021 158.052 316.66 157.836 316.36 157.555C316.059 157.274 315.827 156.939 315.663 156.547C315.499 156.157 315.417 155.72 315.417 155.236C315.417 154.737 315.495 154.286 315.651 153.884C315.807 153.482 316.03 153.14 316.318 152.859C316.607 152.579 316.957 152.363 317.367 152.211C317.776 152.058 318.239 151.982 318.754 151.982C319.261 151.982 319.718 152.058 320.124 152.211C320.53 152.363 320.873 152.583 321.154 152.872C321.435 153.161 321.65 153.514 321.798 153.932C321.946 154.349 322.021 154.82 322.021 155.342V155.565H317.56ZM320.042 154.336C319.972 154.039 319.827 153.801 319.609 153.621C319.39 153.441 319.125 153.351 318.812 153.351C318.485 153.351 318.217 153.438 318.011 153.609C317.804 153.78 317.673 154.024 317.618 154.336H320.042Z" fill="var(--fill-0, #231815)"/>
<path id="&#227;&#131;&#145;&#227;&#130;&#185; 144" d="M322.875 152.204H324.994V153.187C325.22 152.829 325.498 152.553 325.826 152.363C326.153 152.171 326.536 152.076 326.973 152.076H327.154C327.22 152.076 327.297 152.083 327.382 152.099V154.125C327.102 153.984 326.797 153.914 326.469 153.914C325.977 153.914 325.609 154.06 325.363 154.352C325.117 154.645 324.994 155.073 324.994 155.634V158.21H322.875V152.204Z" fill="var(--fill-0, #231815)"/>
<path id="&#227;&#131;&#145;&#227;&#130;&#185; 145" d="M329.959 155.565C329.959 156.478 330.388 156.934 331.247 156.934C331.707 156.934 332.055 156.747 332.289 156.372H334.338C333.924 157.747 332.889 158.433 331.235 158.433C330.727 158.433 330.263 158.357 329.842 158.204C329.42 158.052 329.059 157.836 328.759 157.555C328.458 157.274 328.226 156.939 328.062 156.547C327.898 156.157 327.816 155.72 327.816 155.236C327.816 154.737 327.894 154.286 328.05 153.884C328.206 153.482 328.429 153.14 328.717 152.859C329.006 152.579 329.356 152.363 329.765 152.211C330.175 152.058 330.638 151.982 331.153 151.982C331.66 151.982 332.117 152.058 332.523 152.211C332.929 152.363 333.272 152.583 333.553 152.872C333.834 153.161 334.049 153.514 334.197 153.932C334.345 154.349 334.42 154.82 334.42 155.342V155.565H329.959ZM332.441 154.336C332.37 154.039 332.226 153.801 332.008 153.621C331.789 153.441 331.524 153.351 331.211 153.351C330.883 153.351 330.616 153.438 330.41 153.609C330.202 153.78 330.072 154.024 330.017 154.336H332.441Z" fill="var(--fill-0, #231815)"/>
<path id="&#227;&#131;&#145;&#227;&#130;&#185; 146" d="M339.911 148.493H342.041V158.21H339.911V157.543C339.458 158.112 338.845 158.397 338.073 158.397C337.635 158.397 337.233 158.315 336.867 158.151C336.5 157.988 336.18 157.762 335.906 157.472C335.633 157.184 335.42 156.844 335.269 156.454C335.116 156.063 335.04 155.643 335.04 155.189C335.04 154.76 335.112 154.352 335.257 153.965C335.401 153.58 335.606 153.241 335.871 152.953C336.136 152.665 336.455 152.436 336.826 152.268C337.197 152.101 337.604 152.017 338.049 152.017C338.798 152.017 339.419 152.278 339.911 152.801V148.493ZM337.241 155.189C337.241 155.385 337.277 155.566 337.346 155.734C337.417 155.902 337.512 156.048 337.634 156.172C337.754 156.298 337.898 156.396 338.067 156.466C338.234 156.536 338.416 156.571 338.611 156.571C338.798 156.571 338.976 156.536 339.144 156.466C339.312 156.396 339.456 156.298 339.577 156.172C339.698 156.048 339.795 155.903 339.87 155.739C339.944 155.575 339.981 155.4 339.981 155.213C339.981 155.025 339.944 154.849 339.87 154.68C339.795 154.512 339.698 154.366 339.577 154.241C339.456 154.117 339.312 154.019 339.144 153.948C338.976 153.878 338.798 153.842 338.611 153.842C338.424 153.842 338.246 153.878 338.078 153.948C337.911 154.019 337.766 154.117 337.645 154.241C337.524 154.366 337.426 154.508 337.352 154.668C337.278 154.828 337.241 155.002 337.241 155.189Z" fill="var(--fill-0, #231815)"/>
<path id="&#227;&#131;&#145;&#227;&#130;&#185; 147" d="M348.879 148.493V152.801C349.378 152.279 350.003 152.017 350.752 152.017C351.197 152.017 351.605 152.101 351.975 152.268C352.346 152.436 352.662 152.662 352.924 152.947C353.186 153.233 353.39 153.568 353.539 153.954C353.687 154.341 353.761 154.752 353.761 155.189C353.761 155.634 353.685 156.052 353.533 156.442C353.381 156.833 353.168 157.172 352.895 157.461C352.621 157.75 352.299 157.978 351.929 158.145C351.558 158.313 351.158 158.397 350.729 158.397C349.948 158.397 349.331 158.113 348.879 157.543V158.21H346.76V148.493H348.879ZM351.548 155.225C351.548 155.037 351.513 154.86 351.443 154.693C351.373 154.525 351.275 154.377 351.15 154.253C351.025 154.129 350.881 154.028 350.717 153.954C350.553 153.881 350.374 153.843 350.178 153.843C349.991 153.843 349.816 153.878 349.651 153.948C349.487 154.019 349.345 154.117 349.224 154.242C349.103 154.366 349.006 154.512 348.932 154.68C348.857 154.849 348.82 155.025 348.82 155.213C348.82 155.4 348.855 155.576 348.926 155.74C348.996 155.903 349.094 156.047 349.219 156.167C349.343 156.288 349.489 156.386 349.658 156.46C349.825 156.535 350.003 156.572 350.19 156.572C350.377 156.572 350.553 156.536 350.717 156.466C350.881 156.396 351.023 156.298 351.145 156.173C351.265 156.048 351.363 155.903 351.437 155.74C351.511 155.576 351.548 155.404 351.548 155.225Z" fill="var(--fill-0, #231815)"/>
<path id="&#227;&#131;&#145;&#227;&#130;&#185; 148" d="M356.477 157.391L353.573 152.204H356.032L357.636 155.284L359.193 152.204H361.628L356.805 161.207H354.428L356.477 157.391Z" fill="var(--fill-0, #231815)"/>
<path id="&#227;&#131;&#145;&#227;&#130;&#185; 149" d="M11.692 3.01602V0.0280151H16.087V3.01602H25.768V7.06702H16.087V10.399H27.435V14.45H18.299C21.948 18.903 25.97 20.683 27.923 21.459L25.366 25.797C21.316 23.499 17.668 20.195 16.087 17.639V27.32H11.692V17.724C9.27802 20.999 6.60602 23.499 2.41302 25.797L0 21.459C5.487 19.104 8.159 16.231 9.65198 14.45H0.401978V10.399H11.692V7.06702H2.15302V3.01602H11.692Z" fill="var(--fill-0, #231815)"/>
<path id="&#227;&#131;&#145;&#227;&#130;&#185; 150" d="M38.467 6.52103H33.325V2.49802H43.581V0.085022H47.861V2.49802H58.29V6.52103H53.09L56.164 7.15302C56.049 7.58304 55.36 10.14 54.354 12.266H59.353V16.346H50.59C53.492 19.247 56.02 20.884 59.783 22.464L57.37 26.63C52.774 24.475 49.872 21.545 47.861 19.045V27.291H43.581V19.247C39.847 23.441 36.859 25.337 34.216 26.63L31.745 22.378C34.503 21.286 37.749 19.678 40.909 16.346H32.233V12.266H37.203C36.715 10.399 36.284 8.70404 35.537 7.23901L38.467 6.52103ZM38.352 12.266H43.581V6.52103H39.847C40.306 7.46902 41.139 9.65103 41.512 11.576L38.352 12.266ZM50.102 11.375C50.791 9.88101 51.596 7.15302 51.769 6.52103H47.861V12.266H53.722L50.102 11.375Z" fill="var(--fill-0, #231815)"/>
<path id="&#227;&#131;&#145;&#227;&#130;&#185; 151" d="M71.246 1.69403C70.959 3.44601 70.098 8.35904 70.098 15.455C70.098 18.902 70.299 22.436 70.959 25.826L66.191 26.171C65.932 24.792 65.415 21.89 65.415 16.489C65.415 10.054 66.133 3.90604 66.421 1.37802L71.246 1.69403ZM78.889 14.708C77.825 16.029 77.567 17.121 77.567 17.954C77.567 19.908 79.75 20.252 82.537 20.252C84.576 20.252 87.277 20.166 89.288 19.908L89.374 24.561C88.541 24.648 86.961 24.82 84.145 24.82C79.434 24.82 73.2 24.59 73.2 18.788C73.2 18.04 73.2 15.858 75.067 13.042L78.889 14.708ZM88.828 7.75601H74.062V3.24603H88.828V7.75601Z" fill="var(--fill-0, #231815)"/>
<path id="&#227;&#131;&#145;&#227;&#130;&#185; 152" d="M99.575 20.827C109.314 20.97 116.38 20.166 116.38 13.215C116.38 10.744 115.289 7.81302 110.664 7.81302C107.791 7.81302 104.832 8.50302 96.214 10.514L95.122 5.51501C96.817 5.28503 98.024 5.08401 100.982 4.56802C107.273 3.44702 109.371 3.33102 111.181 3.33102C117.042 3.33102 121.293 7.18103 121.293 13.215C121.293 22.349 113.019 24.044 110.693 24.504C108.71 24.906 106.067 25.337 100.58 25.308L99.575 20.827Z" fill="var(--fill-0, #231815)"/>
<path id="&#227;&#131;&#145;&#227;&#130;&#185; 153" d="M137.554 0.833038C137.468 1.34903 137.095 3.53201 137.037 3.96503H142.035V8.33102H136.319C135.428 12.697 133.533 18.93 132.009 23.213L127.27 21.889C128.562 19.247 130.66 13.186 131.636 8.33102H127.787V3.96503H132.383C132.613 2.38403 132.67 1.63602 132.728 0.659027L137.554 0.833038ZM153.182 8.44601C152.493 8.38803 151.746 8.30103 150.855 8.30103C149.821 8.30103 148.931 8.41702 148.212 8.50403L148.384 16.201C152.033 18.271 153.039 19.218 153.757 19.88L151.2 24.245C150.424 23.412 149.304 22.379 148.04 21.23L148.011 21.833C147.867 25.078 145.081 26.315 141.892 26.315C137.095 26.315 134.768 23.757 134.768 20.597C134.768 18.07 136.463 14.709 142.122 14.709C142.84 14.709 143.329 14.737 143.846 14.795L143.558 4.42401C144.908 4.16504 147.178 3.73404 152.78 3.56201L153.182 8.44601ZM143.961 18.903C143.415 18.701 142.869 18.501 141.892 18.501C141.49 18.501 138.818 18.529 138.818 20.483C138.818 21.086 139.135 22.436 141.576 22.436C143.932 22.436 143.961 21.23 143.961 20.51V18.903Z" fill="var(--fill-0, #231815)"/>
<path id="&#227;&#131;&#145;&#227;&#130;&#185; 154" d="M169.731 0.920013C169.588 2.03903 169.444 3.27502 169.099 5.74402H171.569C177.286 5.74402 177.947 9.99603 177.947 13.875C177.947 15.512 177.746 21.746 175.908 24.188C174.442 26.114 172.517 26.227 171.052 26.227C169.156 26.227 167.892 25.997 166.887 25.825L166.715 21.459C167.778 21.66 168.783 21.862 170.076 21.862C171.512 21.862 172 21.316 172.287 20.884C173.093 19.706 173.466 15.77 173.466 13.702C173.466 11.405 173.408 9.96802 170.679 9.99603L168.381 10.026C167.403 15.541 166.025 21.029 163.497 26.028L159.244 23.758C160.51 21.832 162.032 19.017 163.871 10.053L159.762 10.113V5.74402H164.502C164.761 3.64801 164.905 1.95303 164.991 0.60202L169.731 0.920013ZM179.183 5.91702C178.924 4.88403 178.291 2.78503 177.429 1.29202L179.958 0.60202C180.791 1.92502 181.48 3.93402 181.768 5.05502L179.183 5.91702ZM180.676 18.213C180.533 11.031 179.067 8.38803 178.493 7.32404L182.688 6.03201C184.124 8.47403 185.215 11.95 185.56 17.724L180.676 18.213ZM183.434 5.19904C183.348 4.88403 182.601 2.47003 181.538 0.718018L184.037 0.0280151C184.353 0.516022 184.955 1.37903 185.934 4.45102L183.434 5.19904Z" fill="var(--fill-0, #231815)"/>
<path id="&#227;&#131;&#145;&#227;&#130;&#185; 155" d="M211.042 1.46402V5.05603C206.705 8.73303 206.446 8.96301 205.526 9.71002C205.986 9.56604 206.561 9.36401 208.083 9.36401C213.944 9.36401 216.616 13.703 216.616 17.551C216.616 22.292 213.025 26.285 204.751 26.285C197.311 26.285 197.167 21.661 197.167 21.058C197.167 18.041 200.097 16.345 202.854 16.345C206.302 16.345 208.026 18.73 208.026 21.086C208.026 21.431 207.997 21.661 207.94 22.063C210.382 21.316 211.76 19.937 211.76 17.753C211.76 16.001 210.669 13.214 205.813 13.214C201.217 13.214 198.89 15.398 193.604 20.798L190.761 17.006C193.116 15.226 194.208 14.277 204.062 5.71701L193.978 5.91803V1.46402H211.042ZM204.693 21.919C204.693 21.718 204.636 19.736 202.625 19.736C201.533 19.736 200.787 20.28 200.787 21.144C200.787 22.608 202.854 22.695 203.516 22.695C203.889 22.695 204.176 22.666 204.607 22.58C204.665 22.321 204.693 22.177 204.693 21.919Z" fill="var(--fill-0, #231815)"/>
<path id="&#227;&#131;&#145;&#227;&#130;&#185; 156" d="M222.191 22.982C227.477 22.292 230.35 20.568 231.585 19.42H222.536V15.369H225.437V8.21503H233.941V6.66504H238.193V8.21503H246.696V15.369H249.598V19.42H240.347C241.41 20.425 243.393 22.292 250.057 22.809L247.759 27.291C246.208 27.061 243.766 26.63 240.692 24.735C238.48 23.384 236.958 21.689 236.124 20.339C234.573 22.695 231.212 25.682 224.605 27.52L222.191 22.982ZM227.908 0.0280151H232.102V1.83801H239.945V0.0280151H244.225V1.83801H249.598V5.94702H244.225V7.49704H239.945V5.94702H232.102V7.49704H227.908V5.94702H222.536V1.83801H227.908V0.0280151ZM233.941 11.978H229.631V15.369H233.769C233.884 14.824 233.941 14.22 233.941 13.674V11.978ZM238.193 13.099C238.193 14.421 238.078 15.081 238.02 15.369H242.444V11.978H238.193V13.099Z" fill="var(--fill-0, #231815)"/>
<path id="&#227;&#131;&#145;&#227;&#130;&#185; 157" d="M254.31 5.08502H265.715V8.27402H254.31V5.08502ZM255.057 0.920013H264.824V3.93503H255.057V0.920013ZM255.057 9.36401H264.824V12.525H255.057V9.36401ZM255.057 13.644H264.824V16.776H255.057V13.644ZM255.057 17.984H264.824V26.258H258.963V27.32H255.057V17.984ZM258.963 23.125H261.234V20.999H258.963V23.125ZM269.679 5.94702C269.794 5.42902 269.851 5.08502 269.937 4.45102H266.002V0.920013H281.171V4.45102H274.046C273.931 5.05502 273.901 5.19904 273.759 5.94702H280.164V11.49H281.601V14.937H265.572V11.49H268.301C268.445 10.973 268.617 10.455 268.932 9.19302H266.548V5.94702H269.679ZM280.538 16.373V27.32H276.458V26.258H270.599V27.32H266.548V16.373H280.538ZM270.599 22.665H276.458V19.907H270.599V22.665ZM276.057 11.49V9.19302H273.012C272.84 9.91003 272.666 10.544 272.409 11.49H276.057Z" fill="var(--fill-0, #231815)"/>
<path id="&#227;&#131;&#145;&#227;&#130;&#185; 158" d="M298.38 23.384C299.615 22.867 302.114 21.833 304.413 19.219C303.981 18.385 303.148 16.748 302.545 14.22C302.2 14.679 301.884 15.111 301.683 15.398L299.155 11.375C299.385 11.088 299.471 10.973 299.557 10.858H296.627C296.397 11.117 296.053 11.49 295.162 12.353H299.528V15.368C298.81 16.26 297 17.494 296.311 17.954C298.897 17.753 300.132 17.581 301.08 17.466V21.114C299.643 21.344 298.408 21.459 296.139 21.689V24.245C296.139 24.992 296.139 27.32 293.783 27.32H289.158L288.497 23.556H291.484C292.261 23.556 292.261 23.212 292.261 22.838V22.005C291.715 22.033 286.544 22.379 286.314 22.436L286.055 18.501C286.228 18.501 291.685 18.241 292.261 18.213V17.121H293.007C294.041 16.231 294.3 15.915 294.472 15.655H291.111C289.56 16.69 288.611 17.179 287.778 17.581L285.883 14.019C286.888 13.645 288.669 12.956 291.312 10.858H286.314V7.18103H290.852V5.65802H286.86V2.03903H290.852V0.0570374H294.759V2.03903H297.747V3.41803C298.322 2.38403 298.696 1.60803 299.155 0.488037L302.574 2.18204C302.057 3.21701 301.195 4.94003 299.586 7.18103H300.965V8.61703C302.861 4.88303 303.407 1.52203 303.608 3.05176e-05L307.688 0.229034C307.515 1.40701 307.399 2.38403 307.112 3.67703H313.432V8.07202H312.226C312.083 9.88202 311.709 15.081 309.439 19.219C311.164 21.2 312.772 22.264 313.95 23.039L311.365 27.32C310.531 26.687 308.75 25.338 306.768 22.867C304.298 25.395 302.229 26.63 301.08 27.291L298.38 23.384ZM294.415 5.45703V7.18103H295.392C296.196 6.26102 296.512 5.83102 296.77 5.45703H294.415ZM305.877 8.07202C305.533 8.90503 305.389 9.27902 305.188 9.68103C305.734 12.927 306.595 14.679 306.911 15.341C307.486 14.047 308.262 11.864 308.291 8.07202H305.877Z" fill="var(--fill-0, #231815)"/>
<path id="&#227;&#131;&#145;&#227;&#130;&#185; 159" d="M340.237 17.15H343.081V20.741H333.745V22.637H345.207V26.429H318.088V22.637H329.493V20.741H320.214V17.15H329.493V15.542C328.143 15.569 321.621 15.742 320.157 15.742L319.841 12.237C320.013 12.266 323.604 12.295 323.977 12.295C324.466 11.347 324.667 10.801 324.868 10.342H321.995V8.79004H318.863V1.78003H329.493V3.05176e-05H333.831V1.78003H344.517V8.79004H341.271V10.342H339.548C340.094 10.858 342.047 12.696 343.627 14.736L340.237 17.15ZM340.18 5.48602H323.144V6.83603H340.18V5.48602ZM335.382 10.342H329.522C329.264 10.916 329.177 11.059 328.545 12.266C333.687 12.266 334.233 12.266 335.699 12.18C335.123 11.663 334.807 11.404 334.319 11.002L335.382 10.342ZM333.745 17.15H339.95C339.376 16.231 339.232 16.029 338.571 15.139C336.847 15.225 335.928 15.282 333.745 15.368V17.15Z" fill="var(--fill-0, #231815)"/>
</g>
</svg>
