<svg preserveAspectRatio="none" width="100%" height="100%" overflow="visible" style="display: block;" viewBox="0 0 239.412 229.529" fill="none" xmlns="http://www.w3.org/2000/svg">
<g id="&#227;&#130;&#176;&#227;&#131;&#171;&#227;&#131;&#188;&#227;&#131;&#151; 54">
<path id="&#227;&#131;&#145;&#227;&#130;&#185; 85" d="M235.912 114.765C235.912 126.63 221.917 136.14 218.44 146.847C214.837 157.943 220.445 173.838 213.723 183.076C206.934 192.405 190.038 191.951 180.709 198.739C171.472 205.462 166.721 221.708 155.624 225.311C144.917 228.789 131.572 218.551 119.706 218.551C107.84 218.551 94.495 228.789 83.788 225.311C72.691 221.708 67.9399 205.462 58.703 198.739C49.374 191.951 32.478 192.405 25.688 183.076C18.9659 173.839 24.575 157.943 20.972 146.848C17.495 136.14 3.5 126.63 3.5 114.765C3.5 102.899 17.495 93.3898 20.9709 82.6818C24.574 71.5858 18.9659 55.6898 25.688 46.4528C32.478 37.1238 49.374 37.5778 58.703 30.7898C67.939 24.0668 72.691 7.82078 83.788 4.21778C94.495 0.739776 107.84 10.9778 119.706 10.9778C131.572 10.9778 144.917 0.739776 155.623 4.21778C166.72 7.82078 171.472 24.0668 180.709 30.7898C190.038 37.5778 206.934 37.1238 213.723 46.4528C220.445 55.6898 214.837 71.5858 218.44 82.6808C221.917 93.3898 235.912 102.899 235.912 114.765Z" stroke="var(--stroke-0, white)" stroke-width="7" stroke-linecap="round" stroke-linejoin="round"/>
<path id="&#227;&#131;&#145;&#227;&#130;&#185; 86" d="M235.912 114.765C235.912 126.63 221.917 136.14 218.44 146.847C214.837 157.943 220.445 173.838 213.723 183.076C206.934 192.405 190.038 191.951 180.709 198.739C171.472 205.462 166.721 221.708 155.624 225.311C144.917 228.789 131.572 218.551 119.706 218.551C107.84 218.551 94.495 228.789 83.788 225.311C72.691 221.708 67.9399 205.462 58.703 198.739C49.374 191.951 32.478 192.405 25.688 183.076C18.9659 173.839 24.575 157.943 20.972 146.848C17.495 136.14 3.5 126.63 3.5 114.765C3.5 102.899 17.495 93.3898 20.9709 82.6818C24.574 71.5858 18.9659 55.6898 25.688 46.4528C32.478 37.1238 49.374 37.5778 58.703 30.7898C67.939 24.0668 72.691 7.82078 83.788 4.21778C94.495 0.739776 107.84 10.9778 119.706 10.9778C131.572 10.9778 144.917 0.739776 155.623 4.21778C166.72 7.82078 171.472 24.0668 180.709 30.7898C190.038 37.5778 206.934 37.1238 213.723 46.4528C220.445 55.6898 214.837 71.5858 218.44 82.6808C221.917 93.3898 235.912 102.899 235.912 114.765Z" stroke="var(--stroke-0, white)" stroke-width="7" stroke-linecap="round" stroke-linejoin="round"/>
<path id="&#227;&#131;&#145;&#227;&#130;&#185; 87" d="M235.912 114.765C235.912 126.63 221.917 136.14 218.44 146.847C214.837 157.943 220.445 173.838 213.723 183.076C206.934 192.405 190.038 191.951 180.709 198.739C171.472 205.462 166.721 221.708 155.624 225.311C144.917 228.789 131.572 218.551 119.706 218.551C107.84 218.551 94.495 228.789 83.788 225.311C72.691 221.708 67.9399 205.462 58.703 198.739C49.374 191.951 32.478 192.405 25.688 183.076C18.9659 173.839 24.575 157.943 20.972 146.848C17.495 136.14 3.5 126.63 3.5 114.765C3.5 102.899 17.495 93.3898 20.9709 82.6818C24.574 71.5858 18.9659 55.6898 25.688 46.4528C32.478 37.1238 49.374 37.5778 58.703 30.7898C67.939 24.0668 72.691 7.82078 83.788 4.21778C94.495 0.739776 107.84 10.9778 119.706 10.9778C131.572 10.9778 144.917 0.739776 155.623 4.21778C166.72 7.82078 171.472 24.0668 180.709 30.7898C190.038 37.5778 206.934 37.1238 213.723 46.4528C220.445 55.6898 214.837 71.5858 218.44 82.6808C221.917 93.3898 235.912 102.899 235.912 114.765Z" stroke="var(--stroke-0, white)" stroke-width="7" stroke-linecap="round" stroke-linejoin="round"/>
<path id="&#227;&#131;&#145;&#227;&#130;&#185; 88" d="M235.912 114.765C235.912 126.63 221.917 136.14 218.44 146.847C214.837 157.943 220.445 173.838 213.723 183.076C206.934 192.405 190.038 191.951 180.709 198.739C171.472 205.462 166.721 221.708 155.624 225.311C144.917 228.789 131.572 218.551 119.706 218.551C107.84 218.551 94.495 228.789 83.788 225.311C72.691 221.708 67.9399 205.462 58.703 198.739C49.374 191.951 32.478 192.405 25.688 183.076C18.9659 173.839 24.575 157.943 20.972 146.848C17.495 136.14 3.5 126.63 3.5 114.765C3.5 102.899 17.495 93.3898 20.9709 82.6818C24.574 71.5858 18.9659 55.6898 25.688 46.4528C32.478 37.1238 49.374 37.5778 58.703 30.7898C67.939 24.0668 72.691 7.82078 83.788 4.21778C94.495 0.739776 107.84 10.9778 119.706 10.9778C131.572 10.9778 144.917 0.739776 155.623 4.21778C166.72 7.82078 171.472 24.0668 180.709 30.7898C190.038 37.5778 206.934 37.1238 213.723 46.4528C220.445 55.6898 214.837 71.5858 218.44 82.6808C221.917 93.3898 235.912 102.899 235.912 114.765Z" fill="var(--fill-0, #55B032)"/>
</g>
</svg>
