<svg preserveAspectRatio="none" width="100%" height="100%" overflow="visible" style="display: block;" viewBox="0 0 239.044 229.16" fill="none" xmlns="http://www.w3.org/2000/svg">
<g id="&#227;&#130;&#176;&#227;&#131;&#171;&#227;&#131;&#188;&#227;&#131;&#151; 53">
<path id="&#227;&#131;&#145;&#227;&#130;&#185; 83" d="M235.729 114.58C235.729 126.446 221.734 135.955 218.257 146.662C214.654 157.759 220.262 173.655 213.539 182.891C206.751 192.22 189.855 191.766 180.526 198.555C171.289 205.277 166.538 221.524 155.441 225.127C144.734 228.604 131.388 218.366 119.523 218.366C107.657 218.366 94.3116 228.604 83.6046 225.127C72.5075 221.524 67.7565 205.277 58.5196 198.555C49.1905 191.766 32.2945 192.22 25.5046 182.891C18.7825 173.655 24.3915 157.759 20.7885 146.663C17.3116 135.955 3.3155 126.446 3.3155 114.58C3.3155 102.714 17.3116 93.2051 20.7875 82.4981C24.3906 71.4011 18.7825 55.5061 25.5046 46.2691C32.2945 36.9401 49.1905 37.3941 58.5196 30.6051C67.7556 23.8831 72.5075 7.63606 83.6046 4.03306C94.3116 0.55606 107.657 10.7941 119.523 10.7941C131.388 10.7941 144.734 0.55606 155.44 4.03306C166.537 7.63606 171.289 23.8831 180.526 30.6051C189.855 37.3941 206.751 36.9401 213.539 46.2691C220.262 55.5051 214.654 71.4011 218.257 82.4971C221.734 93.2051 235.729 102.714 235.729 114.58Z" stroke="var(--stroke-0, white)" stroke-width="6.631"/>
<path id="&#227;&#131;&#145;&#227;&#130;&#185; 84" d="M235.729 114.58C235.729 126.446 221.734 135.955 218.257 146.662C214.654 157.759 220.262 173.655 213.539 182.891C206.751 192.22 189.855 191.766 180.526 198.555C171.289 205.277 166.538 221.524 155.441 225.127C144.734 228.604 131.388 218.366 119.523 218.366C107.657 218.366 94.3116 228.604 83.6046 225.127C72.5075 221.524 67.7565 205.277 58.5196 198.555C49.1905 191.766 32.2945 192.22 25.5046 182.891C18.7825 173.655 24.3915 157.759 20.7885 146.663C17.3116 135.955 3.3155 126.446 3.3155 114.58C3.3155 102.714 17.3116 93.2051 20.7875 82.4981C24.3906 71.4011 18.7825 55.5061 25.5046 46.2691C32.2945 36.9401 49.1905 37.3941 58.5196 30.6051C67.7556 23.8831 72.5075 7.63606 83.6046 4.03306C94.3116 0.55606 107.657 10.7941 119.523 10.7941C131.388 10.7941 144.734 0.55606 155.44 4.03306C166.537 7.63606 171.289 23.8831 180.526 30.6051C189.855 37.3941 206.751 36.9401 213.539 46.2691C220.262 55.5051 214.654 71.4011 218.257 82.4971C221.734 93.2051 235.729 102.714 235.729 114.58Z" fill="var(--fill-0, #EE7900)"/>
</g>
</svg>
