<svg fill="none" height="24" viewBox="0 0 24 24" width="24" xmlns="http://www.w3.org/2000/svg"><path d="m11.96 0c-6.61001 0-11.96 5.35996-11.96 11.96 0 6.6 5.35999 11.96 11.96 11.96 6.6 0 11.96-5.36 11.96-11.96 0-6.60004-5.36-11.96-11.96-11.96zm4.37 14.64c.23.18.36.49.36.84 0 .33-.13.63-.38.86-.17.21-.47.35-.82.35-.33 0-.63-.13-.86-.38l-2.67-2.66-2.69001 2.67c-.34.42-1.17.5-1.67 0-.24-.23-.36999-.52-.36999-.85 0-.35.13999-.65.39999-.87l2.65001-2.66-2.69-2.67004c-.24-.24-.36-.52997-.36-.83997 0-.35.13999-.64999.39999-.86999.43-.44 1.27-.42 1.67.06l2.66001 2.6399 2.69-2.66993c.43-.47 1.29-.46997 1.71.03003.2.15.33.44999.33.80999 0 .31-.12.59997-.36.83997l-2.69 2.67004 2.69 2.69z" fill="#221714"/></svg>