<svg preserveAspectRatio="none" width="100%" height="100%" overflow="visible" style="display: block;" viewBox="0 0 56.731 53.6434" fill="none" xmlns="http://www.w3.org/2000/svg">
<path id="&#227;&#131;&#145;&#227;&#130;&#185; 189" d="M0 45.251C0 41.313 2.01001 38.379 7.20599 38.379C10.977 38.379 14.664 40.139 17.849 40.81C18.939 38.883 19.524 35.447 19.86 33.268L20.531 28.575C14.915 27.653 8.21204 25.307 3.51898 20.447L8.79803 13.491C13.24 17.179 17.849 18.939 21.703 19.777C23.463 7.70898 28.24 0 39.72 0C45.502 0 52.122 3.85498 52.122 11.732C52.122 18.1 47.01 27.821 30.503 28.994L29.665 34.776C29.245 37.542 28.24 41.899 26.899 44.162C29.078 45.084 31.927 45.503 35.111 45.503C41.06 45.503 45.754 42.15 49.609 34.776L56.731 38.212C52.373 47.514 45.251 53.966 34.776 53.631C29.832 53.463 24.887 52.206 20.279 50.614C17.43 52.793 13.827 53.631 10.139 53.631C3.771 53.631 0.0839844 49.86 0 45.251ZM42.234 11.983C42.234 9.888 40.893 8.79901 39.05 8.79901C35.53 8.79901 33.016 13.491 31.927 20.112C40.306 18.939 42.234 14.246 42.234 11.983Z" fill="var(--fill-0, white)"/>
</svg>
