<svg preserveAspectRatio="none" width="100%" height="100%" overflow="visible" style="display: block;" viewBox="0 0 48.9993 47.6056" fill="none" xmlns="http://www.w3.org/2000/svg">
<path id="&#227;&#131;&#145;&#227;&#130;&#185; 404" d="M21.8743 20.707H48.7793C48.9993 21.061 48.9993 24.124 48.9993 24.3359C48.0732 42.1431 32.1783 48.3198 23.9213 47.541C12.3503 47.2852 1.3313 38.936 0.0102582 25.0439C-0.365718 11.4292 9.63025 0.306152 23.9213 0C37.7233 0.0429688 45.2073 9.45508 47.1772 15.6357C46.5373 15.6909 35.2943 15.6357 35.2943 15.6357C35.2943 15.6357 31.8683 9.5498 24.2133 9.76221C17.6503 9.90381 11.2353 14.9277 11.0903 23.771C11.2353 29.7832 14.4433 37.6372 24.2133 38.2739C34.1993 38.2051 36.7533 29.855 36.7533 29.855H21.8793L21.8743 20.707Z" fill="var(--fill-0, #009944)"/>
</svg>
