<svg width="255" height="27" viewBox="0 0 255 27" fill="none" xmlns="http://www.w3.org/2000/svg">
<rect y="1.16016" width="38.491" height="25.1205" fill="#00A63C"/>
<path d="M39.6469 24.189C39.6469 25.5151 40.7228 26.5952 42.0508 26.5952C43.3768 26.5952 44.4568 25.5151 44.4568 24.189C44.4568 22.8618 43.3768 21.7852 42.0508 21.7852C40.7228 21.7852 39.6469 22.8618 39.6469 24.189ZM39.9249 24.1899C39.9249 23.0171 40.8779 22.062 42.0508 22.062C43.2219 22.062 44.1779 23.0171 44.1779 24.1899C44.1779 25.3599 43.2239 26.3149 42.0508 26.3149C40.8779 26.3149 39.9249 25.3599 39.9249 24.1899Z" fill="white"/>
<path d="M43.2219 25.7446H42.7598L41.8268 24.3003H41.4169V25.7446H41.0469V22.5664H41.9468C42.2479 22.5664 42.4869 22.6396 42.6619 22.7866C42.8369 22.9316 42.9249 23.1367 42.9249 23.3975C42.9249 23.5913 42.8599 23.7646 42.7338 23.9155C42.6049 24.0654 42.4288 24.1675 42.2059 24.2227L43.2219 25.7446ZM41.4169 23.9795H41.8829C42.0789 23.9795 42.2379 23.9263 42.3599 23.8203C42.4799 23.7134 42.5419 23.5815 42.5419 23.4194C42.5419 23.0654 42.3248 22.8887 41.8929 22.8887H41.4169V23.9795Z" fill="white"/>
<path d="M9.67188 20.6445C7.56085 20.6445 4.93884 19.0312 4.93884 15.7017C4.93884 13.1177 7.49786 11.0522 9.67188 9.81738C11.8439 11.0522 14.4039 13.1167 14.4039 15.7017C14.4039 19.0312 11.7828 20.6445 9.67188 20.6445ZM24.1738 15.6455C24.1738 13.0605 26.7328 10.9956 28.9058 9.76172C31.0789 10.9956 33.6368 13.0605 33.6368 15.6455C33.6368 18.9736 31.0168 20.5874 28.9058 20.5874C26.7938 20.5874 24.1738 18.9736 24.1738 15.6455ZM38.4858 5.06836C34.5748 5.06836 31.1088 6.04346 28.7549 7.26758C26.4009 6.04346 23.1498 5.06836 19.2408 5.06836C15.3289 5.06836 12.0789 6.04346 9.72485 7.26758C7.37183 6.04346 3.91083 5.06836 0.000854492 5.06836V7.26855C2.31287 7.26855 5.11786 7.70068 7.31982 8.65771C4.94183 10.2476 2.58887 12.6577 2.58887 15.6997C2.58887 19.7197 6.01184 22.7915 9.72485 22.7915C13.4379 22.7915 16.6948 19.7197 16.6948 15.6997C16.6948 12.6577 14.5098 10.2476 12.1309 8.65771C14.3318 7.70068 16.9288 7.26855 19.2408 7.26855C21.5529 7.26855 24.1489 7.70068 26.3499 8.65625C23.9719 10.2476 21.7858 12.6577 21.7858 15.6997C21.7858 19.7197 25.0428 22.7905 28.7549 22.7905C32.4678 22.7905 35.8389 19.7197 35.8389 15.6987C35.8389 12.6577 33.5399 10.2476 31.1608 8.65625C33.3629 7.70068 36.1738 7.26855 38.4858 7.26758V5.06836Z" fill="white"/>
<path d="M58.6979 26.9458C54.8978 26.9458 51.0519 24.293 51.0519 19.2241V7.72412C51.0519 2.65479 54.8978 0.00195312 58.6979 0.00195312C62.4979 0.00195312 66.3439 2.64209 66.3439 7.68604V19.2612C66.3439 24.3062 62.4979 26.9458 58.6979 26.9458ZM58.6979 3.34424C56.3188 3.34424 54.6558 5.12891 54.6558 7.68604V19.2612C54.6558 21.8179 56.3188 23.604 58.6979 23.604C61.0558 23.604 62.7018 21.8179 62.7018 19.2612V7.68604C62.7018 5.12891 61.0558 3.34424 58.6979 3.34424Z" fill="white"/>
<path d="M75.7208 26.6431C75.6078 26.6431 75.5159 26.5508 75.5159 26.438V4.62598L72.1199 7.06201C72.0839 7.08691 72.0419 7.1001 71.9999 7.1001C71.9678 7.1001 71.9359 7.0918 71.9069 7.07812C71.8378 7.04199 71.7949 6.97217 71.7949 6.89502V3.36279C71.7949 3.29883 71.8248 3.23926 71.8749 3.20117L75.5958 0.344238C75.6318 0.315918 75.6758 0.300781 75.7208 0.300781H78.9529C79.0659 0.300781 79.1578 0.393066 79.1578 0.505859V26.438C79.1578 26.5508 79.0659 26.6431 78.9529 26.6431H75.7208Z" fill="white"/>
<path d="M86.0549 26.6431C85.9418 26.6431 85.8499 26.5508 85.8499 26.438V23.7319C85.8499 23.6831 85.8669 23.6362 85.8989 23.5991L95.0308 12.813C96.7618 10.7881 97.9139 9.05078 97.9139 7.15918C97.9139 4.51025 95.8378 3.3042 93.9089 3.3042C91.4838 3.3042 89.9349 4.78418 89.8679 7.16406C89.8649 7.2749 89.7739 7.36426 89.6628 7.36426H86.4678C86.3549 7.36426 86.2629 7.27197 86.2629 7.15918C86.2629 3.01123 89.4789 0 93.9089 0C98.4108 0 101.556 3.00488 101.556 7.30811C101.556 10.2632 99.5458 12.666 97.9299 14.5981L90.7369 23.3008H101.276C101.389 23.3008 101.481 23.3931 101.481 23.5059V26.438C101.481 26.5508 101.389 26.6431 101.276 26.6431H86.0549Z" fill="white"/>
<path d="M113.94 26.9458C110.14 26.9458 106.294 24.293 106.294 19.2241V7.72412C106.294 2.65479 110.14 0.00195312 113.94 0.00195312C117.74 0.00195312 121.586 2.64209 121.586 7.68604V19.2612C121.586 24.3062 117.74 26.9458 113.94 26.9458ZM113.94 3.34424C111.561 3.34424 109.898 5.12891 109.898 7.68604V19.2612C109.898 21.8179 111.561 23.604 113.94 23.604C116.298 23.604 117.944 21.8179 117.944 19.2612V7.68604C117.944 5.12891 116.298 3.34424 113.94 3.34424Z" fill="white"/>
<path d="M126.135 12.5175C126.135 12.4043 126.227 12.3125 126.34 12.3125H136.074C136.187 12.3125 136.279 12.4043 136.279 12.5175V15.2225C136.279 15.3357 136.187 15.4275 136.074 15.4275H126.34C126.227 15.4275 126.135 15.3357 126.135 15.2225V12.5175Z" fill="white"/>
<path d="M145.619 26.9448C140.845 26.9448 137.7 24.2651 137.41 19.9512C137.406 19.894 137.426 19.8389 137.464 19.7979C137.503 19.7559 137.557 19.7319 137.614 19.7319H140.771C140.871 19.7319 140.957 19.8052 140.973 19.9048C141.195 21.2861 142.094 23.603 145.619 23.603C147.966 23.603 149.736 21.8169 149.736 19.4492C149.736 16.4058 147.94 14.73 144.68 14.73H143.063C142.95 14.73 142.858 14.6382 142.858 14.5249V11.5942C142.858 11.481 142.95 11.3892 143.063 11.3892H144.68C147.786 11.3892 149.36 9.91602 149.36 7.00879C149.36 5.18799 147.863 3.30518 145.356 3.30518C143.087 3.30518 141.387 4.78711 141.314 6.82812C141.31 6.93799 141.22 7.02588 141.109 7.02588H137.952C137.839 7.02588 137.747 6.93408 137.747 6.8208C137.747 2.39111 141.667 0.00195312 145.356 0.00195312C149.786 0.00195312 153.002 2.97998 153.002 7.08496C153.002 9.604 151.699 11.7261 149.408 12.9702C151.306 13.8491 153.378 15.6602 153.378 19.374C153.378 23.6899 150.042 26.9448 145.619 26.9448Z" fill="white"/>
<path d="M156.666 26.6431C156.553 26.6431 156.461 26.5508 156.461 26.438V23.7319C156.461 23.6831 156.478 23.6362 156.51 23.5991L165.642 12.813C167.373 10.7881 168.525 9.05078 168.525 7.15918C168.525 4.51025 166.449 3.3042 164.52 3.3042C162.095 3.3042 160.546 4.78418 160.479 7.16406C160.476 7.2749 160.385 7.36426 160.274 7.36426H157.079C156.966 7.36426 156.874 7.27197 156.874 7.15918C156.874 3.01123 160.09 0 164.52 0C169.022 0 172.167 3.00488 172.167 7.30811C172.167 10.2632 170.157 12.666 168.541 14.5981L161.348 23.3008H171.887C172 23.3008 172.092 23.3931 172.092 23.5059V26.438C172.092 26.5508 172 26.6431 171.887 26.6431H156.666Z" fill="white"/>
<path d="M179.44 26.6431C179.373 26.6431 179.311 26.6108 179.273 26.5562C179.234 26.501 179.225 26.4312 179.247 26.3691L187.417 3.64307H179.645V7.98486C179.645 8.09814 179.553 8.18994 179.44 8.18994H176.508C176.395 8.18994 176.303 8.09814 176.303 7.98486V0.505859C176.303 0.393066 176.395 0.300781 176.508 0.300781H191.09C191.204 0.300781 191.295 0.393066 191.295 0.505859V3.43799L183.053 26.5068C183.024 26.5879 182.946 26.6431 182.86 26.6431H179.44Z" fill="white"/>
<path d="M194.491 12.5175C194.491 12.4043 194.583 12.3125 194.696 12.3125H204.43C204.543 12.3125 204.635 12.4043 204.635 12.5175V15.2225C204.635 15.3357 204.543 15.4275 204.43 15.4275H194.696C194.583 15.4275 194.491 15.3357 194.491 15.2225V12.5175Z" fill="white"/>
<path d="M213.599 26.9448C208.825 26.9448 205.68 24.2651 205.39 19.9512C205.386 19.894 205.406 19.8389 205.444 19.7979C205.483 19.7559 205.537 19.7319 205.594 19.7319H208.751C208.851 19.7319 208.937 19.8052 208.953 19.9048C209.175 21.2861 210.074 23.603 213.599 23.603C215.946 23.603 217.716 21.8169 217.716 19.4492C217.716 16.4058 215.92 14.73 212.66 14.73H211.043C210.93 14.73 210.838 14.6382 210.838 14.5249V11.5942C210.838 11.481 210.93 11.3892 211.043 11.3892H212.66C215.766 11.3892 217.34 9.91602 217.34 7.00879C217.34 5.18799 215.843 3.30518 213.336 3.30518C211.067 3.30518 209.367 4.78711 209.294 6.82812C209.29 6.93799 209.2 7.02588 209.089 7.02588H205.932C205.819 7.02588 205.727 6.93408 205.727 6.8208C205.727 2.39111 209.647 0.00195312 213.336 0.00195312C217.766 0.00195312 220.982 2.97998 220.982 7.08496C220.982 9.604 219.679 11.7261 217.388 12.9702C219.286 13.8491 221.358 15.6602 221.358 19.374C221.358 23.6899 218.022 26.9448 213.599 26.9448Z" fill="white"/>
<path d="M235.208 26.6431C235.095 26.6431 235.003 26.5508 235.003 26.438V22.4341H223.971C223.857 22.4341 223.766 22.3418 223.766 22.229V19.8608L232.918 0.417969C232.952 0.347168 233.024 0.300781 233.104 0.300781H236.298C236.368 0.300781 236.433 0.335938 236.47 0.39502C236.508 0.455078 236.513 0.527832 236.484 0.59082L228.048 19.0918H235.003V11.668C235.003 11.5552 235.095 11.4629 235.208 11.4629H238.44C238.553 11.4629 238.645 11.5552 238.645 11.668V19.0918H240.808C240.921 19.0918 241.013 19.1841 241.013 19.2969V22.229C241.013 22.3418 240.921 22.4341 240.808 22.4341H238.645V26.438C238.645 26.5508 238.553 26.6431 238.44 26.6431H235.208Z" fill="white"/>
<path d="M250.765 26.6431C250.652 26.6431 250.56 26.5508 250.56 26.438V4.62598L247.164 7.06201C247.128 7.08691 247.086 7.1001 247.044 7.1001C247.012 7.1001 246.98 7.0918 246.951 7.07812C246.882 7.04199 246.839 6.97217 246.839 6.89502V3.36279C246.839 3.29883 246.869 3.23926 246.919 3.20117L250.64 0.344238C250.676 0.315918 250.72 0.300781 250.765 0.300781H253.997C254.11 0.300781 254.202 0.393066 254.202 0.505859V26.438C254.202 26.5508 254.11 26.6431 253.997 26.6431H250.765Z" fill="white"/>
</svg>
