<svg preserveAspectRatio="none" width="100%" height="100%" overflow="visible" style="display: block;" viewBox="0 0 254.202 26.9448" fill="none" xmlns="http://www.w3.org/2000/svg">
<g id="&#227;&#130;&#176;&#227;&#131;&#171;&#227;&#131;&#188;&#227;&#131;&#151; 256">
<rect id="&#233;&#149;&#183;&#230;&#150;&#185;&#229;&#189;&#162; 200" y="1.1582" width="38.491" height="25.1205" fill="var(--fill-0, #00A63C)"/>
<path id="&#227;&#131;&#145;&#227;&#130;&#185; 538" d="M39.6469 24.188C39.6469 25.5142 40.7228 26.5942 42.0508 26.5942C43.3768 26.5942 44.4568 25.5142 44.4568 24.188C44.4568 22.8608 43.3768 21.7842 42.0508 21.7842C40.7228 21.7842 39.6469 22.8608 39.6469 24.188ZM39.9249 24.189C39.9249 23.0161 40.8779 22.061 42.0508 22.061C43.2219 22.061 44.1779 23.0161 44.1779 24.189C44.1779 25.3589 43.2239 26.314 42.0508 26.314C40.8779 26.314 39.9249 25.3589 39.9249 24.189Z" fill="var(--fill-0, white)"/>
<path id="&#227;&#131;&#145;&#227;&#130;&#185; 539" d="M43.2219 25.7441H42.7598L41.8268 24.2998H41.4169V25.7441H41.0469V22.5659H41.9468C42.2479 22.5659 42.4869 22.6392 42.6619 22.7861C42.8369 22.9312 42.9249 23.1362 42.9249 23.397C42.9249 23.5908 42.8599 23.7642 42.7338 23.915C42.6049 24.0649 42.4288 24.167 42.2059 24.2222L43.2219 25.7441ZM41.4169 23.979H41.8829C42.0789 23.979 42.2379 23.9258 42.3599 23.8198C42.4799 23.7129 42.5419 23.5811 42.5419 23.4189C42.5419 23.0649 42.3248 22.8882 41.8929 22.8882H41.4169V23.979Z" fill="var(--fill-0, white)"/>
<path id="&#227;&#131;&#145;&#227;&#130;&#185; 540" d="M9.67188 20.6431C7.56085 20.6431 4.93884 19.0298 4.93884 15.7002C4.93884 13.1162 7.49786 11.0508 9.67188 9.81592C11.8439 11.0508 14.4039 13.1152 14.4039 15.7002C14.4039 19.0298 11.7828 20.6431 9.67188 20.6431ZM24.1738 15.644C24.1738 13.0591 26.7328 10.9941 28.9058 9.76025C31.0789 10.9941 33.6368 13.0591 33.6368 15.644C33.6368 18.9722 31.0168 20.5859 28.9058 20.5859C26.7938 20.5859 24.1738 18.9722 24.1738 15.644ZM38.4858 5.06689C34.5748 5.06689 31.1088 6.04199 28.7549 7.26611C26.4009 6.04199 23.1498 5.06689 19.2408 5.06689C15.3289 5.06689 12.0789 6.04199 9.72485 7.26611C7.37183 6.04199 3.91083 5.06689 0.000854492 5.06689V7.26709C2.31287 7.26709 5.11786 7.69922 7.31982 8.65625C4.94183 10.2461 2.58887 12.6562 2.58887 15.6982C2.58887 19.7183 6.01184 22.79 9.72485 22.79C13.4379 22.79 16.6948 19.7183 16.6948 15.6982C16.6948 12.6562 14.5098 10.2461 12.1309 8.65625C14.3318 7.69922 16.9288 7.26709 19.2408 7.26709C21.5529 7.26709 24.1489 7.69922 26.3499 8.65479C23.9719 10.2461 21.7858 12.6562 21.7858 15.6982C21.7858 19.7183 25.0428 22.7891 28.7549 22.7891C32.4678 22.7891 35.8389 19.7183 35.8389 15.6973C35.8389 12.6562 33.5399 10.2461 31.1608 8.65479C33.3629 7.69922 36.1738 7.26709 38.4858 7.26611V5.06689Z" fill="var(--fill-0, white)"/>
<path id="&#227;&#131;&#145;&#227;&#130;&#185; 541" d="M58.6979 26.9448C54.8978 26.9448 51.0519 24.292 51.0519 19.2231V7.72314C51.0519 2.65381 54.8978 0.000976562 58.6979 0.000976562C62.4979 0.000976562 66.3439 2.64111 66.3439 7.68506V19.2603C66.3439 24.3052 62.4979 26.9448 58.6979 26.9448ZM58.6979 3.34326C56.3188 3.34326 54.6558 5.12793 54.6558 7.68506V19.2603C54.6558 21.8169 56.3188 23.603 58.6979 23.603C61.0558 23.603 62.7018 21.8169 62.7018 19.2603V7.68506C62.7018 5.12793 61.0558 3.34326 58.6979 3.34326Z" fill="var(--fill-0, white)"/>
<path id="&#227;&#131;&#145;&#227;&#130;&#185; 542" d="M75.7208 26.6431C75.6078 26.6431 75.5159 26.5508 75.5159 26.438V4.62598L72.1199 7.06201C72.0839 7.08691 72.0419 7.1001 71.9999 7.1001C71.9678 7.1001 71.9359 7.0918 71.9069 7.07812C71.8378 7.04199 71.7949 6.97217 71.7949 6.89502V3.36279C71.7949 3.29883 71.8248 3.23926 71.8749 3.20117L75.5958 0.344238C75.6318 0.315918 75.6758 0.300781 75.7208 0.300781H78.9529C79.0659 0.300781 79.1578 0.393066 79.1578 0.505859V26.438C79.1578 26.5508 79.0659 26.6431 78.9529 26.6431H75.7208Z" fill="var(--fill-0, white)"/>
<path id="&#227;&#131;&#145;&#227;&#130;&#185; 543" d="M86.0549 26.6431C85.9418 26.6431 85.8499 26.5508 85.8499 26.438V23.7319C85.8499 23.6831 85.8669 23.6362 85.8989 23.5991L95.0308 12.813C96.7618 10.7881 97.9139 9.05078 97.9139 7.15918C97.9139 4.51025 95.8378 3.3042 93.9089 3.3042C91.4838 3.3042 89.9349 4.78418 89.8679 7.16406C89.8649 7.2749 89.7739 7.36426 89.6628 7.36426H86.4678C86.3549 7.36426 86.2629 7.27197 86.2629 7.15918C86.2629 3.01123 89.4789 0 93.9089 0C98.4108 0 101.556 3.00488 101.556 7.30811C101.556 10.2632 99.5458 12.666 97.9299 14.5981L90.7369 23.3008H101.276C101.389 23.3008 101.481 23.3931 101.481 23.5059V26.438C101.481 26.5508 101.389 26.6431 101.276 26.6431H86.0549Z" fill="var(--fill-0, white)"/>
<path id="&#227;&#131;&#145;&#227;&#130;&#185; 544" d="M113.94 26.9448C110.14 26.9448 106.294 24.292 106.294 19.2231V7.72314C106.294 2.65381 110.14 0.000976562 113.94 0.000976562C117.74 0.000976562 121.586 2.64111 121.586 7.68506V19.2603C121.586 24.3052 117.74 26.9448 113.94 26.9448ZM113.94 3.34326C111.561 3.34326 109.898 5.12793 109.898 7.68506V19.2603C109.898 21.8169 111.561 23.603 113.94 23.603C116.298 23.603 117.944 21.8169 117.944 19.2603V7.68506C117.944 5.12793 116.298 3.34326 113.94 3.34326Z" fill="var(--fill-0, white)"/>
<path id="&#233;&#149;&#183;&#230;&#150;&#185;&#229;&#189;&#162; 201" d="M126.135 12.5165C126.135 12.4033 126.227 12.3115 126.34 12.3115H136.074C136.187 12.3115 136.279 12.4033 136.279 12.5165V15.2215C136.279 15.3347 136.187 15.4265 136.074 15.4265H126.34C126.227 15.4265 126.135 15.3347 126.135 15.2215V12.5165Z" fill="var(--fill-0, white)"/>
<path id="&#227;&#131;&#145;&#227;&#130;&#185; 545" d="M145.619 26.9438C140.845 26.9438 137.7 24.2642 137.41 19.9502C137.406 19.8931 137.426 19.8379 137.464 19.7969C137.503 19.7549 137.557 19.731 137.614 19.731H140.771C140.871 19.731 140.957 19.8042 140.973 19.9038C141.195 21.2852 142.094 23.6021 145.619 23.6021C147.966 23.6021 149.736 21.8159 149.736 19.4482C149.736 16.4048 147.94 14.729 144.68 14.729H143.063C142.95 14.729 142.858 14.6372 142.858 14.5239V11.5933C142.858 11.48 142.95 11.3882 143.063 11.3882H144.68C147.786 11.3882 149.36 9.91504 149.36 7.00781C149.36 5.18701 147.863 3.3042 145.356 3.3042C143.087 3.3042 141.387 4.78613 141.314 6.82715C141.31 6.93701 141.22 7.0249 141.109 7.0249H137.952C137.839 7.0249 137.747 6.93311 137.747 6.81982C137.747 2.39014 141.667 0.000976562 145.356 0.000976562C149.786 0.000976562 153.002 2.979 153.002 7.08398C153.002 9.60303 151.699 11.7251 149.408 12.9692C151.306 13.8481 153.378 15.6592 153.378 19.373C153.378 23.689 150.042 26.9438 145.619 26.9438Z" fill="var(--fill-0, white)"/>
<path id="&#227;&#131;&#145;&#227;&#130;&#185; 546" d="M156.666 26.6431C156.553 26.6431 156.461 26.5508 156.461 26.438V23.7319C156.461 23.6831 156.478 23.6362 156.51 23.5991L165.642 12.813C167.373 10.7881 168.525 9.05078 168.525 7.15918C168.525 4.51025 166.449 3.3042 164.52 3.3042C162.095 3.3042 160.546 4.78418 160.479 7.16406C160.476 7.2749 160.385 7.36426 160.274 7.36426H157.079C156.966 7.36426 156.874 7.27197 156.874 7.15918C156.874 3.01123 160.09 0 164.52 0C169.022 0 172.167 3.00488 172.167 7.30811C172.167 10.2632 170.157 12.666 168.541 14.5981L161.348 23.3008H171.887C172 23.3008 172.092 23.3931 172.092 23.5059V26.438C172.092 26.5508 172 26.6431 171.887 26.6431H156.666Z" fill="var(--fill-0, white)"/>
<path id="&#227;&#131;&#145;&#227;&#130;&#185; 547" d="M179.44 26.6431C179.373 26.6431 179.311 26.6108 179.273 26.5562C179.234 26.501 179.225 26.4312 179.247 26.3691L187.417 3.64307H179.645V7.98486C179.645 8.09814 179.553 8.18994 179.44 8.18994H176.508C176.395 8.18994 176.303 8.09814 176.303 7.98486V0.505859C176.303 0.393066 176.395 0.300781 176.508 0.300781H191.09C191.204 0.300781 191.295 0.393066 191.295 0.505859V3.43799L183.053 26.5068C183.024 26.5879 182.946 26.6431 182.86 26.6431H179.44Z" fill="var(--fill-0, white)"/>
<path id="&#233;&#149;&#183;&#230;&#150;&#185;&#229;&#189;&#162; 202" d="M194.491 12.5165C194.491 12.4033 194.583 12.3115 194.696 12.3115H204.43C204.543 12.3115 204.635 12.4033 204.635 12.5165V15.2216C204.635 15.3348 204.543 15.4265 204.43 15.4265H194.696C194.583 15.4265 194.491 15.3347 194.491 15.2215V12.5165Z" fill="var(--fill-0, white)"/>
<path id="&#227;&#131;&#145;&#227;&#130;&#185; 548" d="M213.599 26.9438C208.825 26.9438 205.68 24.2642 205.39 19.9502C205.386 19.8931 205.406 19.8379 205.444 19.7969C205.483 19.7549 205.537 19.731 205.594 19.731H208.751C208.851 19.731 208.937 19.8042 208.953 19.9038C209.175 21.2852 210.074 23.6021 213.599 23.6021C215.946 23.6021 217.716 21.8159 217.716 19.4482C217.716 16.4048 215.92 14.729 212.66 14.729H211.043C210.93 14.729 210.838 14.6372 210.838 14.5239V11.5933C210.838 11.48 210.93 11.3882 211.043 11.3882H212.66C215.766 11.3882 217.34 9.91504 217.34 7.00781C217.34 5.18701 215.843 3.3042 213.336 3.3042C211.067 3.3042 209.367 4.78613 209.294 6.82715C209.29 6.93701 209.2 7.0249 209.089 7.0249H205.932C205.819 7.0249 205.727 6.93311 205.727 6.81982C205.727 2.39014 209.647 0.000976562 213.336 0.000976562C217.766 0.000976562 220.982 2.979 220.982 7.08398C220.982 9.60303 219.679 11.7251 217.388 12.9692C219.286 13.8481 221.358 15.6592 221.358 19.373C221.358 23.689 218.022 26.9438 213.599 26.9438Z" fill="var(--fill-0, white)"/>
<path id="&#227;&#131;&#145;&#227;&#130;&#185; 549" d="M235.208 26.6431C235.095 26.6431 235.003 26.5508 235.003 26.438V22.4341H223.971C223.857 22.4341 223.766 22.3418 223.766 22.229V19.8608L232.918 0.417969C232.952 0.347168 233.024 0.300781 233.104 0.300781H236.298C236.368 0.300781 236.433 0.335938 236.47 0.39502C236.508 0.455078 236.513 0.527832 236.484 0.59082L228.048 19.0918H235.003V11.668C235.003 11.5552 235.095 11.4629 235.208 11.4629H238.44C238.553 11.4629 238.645 11.5552 238.645 11.668V19.0918H240.808C240.921 19.0918 241.013 19.1841 241.013 19.2969V22.229C241.013 22.3418 240.921 22.4341 240.808 22.4341H238.645V26.438C238.645 26.5508 238.553 26.6431 238.44 26.6431H235.208Z" fill="var(--fill-0, white)"/>
<path id="&#227;&#131;&#145;&#227;&#130;&#185; 550" d="M250.765 26.6431C250.652 26.6431 250.56 26.5508 250.56 26.438V4.62598L247.164 7.06201C247.128 7.08691 247.086 7.1001 247.044 7.1001C247.012 7.1001 246.98 7.0918 246.951 7.07812C246.882 7.04199 246.839 6.97217 246.839 6.89502V3.36279C246.839 3.29883 246.869 3.23926 246.919 3.20117L250.64 0.344238C250.676 0.315918 250.72 0.300781 250.765 0.300781H253.997C254.11 0.300781 254.202 0.393066 254.202 0.505859V26.438C254.202 26.5508 254.11 26.6431 253.997 26.6431H250.765Z" fill="var(--fill-0, white)"/>
</g>
</svg>
