<svg preserveAspectRatio="none" width="100%" height="100%" overflow="visible" style="display: block;" viewBox="0 0 388.208 133.382" fill="none" xmlns="http://www.w3.org/2000/svg">
<g id="&#227;&#130;&#176;&#227;&#131;&#171;&#227;&#131;&#188;&#227;&#131;&#151; 14">
<path id="&#227;&#131;&#145;&#227;&#130;&#185; 2" d="M13.6694 12.94H30.4824C30.6204 13.161 30.6204 15.075 30.6204 15.208C30.0414 26.335 20.1084 30.195 14.9484 29.709C7.71841 29.549 0.832414 24.331 0.00641363 15.65C-0.228587 7.142 6.01741 0.191 14.9484 0C23.5734 0.027 28.2504 5.908 29.4814 9.771C29.0814 9.805 22.0554 9.771 22.0554 9.771C22.0554 9.771 19.9144 5.968 15.1304 6.101C11.0304 6.189 7.02141 9.328 6.93041 14.855C7.02141 18.612 9.02541 23.52 15.1304 23.917C21.3714 23.874 22.9674 18.657 22.9674 18.657H13.6724L13.6694 12.94Z" fill="var(--fill-0, white)"/>
<path id="&#227;&#131;&#145;&#227;&#130;&#185; 3" d="M42.8734 12.621C46.4264 12.577 48.6494 15.185 48.4204 18.368C48.6494 22.038 46.6994 24.293 43.4204 24.47C40.8694 24.514 37.9074 22.834 37.8164 18.722C37.7674 14.522 40.3224 12.798 42.8734 12.621ZM42.8734 7.36C36.7084 7.4 31.7584 12.36 31.4394 18.368C31.6164 26.43 38.2784 29.773 42.1894 29.818C46.0814 29.865 48.4204 28.139 48.4204 28.139V29.164H54.9974V7.734H48.4204V8.819C48.4204 8.819 45.7434 7.316 42.8734 7.36Z" fill="var(--fill-0, white)"/>
<path id="&#227;&#131;&#145;&#227;&#130;&#185; 4" d="M57.199 29.1645H64.055V20.7785L69.577 29.1645H77.479L70.355 18.6304L78.541 7.73746H71.086L64.032 16.6725V1.03641H57.199V29.1645Z" fill="var(--fill-0, white)"/>
<path id="&#227;&#131;&#145;&#227;&#130;&#185; 5" d="M78.8954 29.1645H85.7524V20.7785L91.2724 29.1645H99.1754L92.0514 18.6304L100.237 7.73746H92.7824L85.7284 16.6725V1.03641H78.8954V29.1645Z" fill="var(--fill-0, white)"/>
<path id="&#227;&#131;&#145;&#227;&#130;&#185; 6" d="M104.688 15.951C104.688 15.951 105.902 12.556 109.227 12.599C113.001 12.599 113.962 15.951 113.962 15.951H104.688ZM109.496 24.625C104.822 24.21 104.688 20.6 104.688 20.6H120.94C122.162 15.426 118.302 7.073 109.048 6.985C103.153 6.94 97.4334 12.141 97.6784 18.789C97.5894 22.37 100.824 30.018 109.63 30.018C118.302 29.886 120.46 22.245 120.46 22.245H113.769C113.769 22.245 112.19 24.625 109.496 24.625Z" fill="var(--fill-0, white)"/>
<path id="&#227;&#131;&#145;&#227;&#130;&#185; 7" d="M122.409 29.164H129.174V16.668C129.196 16.202 129.423 13.307 132.59 13.307C134.777 13.284 135.871 15.451 135.871 16.932C135.871 16.955 135.872 29.164 135.872 29.164H142.59V15.562C142.543 12.29 140.129 7.471 134.117 7.249C131.109 7.383 129.174 8.819 129.174 8.819V7.732H122.409V29.164Z" fill="var(--fill-0, white)"/>
<path id="&#227;&#131;&#145;&#227;&#130;&#185; 8" d="M189.933 94.1142V106.967H157.578V49.4692H171.8V94.1142H189.933Z" fill="var(--fill-0, #231815)"/>
<rect id="&#233;&#149;&#183;&#230;&#150;&#185;&#229;&#189;&#162; 12" x="200.065" y="67.663" width="13.538" height="39.303" fill="var(--fill-0, #231815)"/>
<path id="&#227;&#131;&#145;&#227;&#130;&#185; 9" d="M253.923 95.11V106.967H244.609C235.918 106.967 230.634 101.653 230.634 92.919V84.639H223.44V81.474L241.05 62.722H243.83V74.214H253.705V84.639H244.172V90.597C244.172 93.412 245.871 95.11 248.727 95.11H253.923Z" fill="var(--fill-0, #55B032)"/>
<path id="&#227;&#131;&#145;&#227;&#130;&#185; 10" d="M294.618 95.11V106.967H285.304C276.613 106.967 271.329 101.653 271.329 92.919V84.639H264.135V81.474L281.745 62.722H284.526V74.214H294.4V84.639H284.867V90.597C284.867 93.412 286.566 95.11 289.422 95.11H294.618Z" fill="var(--fill-0, #FCCF00)"/>
<rect id="&#233;&#149;&#183;&#230;&#150;&#185;&#229;&#189;&#162; 13" x="304.848" y="52.1609" width="13.538" height="54.806" fill="var(--fill-0, #231815)"/>
<path id="&#227;&#131;&#145;&#227;&#130;&#185; 11" d="M349.872 97.368C345.597 97.368 342.734 95.037 341.849 90.527H371.034C371.209 89.312 371.313 88.128 371.313 86.944V86.942C371.313 75.415 362.541 66.376 349.872 66.376C337.536 66.376 328.524 75.236 328.524 87.285C328.524 99.292 337.609 108.257 349.872 108.257C356.454 108.257 362.174 105.749 366.08 101.421L356.978 93.682C355.676 95.982 353.034 97.368 349.872 97.368ZM349.872 76.984C353.957 76.984 356.789 79.103 357.976 83.031H342.088C343.183 79.127 345.926 76.984 349.872 76.984Z" fill="var(--fill-0, #231815)"/>
<path id="&#227;&#131;&#145;&#227;&#130;&#185; 12" d="M213.263 54.278C213.263 57.829 210.385 60.707 206.834 60.707C203.284 60.707 200.405 57.829 200.405 54.278C200.405 50.727 203.284 47.849 206.834 47.849C210.385 47.849 213.263 50.727 213.263 54.278Z" fill="var(--fill-0, #231815)"/>
<path id="&#227;&#131;&#145;&#227;&#130;&#185; 13" d="M388.208 99.83C388.208 103.222 385.458 105.972 382.066 105.972C378.674 105.972 375.924 103.222 375.924 99.83C375.924 96.438 378.674 93.688 382.066 93.688C385.458 93.688 388.208 96.438 388.208 99.83Z" fill="var(--fill-0, #C89409)"/>
<path id="&#227;&#131;&#145;&#227;&#130;&#185; 14" d="M142.016 78.053C142.016 61.354 133.761 45.667 109.63 45.667C85.4984 45.667 77.2434 61.354 77.2434 78.053C77.2434 94.752 85.4984 110.439 109.63 110.439C133.761 110.439 142.016 94.752 142.016 78.053Z" fill="var(--fill-0, #009844)"/>
<path id="&#227;&#131;&#145;&#227;&#130;&#185; 15" d="M92.0484 88.839C92.0484 86.414 93.2864 84.608 96.4854 84.608C98.8074 84.608 101.078 85.691 103.039 86.104C103.71 84.917 104.071 82.802 104.277 81.46L104.69 78.57C101.233 78.003 97.1054 76.558 94.2154 73.565L97.4664 69.282C100.201 71.552 103.039 72.636 105.412 73.152C106.496 65.721 109.438 60.974 116.507 60.974C120.067 60.974 124.144 63.348 124.144 68.198C124.144 72.12 120.996 78.106 110.831 78.828L110.315 82.389C110.057 84.092 109.438 86.775 108.612 88.168C109.954 88.736 111.708 88.994 113.669 88.994C117.332 88.994 120.223 86.93 122.596 82.389L126.982 84.504C124.299 90.232 119.913 94.206 113.462 93.999C110.418 93.896 107.373 93.122 104.535 92.141C102.781 93.483 100.562 93.999 98.2914 93.999C94.3704 93.999 92.0994 91.677 92.0484 88.839ZM118.055 68.353C118.055 67.063 117.229 66.392 116.094 66.392C113.927 66.392 112.379 69.282 111.708 73.359C116.868 72.636 118.055 69.746 118.055 68.353Z" fill="var(--fill-0, white)"/>
<path id="&#227;&#131;&#145;&#227;&#130;&#185; 16" d="M384.399 124.332C384.399 122.035 382.47 120.177 380.099 120.177C379.211 120.177 378.383 120.436 377.698 120.881V120.491H374.281V131.51H377.698V125.125C377.698 124.099 378.461 123.267 379.402 123.267C380.353 123.267 381.112 124.099 381.112 125.125V131.51H384.399V124.332ZM365.179 124.766H370.096C369.668 123.656 368.729 122.889 367.638 122.889C366.55 122.889 365.608 123.656 365.179 124.766ZM365.09 127.191C365.466 128.447 366.465 129.34 367.638 129.34C368.516 129.34 369.291 128.847 369.784 128.074H373.226C372.376 130.278 370.195 131.85 367.638 131.85C364.342 131.85 361.661 129.241 361.661 126.015C361.661 122.79 364.342 120.18 367.638 120.18C370.938 120.18 373.618 122.79 373.618 126.015C373.618 126.424 373.57 126.815 373.491 127.195L365.09 127.191ZM362.729 120.491H358.937L355.614 125.059V117.075H352.195V131.51H355.614V127.213L358.513 131.483H362.441L358.836 125.914L362.729 120.491ZM351.853 120.491H348.054L344.729 125.059V117.075H341.313V131.51H344.729V127.213L347.635 131.483H351.565L347.956 125.914L351.853 120.491ZM337.125 125.935C337.125 127.646 335.834 129.031 334.25 129.031C332.66 129.031 331.377 127.646 331.377 125.935C331.377 124.224 332.66 122.836 334.25 122.836C335.834 122.836 337.125 124.224 337.125 125.935ZM336.887 120.98C336.051 120.52 335.093 120.251 334.069 120.251C330.866 120.251 328.277 122.847 328.277 126.045C328.277 129.245 330.609 131.841 334.069 131.841C334.858 131.841 335.805 131.522 336.696 130.975C336.755 130.939 336.887 131.019 336.887 131.095V131.51H340.169V120.491H336.887V120.98ZM327.777 124.131C327.777 128.393 324.314 131.85 320.051 131.85C315.778 131.85 312.317 128.393 312.317 124.131C312.317 119.862 315.778 116.401 320.051 116.401C323.439 116.401 326.31 118.584 327.351 121.617H323.655C322.896 120.343 321.562 119.498 320.051 119.498C317.67 119.498 315.75 121.571 315.75 124.131C315.75 126.683 317.67 128.752 320.051 128.752C321.694 128.752 323.116 127.759 323.843 126.302H319.289V123.149H327.709C327.737 123.465 327.777 123.797 327.777 124.131Z" fill="var(--fill-0, #231815)"/>
<path id="&#227;&#131;&#145;&#227;&#130;&#185; 17" d="M238.975 133.382H236.905V124.582H238.975V125.235C239.418 124.678 240.021 124.4 240.784 124.4C241.203 124.4 241.595 124.482 241.957 124.646C242.319 124.81 242.634 125.033 242.901 125.315C243.168 125.597 243.375 125.93 243.524 126.311C243.673 126.692 243.747 127.1 243.747 127.535C243.747 127.97 243.673 128.374 243.524 128.748C243.375 129.122 243.169 129.45 242.906 129.732C242.643 130.015 242.332 130.236 241.974 130.396C241.614 130.556 241.226 130.635 240.806 130.635C240.074 130.635 239.463 130.385 238.975 129.88V133.382ZM241.584 127.535C241.584 127.351 241.552 127.179 241.488 127.015C241.423 126.851 241.329 126.707 241.207 126.585C241.086 126.463 240.941 126.365 240.778 126.293C240.614 126.221 240.436 126.184 240.246 126.184C240.062 126.184 239.892 126.219 239.73 126.287C239.57 126.357 239.431 126.452 239.313 126.574C239.194 126.696 239.1 126.838 239.027 127.002C238.954 127.167 238.919 127.34 238.919 127.524C238.919 127.706 238.953 127.878 239.022 128.038C239.091 128.198 239.186 128.338 239.307 128.456C239.429 128.574 239.573 128.67 239.737 128.742C239.901 128.815 240.074 128.851 240.258 128.851C240.44 128.851 240.613 128.816 240.772 128.748C240.932 128.68 241.071 128.584 241.19 128.461C241.308 128.34 241.403 128.198 241.475 128.038C241.548 127.878 241.584 127.71 241.584 127.535Z" fill="var(--fill-0, #231815)"/>
<path id="&#227;&#131;&#145;&#227;&#130;&#185; 18" d="M244.354 127.467C244.354 127.031 244.442 126.625 244.617 126.247C244.793 125.87 245.037 125.542 245.35 125.264C245.662 124.985 246.034 124.766 246.466 124.606C246.896 124.446 247.368 124.365 247.879 124.365C248.382 124.365 248.849 124.443 249.28 124.6C249.711 124.756 250.085 124.973 250.402 125.252C250.718 125.531 250.965 125.862 251.14 126.247C251.315 126.632 251.403 127.058 251.403 127.524C251.403 127.989 251.313 128.414 251.134 128.799C250.955 129.185 250.709 129.517 250.396 129.795C250.083 130.073 249.707 130.289 249.269 130.442C248.83 130.594 248.355 130.67 247.844 130.67C247.341 130.67 246.875 130.594 246.448 130.442C246.021 130.289 245.653 130.072 245.344 129.789C245.035 129.507 244.793 129.169 244.617 128.777C244.442 128.383 244.354 127.947 244.354 127.467ZM246.54 127.489C246.54 127.688 246.576 127.869 246.649 128.033C246.721 128.197 246.816 128.339 246.935 128.461C247.053 128.584 247.194 128.68 247.358 128.748C247.522 128.816 247.695 128.851 247.879 128.851C248.062 128.851 248.235 128.816 248.399 128.748C248.563 128.68 248.704 128.584 248.823 128.461C248.941 128.339 249.036 128.197 249.109 128.033C249.181 127.869 249.218 127.691 249.218 127.5C249.218 127.318 249.181 127.144 249.109 126.98C249.036 126.816 248.941 126.673 248.823 126.55C248.704 126.429 248.563 126.333 248.399 126.265C248.235 126.196 248.062 126.162 247.879 126.162C247.695 126.162 247.522 126.196 247.358 126.265C247.194 126.333 247.053 126.429 246.935 126.55C246.816 126.673 246.721 126.814 246.649 126.974C246.576 127.134 246.54 127.307 246.54 127.489Z" fill="var(--fill-0, #231815)"/>
<path id="&#227;&#131;&#145;&#227;&#130;&#185; 19" d="M253.554 124.582L254.961 127.672L256.427 124.582H257.731L259.195 127.763L260.672 124.582H262.972L259.905 130.452H258.521L257.055 127.237L255.66 130.452H254.252L251.243 124.582H253.554Z" fill="var(--fill-0, #231815)"/>
<path id="&#227;&#131;&#145;&#227;&#130;&#185; 20" d="M264.929 127.866C264.929 128.758 265.348 129.204 266.188 129.204C266.638 129.204 266.978 129.022 267.206 128.655H269.209C268.804 129.999 267.793 130.669 266.176 130.669C265.68 130.669 265.226 130.595 264.815 130.446C264.402 130.298 264.05 130.086 263.756 129.811C263.462 129.537 263.235 129.209 263.075 128.827C262.915 128.446 262.835 128.018 262.835 127.545C262.835 127.057 262.911 126.617 263.064 126.224C263.216 125.831 263.434 125.497 263.716 125.222C263.998 124.948 264.34 124.737 264.74 124.588C265.141 124.439 265.592 124.364 266.096 124.364C266.592 124.364 267.038 124.439 267.435 124.588C267.832 124.737 268.167 124.951 268.442 125.235C268.716 125.516 268.926 125.862 269.072 126.27C269.216 126.677 269.289 127.138 269.289 127.648V127.866H264.929ZM267.355 126.665C267.286 126.374 267.145 126.142 266.932 125.966C266.718 125.791 266.459 125.703 266.153 125.703C265.833 125.703 265.571 125.787 265.37 125.955C265.167 126.122 265.039 126.36 264.986 126.665H267.355Z" fill="var(--fill-0, #231815)"/>
<path id="&#227;&#131;&#145;&#227;&#130;&#185; 21" d="M270.124 124.582H272.195V125.543C272.416 125.193 272.687 124.923 273.008 124.737C273.328 124.55 273.702 124.457 274.129 124.457H274.306C274.371 124.457 274.446 124.464 274.529 124.479V126.459C274.255 126.322 273.958 126.253 273.637 126.253C273.156 126.253 272.796 126.396 272.556 126.682C272.315 126.968 272.195 127.386 272.195 127.934V130.452H270.124V124.582Z" fill="var(--fill-0, #231815)"/>
<path id="&#227;&#131;&#145;&#227;&#130;&#185; 22" d="M277.047 127.866C277.047 128.758 277.466 129.204 278.306 129.204C278.756 129.204 279.096 129.022 279.324 128.655H281.327C280.922 129.999 279.911 130.669 278.294 130.669C277.798 130.669 277.344 130.595 276.933 130.446C276.52 130.298 276.168 130.086 275.874 129.811C275.58 129.537 275.353 129.209 275.193 128.827C275.033 128.446 274.953 128.018 274.953 127.545C274.953 127.057 275.029 126.617 275.182 126.224C275.334 125.831 275.552 125.497 275.834 125.222C276.116 124.948 276.458 124.737 276.858 124.588C277.259 124.439 277.71 124.364 278.214 124.364C278.71 124.364 279.156 124.439 279.553 124.588C279.95 124.737 280.285 124.951 280.56 125.235C280.834 125.516 281.044 125.862 281.19 126.27C281.334 126.677 281.407 127.138 281.407 127.648V127.866H277.047ZM279.473 126.665C279.404 126.374 279.263 126.142 279.05 125.966C278.836 125.791 278.577 125.703 278.271 125.703C277.951 125.703 277.689 125.787 277.488 125.955C277.285 126.122 277.157 126.36 277.104 126.665H279.473Z" fill="var(--fill-0, #231815)"/>
<path id="&#227;&#131;&#145;&#227;&#130;&#185; 23" d="M286.773 120.955H288.856V130.453H286.773V129.801C286.331 130.357 285.732 130.635 284.977 130.635C284.55 130.635 284.157 130.556 283.798 130.396C283.44 130.235 283.127 130.014 282.86 129.731C282.593 129.449 282.385 129.118 282.236 128.737C282.087 128.354 282.013 127.943 282.013 127.5C282.013 127.08 282.084 126.682 282.225 126.304C282.365 125.927 282.566 125.597 282.825 125.315C283.084 125.033 283.395 124.809 283.758 124.646C284.121 124.482 284.519 124.4 284.954 124.4C285.686 124.4 286.293 124.655 286.773 125.166V120.955ZM284.164 127.5C284.164 127.691 284.199 127.869 284.267 128.033C284.336 128.197 284.429 128.339 284.548 128.461C284.666 128.584 284.807 128.68 284.971 128.748C285.135 128.816 285.313 128.851 285.503 128.851C285.686 128.851 285.859 128.816 286.024 128.748C286.188 128.68 286.329 128.584 286.447 128.461C286.565 128.339 286.66 128.198 286.733 128.038C286.806 127.878 286.842 127.706 286.842 127.524C286.842 127.34 286.806 127.167 286.733 127.002C286.66 126.838 286.565 126.695 286.447 126.574C286.329 126.452 286.188 126.356 286.024 126.287C285.859 126.219 285.686 126.184 285.503 126.184C285.32 126.184 285.146 126.219 284.982 126.287C284.818 126.356 284.677 126.452 284.559 126.574C284.441 126.695 284.345 126.834 284.273 126.991C284.201 127.147 284.164 127.318 284.164 127.5Z" fill="var(--fill-0, #231815)"/>
<path id="&#227;&#131;&#145;&#227;&#130;&#185; 24" d="M295.538 120.956V125.166C296.026 124.656 296.637 124.4 297.369 124.4C297.804 124.4 298.202 124.482 298.565 124.646C298.927 124.81 299.236 125.031 299.492 125.309C299.747 125.588 299.947 125.916 300.093 126.293C300.237 126.671 300.31 127.073 300.31 127.5C300.31 127.935 300.235 128.343 300.087 128.725C299.938 129.107 299.73 129.438 299.463 129.72C299.196 130.003 298.881 130.226 298.519 130.39C298.157 130.553 297.766 130.635 297.346 130.635C296.583 130.635 295.98 130.357 295.538 129.801V130.453H293.467V120.956H295.538ZM298.147 127.535C298.147 127.351 298.113 127.179 298.045 127.015C297.976 126.851 297.88 126.707 297.758 126.585C297.636 126.463 297.495 126.365 297.335 126.293C297.175 126.221 296.999 126.184 296.808 126.184C296.625 126.184 296.454 126.219 296.293 126.287C296.133 126.357 295.994 126.452 295.876 126.574C295.757 126.696 295.662 126.838 295.59 127.002C295.517 127.167 295.481 127.34 295.481 127.524C295.481 127.706 295.515 127.878 295.584 128.038C295.653 128.198 295.748 128.338 295.87 128.456C295.992 128.574 296.135 128.67 296.299 128.742C296.463 128.815 296.637 128.851 296.82 128.851C297.003 128.851 297.175 128.816 297.335 128.748C297.495 128.68 297.634 128.584 297.753 128.461C297.871 128.34 297.966 128.198 298.038 128.038C298.111 127.878 298.147 127.71 298.147 127.535Z" fill="var(--fill-0, #231815)"/>
<path id="&#227;&#131;&#145;&#227;&#130;&#185; 25" d="M302.965 129.652L300.127 124.582H302.53L304.098 127.592L305.62 124.582H308L303.285 133.382H300.963L302.965 129.652Z" fill="var(--fill-0, #231815)"/>
<path id="&#227;&#131;&#145;&#227;&#130;&#185; 26" d="M85.2984 18.017V15.929H88.3694V18.017H95.1334V20.847H88.3694V23.175H96.2974V26.005H89.9144C92.4644 29.117 95.2734 30.361 96.6384 30.903L94.8524 33.933C92.0224 32.328 89.4734 30.02 88.3694 28.233V34.997H85.2984V28.293C83.6124 30.581 81.7464 32.328 78.8154 33.933L77.1294 30.903C80.9634 29.257 82.8304 27.25 83.8734 26.005H77.4104V23.175H85.2984V20.847H78.6344V18.017H85.2984Z" fill="var(--fill-0, #231815)"/>
<path id="&#227;&#131;&#145;&#227;&#130;&#185; 27" d="M104.004 20.466H100.411V17.656H107.577V15.97H110.567V17.656H117.853V20.466H114.221L116.368 20.908C116.288 21.208 115.806 22.995 115.104 24.481H118.596V27.331H112.474C114.501 29.358 116.268 30.502 118.897 31.606L117.211 34.516C114 33.01 111.972 30.963 110.567 29.217V34.978H107.577V29.358C104.968 32.288 102.88 33.613 101.034 34.516L99.3084 31.546C101.235 30.782 103.503 29.659 105.71 27.331H99.6494V24.481H103.121C102.78 23.176 102.479 21.992 101.957 20.968L104.004 20.466ZM103.924 24.481H107.577V20.466H104.968C105.289 21.129 105.871 22.654 106.132 23.998L103.924 24.481ZM112.133 23.858C112.615 22.815 113.177 20.908 113.297 20.466H110.567V24.481H114.662L112.133 23.858Z" fill="var(--fill-0, #231815)"/>
<path id="&#227;&#131;&#145;&#227;&#130;&#185; 28" d="M126.906 17.094C126.706 18.318 126.104 21.751 126.104 26.708C126.104 29.117 126.244 31.585 126.706 33.954L123.374 34.195C123.193 33.231 122.832 31.204 122.832 27.43C122.832 22.935 123.333 18.639 123.535 16.873L126.906 17.094ZM132.246 26.186C131.503 27.11 131.322 27.872 131.322 28.454C131.322 29.819 132.847 30.06 134.794 30.06C136.219 30.06 138.106 29.999 139.511 29.819L139.571 33.07C138.989 33.13 137.886 33.251 135.918 33.251C132.627 33.251 128.271 33.091 128.271 29.036C128.271 28.514 128.271 26.989 129.576 25.022L132.246 26.186ZM139.19 21.329H128.874V18.178H139.19V21.329Z" fill="var(--fill-0, #231815)"/>
<path id="&#227;&#131;&#145;&#227;&#130;&#185; 29" d="M146.698 30.461C153.502 30.561 158.439 29.999 158.439 25.142C158.439 23.416 157.677 21.369 154.445 21.369C152.438 21.369 150.371 21.851 144.35 23.256L143.587 19.763C144.771 19.602 145.614 19.462 147.681 19.101C152.077 18.318 153.542 18.238 154.806 18.238C158.901 18.238 161.871 20.927 161.871 25.142C161.871 31.525 156.091 32.709 154.465 33.03C153.08 33.311 151.234 33.612 147.4 33.592L146.698 30.461Z" fill="var(--fill-0, #231815)"/>
<path id="&#227;&#131;&#145;&#227;&#130;&#185; 30" d="M173.233 16.492C173.173 16.854 172.912 18.379 172.871 18.68H176.364V21.731H172.37C171.748 24.781 170.423 29.137 169.359 32.128L166.047 31.204C166.95 29.357 168.416 25.123 169.098 21.731H166.409V18.68H169.62C169.781 17.576 169.821 17.054 169.861 16.372L173.233 16.492ZM184.151 21.811C183.67 21.771 183.148 21.71 182.526 21.71C181.803 21.71 181.181 21.791 180.679 21.851L180.799 27.23C183.348 28.675 184.051 29.338 184.553 29.799L182.767 32.85C182.225 32.268 181.442 31.546 180.559 30.743L180.539 31.164C180.438 33.432 178.492 34.295 176.264 34.295C172.912 34.295 171.286 32.509 171.286 30.301C171.286 28.535 172.47 26.187 176.424 26.187C176.926 26.187 177.267 26.206 177.629 26.247L177.427 19.001C178.371 18.82 179.957 18.519 183.87 18.399L184.151 21.811ZM177.709 29.117C177.327 28.976 176.946 28.836 176.264 28.836C175.983 28.836 174.116 28.856 174.116 30.221C174.116 30.642 174.337 31.586 176.043 31.586C177.689 31.586 177.709 30.743 177.709 30.241V29.117Z" fill="var(--fill-0, #231815)"/>
<path id="&#227;&#131;&#145;&#227;&#130;&#185; 31" d="M195.713 16.552C195.613 17.335 195.512 18.198 195.272 19.924H196.998C200.992 19.924 201.454 22.895 201.454 25.604C201.454 26.748 201.313 31.104 200.029 32.81C199.005 34.155 197.66 34.235 196.636 34.235C195.312 34.235 194.428 34.074 193.726 33.954L193.606 30.903C194.349 31.044 195.051 31.184 195.954 31.184C196.958 31.184 197.299 30.803 197.499 30.501C198.062 29.679 198.323 26.929 198.323 25.484C198.323 23.878 198.282 22.875 196.376 22.895L194.77 22.915C194.087 26.769 193.124 30.602 191.358 34.094L188.387 32.509C189.271 31.164 190.334 29.197 191.619 22.935L188.749 22.975V19.924H192.061C192.241 18.459 192.342 17.275 192.402 16.332L195.713 16.552ZM202.317 20.045C202.136 19.322 201.695 17.857 201.092 16.813L202.858 16.332C203.441 17.255 203.922 18.66 204.123 19.442L202.317 20.045ZM203.36 28.635C203.26 23.617 202.236 21.771 201.835 21.028L204.766 20.125C205.769 21.831 206.532 24.26 206.772 28.294L203.36 28.635ZM205.287 19.543C205.227 19.322 204.705 17.636 203.963 16.412L205.708 15.93C205.929 16.272 206.351 16.873 207.033 19.021L205.287 19.543Z" fill="var(--fill-0, #231815)"/>
<path id="&#227;&#131;&#145;&#227;&#130;&#185; 32" d="M224.576 16.933V19.442C221.545 22.011 221.364 22.172 220.722 22.694C221.044 22.594 221.445 22.453 222.509 22.453C226.603 22.453 228.47 25.484 228.47 28.173C228.47 31.485 225.961 34.275 220.181 34.275C214.982 34.275 214.882 31.044 214.882 30.622C214.882 28.514 216.929 27.33 218.855 27.33C221.264 27.33 222.469 28.996 222.469 30.642C222.469 30.883 222.448 31.044 222.409 31.325C224.115 30.802 225.078 29.839 225.078 28.314C225.078 27.089 224.315 25.142 220.923 25.142C217.711 25.142 216.086 26.668 212.393 30.441L210.406 27.792C212.052 26.548 212.814 25.885 219.699 19.904L212.654 20.045V16.933H224.576ZM220.14 31.224C220.14 31.083 220.1 29.699 218.695 29.699C217.932 29.699 217.411 30.08 217.411 30.682C217.411 31.705 218.855 31.766 219.317 31.766C219.578 31.766 219.779 31.746 220.08 31.686C220.12 31.505 220.14 31.405 220.14 31.224Z" fill="var(--fill-0, #231815)"/>
<path id="&#227;&#131;&#145;&#227;&#130;&#185; 33" d="M232.365 31.967C236.058 31.485 238.065 30.281 238.928 29.478H232.606V26.648H234.633V21.65H240.574V20.567H243.545V21.65H249.486V26.648H251.513V29.478H245.05C245.793 30.181 247.178 31.485 251.834 31.846L250.228 34.978C249.144 34.817 247.438 34.516 245.291 33.191C243.746 32.248 242.682 31.063 242.1 30.12C241.016 31.766 238.667 33.853 234.051 35.138L232.365 31.967ZM236.359 15.93H239.29V17.195H244.769V15.93H247.759V17.195H251.513V20.065H247.759V21.148H244.769V20.065H239.29V21.148H236.359V20.065H232.606V17.195H236.359V15.93ZM240.574 24.279H237.563V26.648H240.454C240.534 26.267 240.574 25.845 240.574 25.464V24.279ZM243.545 25.062C243.545 25.986 243.465 26.447 243.424 26.648H246.515V24.279H243.545V25.062Z" fill="var(--fill-0, #231815)"/>
<path id="&#227;&#131;&#145;&#227;&#130;&#185; 34" d="M254.805 19.462H262.773V21.69H254.805V19.462ZM255.327 16.552H262.151V18.659H255.327V16.552ZM255.327 22.453H262.151V24.661H255.327V22.453ZM255.327 25.443H262.151V27.631H255.327V25.443ZM255.327 28.474H262.151V34.255H258.057V34.997H255.327V28.474ZM258.057 32.067H259.643V30.582H258.057V32.067ZM265.543 20.065C265.623 19.703 265.664 19.462 265.724 19.021H262.974V16.552H273.572V19.021H268.594C268.514 19.442 268.494 19.543 268.394 20.065H272.869V23.938H273.873V26.346H262.673V23.938H264.58C264.68 23.577 264.801 23.215 265.022 22.333H263.355V20.065H265.543ZM273.13 27.35V34.997H270.28V34.255H266.186V34.997H263.355V27.35H273.13ZM266.186 31.746H270.28V29.819H266.186V31.746ZM269.999 23.938V22.333H267.872C267.751 22.834 267.631 23.276 267.45 23.938H269.999Z" fill="var(--fill-0, #231815)"/>
<path id="&#227;&#131;&#145;&#227;&#130;&#185; 35" d="M285.595 32.248C286.458 31.886 288.204 31.164 289.81 29.338C289.509 28.755 288.926 27.611 288.505 25.845C288.264 26.166 288.043 26.467 287.903 26.668L286.136 23.858C286.297 23.657 286.357 23.577 286.417 23.496H284.37C284.21 23.677 283.969 23.938 283.347 24.54H286.397V26.648C285.895 27.27 284.631 28.133 284.15 28.454C285.956 28.314 286.819 28.194 287.481 28.113V30.662C286.478 30.823 285.614 30.903 284.029 31.063V32.85C284.029 33.372 284.029 34.997 282.384 34.997H279.152L278.69 32.368H280.777C281.32 32.368 281.32 32.128 281.32 31.866V31.284C280.938 31.304 277.326 31.545 277.165 31.585L276.984 28.836C277.105 28.836 280.918 28.655 281.32 28.635V27.872H281.841C282.564 27.25 282.745 27.029 282.865 26.848H280.517C279.433 27.571 278.77 27.913 278.188 28.194L276.864 25.705C277.566 25.443 278.811 24.962 280.657 23.496H277.165V20.927H280.336V19.864H277.547V17.335H280.336V15.95H283.066V17.335H285.153V18.298C285.554 17.575 285.816 17.034 286.136 16.251L288.525 17.435C288.164 18.158 287.562 19.362 286.438 20.927H287.401V21.931C288.726 19.322 289.107 16.974 289.248 15.91L292.098 16.07C291.977 16.893 291.897 17.575 291.696 18.479H296.112V21.55H295.269C295.169 22.814 294.907 26.447 293.322 29.338C294.527 30.722 295.65 31.465 296.473 32.007L294.667 34.997C294.085 34.555 292.84 33.613 291.456 31.886C289.729 33.653 288.284 34.516 287.481 34.978L285.595 32.248ZM282.825 19.723V20.927H283.507C284.069 20.285 284.29 19.984 284.47 19.723H282.825ZM290.833 21.55C290.593 22.132 290.492 22.393 290.351 22.674C290.733 24.942 291.335 26.166 291.556 26.628C291.957 25.724 292.499 24.199 292.519 21.55H290.833Z" fill="var(--fill-0, #231815)"/>
<path id="&#227;&#131;&#145;&#227;&#130;&#185; 36" d="M314.839 27.892H316.826V30.401H310.303V31.725H318.311V34.375H299.364V31.725H307.332V30.401H300.849V27.892H307.332V26.768C306.389 26.788 301.833 26.909 300.809 26.909L300.589 24.46C300.709 24.48 303.218 24.5 303.478 24.5C303.82 23.838 303.961 23.456 304.101 23.135H302.094V22.051H299.906V17.154H307.332V15.91H310.363V17.154H317.829V22.051H315.561V23.135H314.357C314.739 23.496 316.103 24.781 317.207 26.206L314.839 27.892ZM314.799 19.743H302.896V20.686H314.799V19.743ZM311.447 23.135H307.352C307.172 23.537 307.111 23.637 306.67 24.48C310.262 24.48 310.644 24.48 311.668 24.42C311.266 24.059 311.045 23.878 310.704 23.597L311.447 23.135ZM310.303 27.892H314.638C314.237 27.25 314.136 27.109 313.674 26.487C312.47 26.547 311.828 26.587 310.303 26.647V27.892Z" fill="var(--fill-0, #231815)"/>
</g>
</svg>
