<svg preserveAspectRatio="none" width="100%" height="100%" overflow="visible" style="display: block;" viewBox="0 0 629.897 364.668" fill="none" xmlns="http://www.w3.org/2000/svg">
<g id="&#227;&#130;&#176;&#227;&#131;&#171;&#227;&#131;&#188;&#227;&#131;&#151; 51">
<path id="&#227;&#131;&#145;&#227;&#130;&#185; 69" d="M138.769 110.608H120.392C119.193 110.608 118.594 110.008 118.594 108.81V94.228C118.594 93.163 119.193 92.63 120.392 92.63H138.769C139.968 92.63 140.567 93.163 140.567 94.228V108.81C140.567 110.008 139.968 110.608 138.769 110.608ZM78.8429 110.608H60.4659C59.2669 110.608 58.6679 110.008 58.6679 108.81V94.228C58.6679 93.163 59.2669 92.63 60.4659 92.63H78.8429C80.0419 92.63 80.6409 93.163 80.6409 94.228V108.81C80.6409 110.008 80.0419 110.608 78.8429 110.608ZM176.323 110.608C175.124 110.608 174.525 110.008 174.525 108.81V78.048C174.525 74.986 173.392 72.323 171.129 70.058C168.863 67.795 166.201 66.662 163.139 66.662H120.192C119.125 66.662 118.594 66.131 118.594 65.064C118.594 62.136 117.595 59.67 115.598 57.673C113.6 55.675 111.134 54.676 108.207 54.676H91.0279C88.0969 54.676 85.6349 55.675 83.6369 57.673C81.6399 59.67 80.6409 62.136 80.6409 65.064C80.6409 66.131 80.1069 66.662 79.0429 66.662H36.0959C33.0309 66.662 30.3679 67.795 28.1059 70.058C25.8399 72.323 24.7099 74.986 24.7099 78.048V108.81C24.7099 110.008 24.1109 110.608 22.9119 110.608H17.1189C14.0539 110.608 11.3919 111.74 9.12894 114.003C6.86295 116.269 5.73294 118.932 5.73294 121.993V128.186C5.73294 131.251 6.86295 133.913 9.12894 136.176C11.3919 138.442 14.0539 139.572 17.1189 139.572H67.4569C67.7219 139.572 67.9219 139.672 68.0559 139.871C68.1869 140.071 68.1219 140.305 67.8569 140.571C58.1339 148.03 41.1549 154.023 16.9189 158.548C13.9889 159.082 11.7569 160.646 10.2279 163.243C8.69492 165.839 8.39493 168.536 9.32892 171.333L13.1239 181.72C14.1879 184.916 16.1199 187.344 18.9169 189.011C21.7129 190.674 24.7099 191.239 27.9059 190.709C42.9529 187.644 56.7699 183.018 69.3549 176.826C81.9389 170.634 92.3579 163.542 100.616 155.552C101.281 154.887 102.014 154.953 102.813 155.752C119.858 172.796 142.63 184.382 171.129 190.509C174.325 191.174 177.353 190.674 180.218 189.011C183.08 187.344 185.043 184.916 186.111 181.72L189.906 171.333C190.836 168.536 190.571 165.874 189.107 163.342C187.64 160.814 185.443 159.282 182.515 158.748C158.145 154.222 141.097 148.23 131.378 140.77C131.11 140.639 131.044 140.405 131.178 140.071C131.31 139.74 131.509 139.572 131.778 139.572H182.116C185.177 139.572 187.84 138.442 190.106 136.176C192.369 133.913 193.502 131.251 193.502 128.186V121.993C193.502 118.932 192.369 116.269 190.106 114.003C187.84 111.74 185.177 110.608 182.116 110.608H176.323ZM52.0759 4.738C49.0109 4.738 46.3489 5.871 44.0859 8.134C41.8199 10.4 40.6899 13.062 40.6899 16.124V16.923C40.6899 18.122 40.0909 18.721 38.8919 18.721H19.1169C16.0519 18.721 13.3889 19.854 11.1269 22.117C8.86093 24.383 7.73093 27.045 7.73093 30.107V37.298C7.73093 40.363 8.86093 43.025 11.1269 45.288C13.3889 47.554 16.0519 48.684 19.1169 48.684H39.0919C40.1559 48.684 40.6899 49.218 40.6899 50.282C40.6899 53.213 41.6889 55.675 43.6859 57.673C45.6839 59.67 48.1459 60.669 51.0769 60.669H64.2609C67.1889 60.669 69.6539 59.67 71.6519 57.673C73.6489 55.675 74.6479 53.213 74.6479 50.282C74.6479 49.218 75.1789 48.684 76.2459 48.684H122.989C124.053 48.684 124.587 49.218 124.587 50.282C124.587 53.213 125.585 55.675 127.583 57.673C129.58 59.67 132.043 60.669 134.974 60.669H148.158C151.085 60.669 153.551 59.67 155.548 57.673C157.546 55.675 158.545 53.213 158.545 50.282C158.545 49.218 159.075 48.684 160.143 48.684H180.118C183.18 48.684 185.842 47.554 188.108 45.288C190.371 43.025 191.504 40.363 191.504 37.298V30.107C191.504 27.045 190.371 24.383 188.108 22.117C185.842 19.854 183.18 18.721 180.118 18.721H160.342C159.144 18.721 158.545 18.122 158.545 16.923V16.124C158.545 13.062 157.412 10.4 155.149 8.134C152.883 5.871 150.221 4.738 147.159 4.738H135.972C132.908 4.738 130.245 5.871 127.982 8.134C125.716 10.4 124.587 13.062 124.587 16.124V16.923C124.587 18.122 123.987 18.721 122.789 18.721H76.4459C75.2469 18.721 74.6479 18.122 74.6479 16.923V16.124C74.6479 13.062 73.5149 10.4 71.2519 8.134C68.9859 5.871 66.3239 4.738 63.2619 4.738H52.0759Z" stroke="var(--stroke-0, white)" stroke-width="9.476"/>
<path id="&#227;&#131;&#145;&#227;&#130;&#185; 70" d="M260.419 163.543H250.831C249.764 163.543 249.233 162.943 249.233 161.745V152.157C249.233 151.092 249.764 150.559 250.831 150.559H260.419C261.618 150.559 262.217 151.092 262.217 152.157V161.745C262.217 162.943 261.618 163.543 260.419 163.543ZM229.657 128.586C226.592 128.586 223.93 129.719 221.667 131.982C219.401 134.247 218.271 136.91 218.271 139.972V180.122C218.271 183.184 219.401 185.846 221.667 188.112C223.93 190.375 226.592 191.508 229.657 191.508H244.039C245.369 191.508 246.568 191.009 247.635 190.01C248.699 189.011 249.233 187.778 249.233 186.315C249.233 185.781 249.498 185.516 250.032 185.516H277.798C280.86 185.516 283.522 184.383 285.788 182.12C288.051 179.854 289.184 177.191 289.184 174.13V139.972C289.184 136.91 288.051 134.247 285.788 131.982C283.522 129.719 280.86 128.586 277.798 128.586H229.657ZM223.664 120.196C225.927 122.462 228.59 123.592 231.655 123.592H276.799C279.861 123.592 282.523 122.462 284.789 120.196C287.052 117.933 288.185 115.271 288.185 112.206V112.006C288.185 108.944 287.052 106.282 284.789 104.016C282.523 101.753 279.861 100.62 276.799 100.62H231.655C228.59 100.62 225.927 101.753 223.664 104.016C221.399 106.282 220.269 108.944 220.269 112.006V112.206C220.269 115.271 221.399 117.933 223.664 120.196ZM276.799 95.626C279.861 95.626 282.523 94.496 284.789 92.231C287.052 89.968 288.185 87.305 288.185 84.24V84.041C288.185 80.979 287.052 78.317 284.789 76.051C282.523 73.788 279.861 72.655 276.799 72.655H231.655C228.59 72.655 225.927 73.788 223.664 76.051C221.399 78.317 220.269 80.979 220.269 84.041V84.24C220.269 87.305 221.399 89.968 223.664 92.231C225.927 94.496 228.59 95.626 231.655 95.626H276.799ZM224.663 40.694C221.598 40.694 218.936 41.827 216.673 44.09C214.407 46.356 213.277 49.018 213.277 52.08V56.275C213.277 59.34 214.407 62.002 216.673 64.265C218.936 66.531 221.598 67.661 224.663 67.661H281.793C284.855 67.661 287.517 66.531 289.783 64.265C292.046 62.002 293.179 59.34 293.179 56.275V52.08C293.179 49.018 292.046 46.356 289.783 44.09C287.517 41.827 284.855 40.694 281.793 40.694H224.663ZM221.667 32.304C223.93 34.57 226.592 35.7 229.657 35.7H276.799C279.861 35.7 282.523 34.57 284.789 32.304C287.052 30.042 288.185 27.379 288.185 24.314V23.116C288.185 20.054 287.052 17.392 284.789 15.126C282.523 12.863 279.861 11.73 276.799 11.73H229.657C226.592 11.73 223.93 12.863 221.667 15.126C219.401 17.392 218.271 20.054 218.271 23.116V24.314C218.271 27.379 219.401 30.042 221.667 32.304ZM357.3 156.551H333.928C332.73 156.551 332.131 155.952 332.131 154.754V143.368C332.131 142.169 332.73 141.57 333.928 141.57H357.3C358.498 141.57 359.097 142.169 359.097 143.368V154.754C359.097 155.952 358.498 156.551 357.3 156.551ZM309.558 114.603C306.494 114.603 303.831 115.736 301.568 117.999C299.302 120.265 298.173 122.927 298.173 125.989V177.126C298.173 180.188 299.302 182.85 301.568 185.116C303.831 187.379 306.494 188.512 309.558 188.512H326.937C328.401 188.512 329.634 187.978 330.633 186.914C331.631 185.846 332.131 184.648 332.131 183.318C332.131 182.785 332.396 182.519 332.93 182.519H358.298C358.829 182.519 359.097 182.785 359.097 183.318C359.097 184.648 359.628 185.846 360.695 186.914C361.76 187.978 362.958 188.512 364.291 188.512H383.667C386.729 188.512 389.391 187.379 391.657 185.116C393.92 182.85 395.053 180.188 395.053 177.126V125.989C395.053 122.927 393.92 120.265 391.657 117.999C389.391 115.736 386.729 114.603 383.667 114.603H309.558ZM356.301 79.646H345.914C345.514 79.646 345.115 79.481 344.715 79.147C344.316 78.816 344.182 78.448 344.316 78.048L345.714 70.258C345.979 69.193 346.644 68.66 347.711 68.66H356.301C357.499 68.66 358.099 69.259 358.099 70.457V77.848C358.099 79.047 357.499 79.646 356.301 79.646ZM391.058 78.048V57.074C391.058 54.012 389.925 51.35 387.662 49.084C385.396 46.821 382.734 45.688 379.672 45.688H351.507C350.308 45.688 349.84 45.157 350.109 44.09L350.908 39.296C351.173 38.232 351.838 37.698 352.905 37.698H387.662C390.724 37.698 393.386 36.568 395.652 34.302C397.915 32.039 399.048 29.377 399.048 26.312V22.117C399.048 19.055 397.915 16.393 395.652 14.127C393.386 11.864 390.724 10.731 387.662 10.731H305.563C302.499 10.731 299.836 11.864 297.573 14.127C295.307 16.393 294.178 19.055 294.178 22.117V26.312C294.178 29.377 295.307 32.039 297.573 34.302C299.836 36.568 302.499 37.698 305.563 37.698H316.35C316.75 37.698 317.149 37.866 317.549 38.197C317.948 38.531 318.079 38.896 317.948 39.296L317.149 44.09C316.881 45.157 316.216 45.688 315.152 45.688H311.556C308.491 45.688 305.829 46.821 303.566 49.084C301.3 51.35 300.17 54.012 300.17 57.074V57.474C300.17 60.538 301.269 63.166 303.466 65.364C305.663 67.561 308.291 68.66 311.356 68.66C312.555 68.66 313.02 69.193 312.755 70.258L311.356 78.048C311.088 79.116 310.423 79.646 309.359 79.646H305.563C302.499 79.646 299.836 80.779 297.573 83.042C295.307 85.308 294.178 87.97 294.178 91.032V95.227C294.178 98.292 295.307 100.954 297.573 103.217C299.836 105.483 302.499 106.613 305.563 106.613H391.657C394.719 106.613 397.381 105.483 399.647 103.217C401.91 100.954 403.043 98.292 403.043 95.227V90.033C403.043 87.106 402.044 84.64 400.047 82.642C398.049 80.645 395.584 79.646 392.656 79.646C391.589 79.646 391.058 79.116 391.058 78.048Z" stroke="var(--stroke-0, white)" stroke-width="9.476"/>
<path id="&#227;&#131;&#145;&#227;&#130;&#185; 71" d="M428.787 104.056C426.825 104.398 425.291 105.442 424.185 107.188C423.076 108.936 422.734 110.79 423.162 112.749L424.185 118.119C424.524 120.08 425.569 121.614 427.317 122.721C429.063 123.83 430.916 124.171 432.878 123.744C449.497 120.336 461.087 118.63 467.651 118.63C474.638 118.63 479.668 119.739 482.736 121.954C485.805 124.171 487.339 127.751 487.339 132.693C487.339 139.596 484.249 144.882 478.07 148.545C471.89 152.211 461.471 154.298 446.813 154.809C444.851 154.895 443.189 155.662 441.827 157.11C440.463 158.561 439.865 160.265 440.037 162.224L440.548 167.338C440.632 169.383 441.463 171.109 443.041 172.515C444.617 173.922 446.429 174.581 448.475 174.497C469.525 173.814 484.974 169.917 494.818 162.8C504.661 155.684 509.583 145.307 509.583 131.67C509.583 109.511 496.288 98.431 469.697 98.431C460.576 98.431 446.941 100.307 428.787 104.056Z" stroke="var(--stroke-0, white)" stroke-width="9.476"/>
<path id="&#227;&#131;&#145;&#227;&#130;&#185; 72" d="M525.179 77.848C523.217 77.848 521.535 78.573 520.129 80.021C518.723 81.472 518.02 83.175 518.02 85.135V92.294C518.02 94.256 518.723 95.96 520.129 97.408C521.535 98.858 523.217 99.581 525.179 99.581C537.28 99.411 549.425 99.156 561.614 98.814C561.698 98.814 561.742 98.858 561.742 98.942C561.742 99.114 561.698 99.198 561.614 99.198C555.817 103.716 551.195 109.106 547.743 115.37C544.291 121.634 542.565 127.665 542.565 133.459C542.565 146.585 547.274 157.11 556.692 165.036C566.108 172.963 578.659 176.926 594.342 176.926C598.433 176.926 602.438 176.67 606.359 176.159C608.404 175.903 610.022 174.964 611.217 173.346C612.409 171.726 612.879 169.895 612.623 167.849L611.728 160.051C611.473 158.091 610.556 156.535 608.98 155.384C607.402 154.234 605.592 153.786 603.546 154.042C600.903 154.384 598.261 154.553 595.62 154.553C587.694 154.553 581.238 152.402 576.252 148.097C571.266 143.795 568.773 138.062 568.773 130.903C568.773 122.295 572.928 114.986 581.238 108.978C589.548 102.969 601.84 99.156 618.12 97.536C620.166 97.366 621.87 96.535 623.234 95.043C624.596 93.553 625.236 91.783 625.152 89.737L625.024 82.578C624.938 80.619 624.149 78.957 622.659 77.592C621.167 76.23 619.441 75.591 617.481 75.675C588.928 76.953 558.162 77.678 525.179 77.848Z" stroke="var(--stroke-0, white)" stroke-width="9.476"/>
<path id="&#227;&#131;&#145;&#227;&#130;&#185; 73" d="M89.7089 248.867H71.8119C70.8529 248.867 70.3729 248.387 70.3729 247.428V242.954C70.3729 242.102 70.8529 241.675 71.8119 241.675H89.7089C90.6679 241.675 91.1479 242.102 91.1479 242.954V247.428C91.1479 248.387 90.6679 248.867 89.7089 248.867ZM89.7089 272.837H71.8119C70.8529 272.837 70.3729 272.358 70.3729 271.399V266.924C70.3729 266.073 70.8529 265.646 71.8119 265.646H89.7089C90.6679 265.646 91.1479 266.073 91.1479 266.924V271.399C91.1479 272.358 90.6679 272.837 89.7089 272.837ZM133.495 260.053C131.044 259.309 128.646 259.521 126.304 260.692C123.96 261.866 122.309 263.676 121.35 266.125L119.593 270.6C119.378 270.707 119.218 270.707 119.113 270.6V230.01C119.113 227.56 118.207 225.43 116.397 223.618C114.584 221.807 112.454 220.901 110.004 220.901H94.5039C93.5449 220.901 93.1699 220.529 93.3849 219.782C93.8089 217.545 93.3579 215.548 92.0269 213.79C90.6929 212.032 88.9099 211.048 86.6729 210.833L73.8889 210.194C71.3319 209.982 69.0149 210.674 66.9379 212.272C64.8599 213.87 63.5539 215.947 63.0219 218.504C62.9149 218.611 62.8629 218.824 62.8629 219.143C62.8629 219.463 62.8079 219.678 62.7029 219.782C62.5949 220.529 62.0639 220.901 61.1049 220.901H51.5169C49.0649 220.901 46.9349 221.807 45.1239 223.618C43.3119 225.43 42.4079 227.56 42.4079 230.01V281.306C42.4079 283.758 43.3119 285.888 45.1239 287.699C46.9349 289.511 49.0649 290.415 51.5169 290.415H64.1409C65.0999 290.415 65.5789 290.842 65.5789 291.694V294.57C65.5789 295.529 65.0999 296.008 64.1409 296.008H17.9579C15.5059 296.008 13.3759 296.915 11.5659 298.725C9.75293 300.538 8.84893 302.668 8.84893 305.117V310.87C8.84893 313.322 9.75293 315.452 11.5659 317.262C13.3759 319.075 15.5059 319.979 17.9579 319.979H50.3979C50.6099 319.979 50.7179 320.034 50.7179 320.139C50.7179 320.246 50.6629 320.353 50.5579 320.458C38.8369 325.36 25.7879 329.567 11.4059 333.083C9.16894 333.617 7.51593 334.948 6.45193 337.078C5.38592 339.21 5.38592 341.288 6.45193 343.31L9.64791 350.182C10.8189 352.524 12.6049 354.202 15.0019 355.215C17.3989 356.227 19.8209 356.307 22.2729 355.455C38.5729 349.595 52.6349 343.098 64.4609 335.959C64.6729 335.747 64.9129 335.719 65.1799 335.879C65.4439 336.039 65.5789 336.279 65.5789 336.598V350.821C65.5789 353.27 66.4829 355.4 68.2959 357.213C70.1059 359.023 72.2359 359.93 74.6879 359.93H86.8329C89.2829 359.93 91.4119 359.023 93.2249 357.213C95.0349 355.4 95.9419 353.27 95.9419 350.821V336.598C95.9419 336.279 96.0739 336.039 96.3409 335.879C96.6059 335.719 96.8459 335.747 97.0599 335.959C108.886 343.098 122.948 349.595 139.248 355.455C141.698 356.307 144.122 356.227 146.519 355.215C148.916 354.202 150.699 352.524 151.873 350.182L155.069 343.31C156.133 341.18 156.16 339.075 155.149 336.998C154.135 334.92 152.512 333.617 150.275 333.083C135.573 329.462 122.469 325.252 110.963 320.458C110.856 320.353 110.803 320.246 110.803 320.139C110.803 320.034 110.908 319.979 111.123 319.979H143.563C146.013 319.979 148.142 319.075 149.955 317.262C151.765 315.452 152.672 313.322 152.672 310.87V305.117C152.672 302.668 151.765 300.538 149.955 298.725C148.142 296.915 146.013 296.008 143.563 296.008H97.2199C96.3659 296.008 95.9419 295.529 95.9419 294.57V291.694C95.9419 290.842 96.3659 290.415 97.2199 290.415H110.004C112.454 290.415 114.584 289.511 116.397 287.699C118.207 285.888 119.113 283.758 119.113 281.306V278.75C119.113 278.537 119.193 278.43 119.353 278.43C119.513 278.43 119.645 278.537 119.752 278.75C120.816 280.667 122.414 281.946 124.546 282.585C131.79 284.929 137.595 286.955 141.965 288.658C144.307 289.511 146.599 289.456 148.837 288.498C151.074 287.539 152.617 285.888 153.471 283.544L155.868 277.311C156.719 274.969 156.667 272.652 155.708 270.36C154.749 268.07 153.096 266.5 150.754 265.646C144.467 263.409 138.714 261.546 133.495 260.053ZM142.125 220.661C139.673 220.502 137.491 221.221 135.573 222.819C131.098 226.654 126.944 230.01 123.108 232.886C121.191 234.379 120.097 236.349 119.832 238.799C119.565 241.251 120.284 243.381 121.99 245.191L125.825 249.346C127.635 251.264 129.765 252.382 132.217 252.702C134.667 253.021 136.956 252.382 139.089 250.784C142.709 248.122 146.864 244.712 151.553 240.557C153.471 238.854 154.482 236.749 154.589 234.245C154.694 231.743 153.895 229.585 152.192 227.773L148.357 223.618C146.652 221.807 144.574 220.821 142.125 220.661ZM35.5359 283.384C37.8779 282.533 39.6359 280.934 40.8099 278.59C41.9809 276.248 42.1409 273.851 41.2889 271.399L39.5309 266.285C38.7849 263.943 37.3189 262.238 35.1369 261.171C32.9519 260.108 30.6869 259.948 28.3449 260.692C25.7879 261.651 20.0349 263.516 11.0859 266.285C8.74194 267.032 6.98391 268.47 5.81292 270.6C4.63891 272.732 4.42694 275.022 5.17392 277.471L6.93191 283.384C7.67593 285.836 9.19393 287.619 11.4859 288.737C13.7759 289.856 16.0929 290.043 18.4369 289.297C24.7219 287.274 30.4229 285.302 35.5359 283.384ZM9.00894 228.252C7.41091 230.17 6.77194 232.354 7.09094 234.804C7.41091 237.256 8.52993 239.226 10.4469 240.717C15.4539 244.659 19.5559 248.015 22.7519 250.784C24.6699 252.382 26.8519 253.101 29.3039 252.941C31.7539 252.782 33.7779 251.743 35.3769 249.825L39.0519 245.511C40.6499 243.593 41.3689 241.356 41.2089 238.799C41.0499 236.242 40.0109 234.165 38.0929 232.567C34.6819 229.585 30.5269 226.174 25.6289 222.339C23.6029 220.741 21.3389 220.129 18.8369 220.502C16.3319 220.876 14.2829 222.02 12.6849 223.937L9.00894 228.252Z" stroke="var(--stroke-0, white)" stroke-width="9.476"/>
<path id="&#227;&#131;&#145;&#227;&#130;&#185; 74" d="M263.799 297.287C261.923 296.606 260.069 296.648 258.238 297.415C256.403 298.182 255.02 299.504 254.082 301.378C249.481 311.18 244.622 318.169 239.509 322.344C234.395 326.521 228.726 328.608 222.506 328.608C218.415 328.608 215.26 327.885 213.046 326.435C210.827 324.987 209.187 322.238 208.124 318.189C207.056 314.142 206.525 308.24 206.525 300.483C206.525 284.461 206.992 268.353 207.931 252.159C208.015 250.199 207.398 248.495 206.077 247.045C204.756 245.597 203.116 244.83 201.155 244.744L190.801 244.36C188.756 244.276 186.986 244.936 185.496 246.342C184.002 247.748 183.173 249.474 183.002 251.52C182.064 268.395 181.595 284.717 181.595 300.483C181.595 313.95 182.939 324.348 185.622 331.677C188.308 339.008 192.504 344.161 198.215 347.146C203.924 350.128 212.023 351.62 222.506 351.62C234.267 351.62 244.579 348.296 253.444 341.648C262.306 335.001 269.85 324.348 276.072 309.688C276.838 307.814 276.817 305.98 276.007 304.19C275.197 302.401 273.855 301.166 271.981 300.483L263.799 297.287Z" stroke="var(--stroke-0, white)" stroke-width="9.476"/>
<path id="&#227;&#131;&#145;&#227;&#130;&#185; 75" d="M352.904 305.596C351.029 304.915 349.175 304.957 347.343 305.724C345.51 306.491 344.167 307.769 343.316 309.559C340.673 315.356 338.159 319.767 335.773 322.791C333.386 325.817 331.511 327.329 330.148 327.329C329.21 327.329 328.209 326.626 327.144 325.22C326.077 323.814 325.035 321.94 324.012 319.595C322.989 317.252 322.158 314.269 321.519 310.646C320.88 307.024 320.56 303.211 320.56 299.204C320.56 287.87 322.094 275.725 325.163 262.769C325.588 260.895 325.268 259.169 324.204 257.591C323.137 256.015 321.667 255.142 319.793 254.971L310.461 253.948C308.329 253.692 306.39 254.162 304.644 255.354C302.896 256.549 301.767 258.167 301.256 260.212C297.932 273.082 296.27 286.08 296.27 299.204C296.27 313.864 299.636 326.265 306.37 336.406C313.101 346.548 320.388 351.619 328.231 351.619C334.537 351.619 340.951 348.635 347.471 342.67C353.991 336.706 359.508 328.31 364.027 317.485C364.794 315.612 364.75 313.758 363.899 311.924C363.046 310.093 361.682 308.836 359.808 308.153L352.904 305.596ZM371.058 256.249C369.182 256.76 367.818 257.891 366.967 259.637C366.114 261.385 366.028 263.196 366.711 265.07C374.296 285.697 378.473 307.472 379.24 330.398C379.324 332.359 380.091 334.041 381.541 335.447C382.989 336.854 384.693 337.557 386.655 337.557H396.371C398.33 337.557 400.034 336.834 401.485 335.383C402.933 333.935 403.614 332.231 403.53 330.27C402.763 303.679 397.989 279.73 389.212 258.422C388.445 256.549 387.122 255.184 385.248 254.331C383.373 253.48 381.413 253.353 379.368 253.948L371.058 256.249Z" stroke="var(--stroke-0, white)" stroke-width="9.476"/>
<path id="&#227;&#131;&#145;&#227;&#130;&#185; 76" d="M446.166 318.381C443.714 318.381 441.584 319.287 439.774 321.097C437.961 322.91 437.057 325.04 437.057 327.489V334.84C437.057 337.292 437.961 339.422 439.774 341.232C441.584 343.045 443.714 343.949 446.166 343.949H459.909C462.359 343.949 464.488 343.045 466.301 341.232C468.111 339.422 469.018 337.292 469.018 334.84V327.489C469.018 325.04 468.111 322.91 466.301 321.097C464.488 319.287 462.359 318.381 459.909 318.381H446.166ZM442.97 227.293C440.518 227.293 438.441 228.199 436.738 230.01C435.032 231.822 434.233 233.952 434.341 236.402L438.176 296.488C438.388 299.045 439.399 301.202 441.212 302.96C443.022 304.717 445.207 305.596 447.764 305.596H458.311C460.868 305.596 463.078 304.717 464.943 302.96C466.806 301.202 467.792 299.045 467.899 296.488L471.735 236.402C471.947 233.952 471.175 231.822 469.417 230.01C467.659 228.199 465.555 227.293 463.105 227.293H442.97Z" stroke="var(--stroke-0, white)" stroke-width="9.476"/>
</g>
</svg>
