<svg fill="none" height="22" viewBox="0 0 175 22" width="175" xmlns="http://www.w3.org/2000/svg"><path d="m21.4199 10.71c0-5.52201-2.73-10.71-10.7099-10.71-7.98002 0-10.71 5.18799-10.71 10.71 0 5.5222 2.72998 10.7102 10.71 10.7102 7.9799 0 10.7099-5.188 10.7099-10.7102z" fill="#c89409"/><path d="m4.896 14.2766c0-.802.40893-1.3989 1.46704-1.3989.76794 0 1.51892.3579 2.16699.4949.22192-.3921.34192-1.0921.40991-1.5359l.13599-.9551c-1.14295-.188-2.50794-.666-3.46399-1.65504l1.07507-1.41797c.90491.75196 1.84302 1.11109 2.62793 1.28101.35803-2.45801 1.33106-4.0271 3.66906-4.0271 1.177 0 2.526.78516 2.526 2.38916 0 1.29688-1.041 3.27584-4.4031 3.51494l-.1709 1.1779c-.085.563-.29 1.45-.5631 1.9112.4441.187 1.0241.2729 1.6731.2729 1.211 0 2.167-.6831 2.9519-2.1841l1.4501.699c-.887 1.894-2.338 3.208-4.4711 3.1401-1.006-.0339-2.01291-.29-2.95188-.614-.58007.4429-1.31408.614-2.06506.614-1.29602 0-2.047-.768-2.06396-1.707zm8.6-6.77391c0-.42701-.273-.6482-.648-.6482-.717 0-1.229.9541-1.451 2.30298 1.706-.23779 2.099-1.19385 2.099-1.65478z" fill="#fff"/><g fill="#231815"><path d="m25.568 10.4573c0-.388.157-.64187.441-.92507.206-.19483.428-.44898.6969-.80689.505-.70093 1.026-1.58203 1.3581-2.83594.1259-.44897.395-.67211.869-.67211h.916c.538 0 .837.29809.71.77612l-.189.77685h4.408c.5059 0 .79.26807.775.77613-.063 2.43286-.474 4.07491-.885 4.92501-1.596 3.2849-4.929 4.793-7.078 5.316-.521.134-.854-.1351-.854-.659v-.9092c0-.4489.237-.687.695-.8208.981-.2841 2.308-.9411 3.272-1.7761 1.278-1.0901 2.038-2.4189 2.2119-4.62889h-3.5089c-.7731 1.11989-1.2311 1.64279-1.7841 2.17989-.286.284-.6959.6421-1.0909.9551-.505.388-.963.1338-.963-.478zm6.9039-5.26907v-.86596c0-.47803.2211-.74805.6001-.74805.3789 0 .6.27002.6.74805v.86596c0 .47608-.204.7461-.6.7461-.379 0-.6001-.27002-.6001-.7461zm1.88-.86596c0-.47803.2221-.74805.6001-.74805.3789 0 .601.27002.601.74805v.86596c0 .47608-.205.7461-.601.7461-.378 0-.6001-.27002-.6001-.7461z"/><path d="m39.303 16.2795v-9.43502c0-.4768.284-.74682.7889-.74682h8.359c.505 0 .7891.27002.7891.74682v9.43502c0 .4771-.2841.7461-.7891.7461h-8.359c-.5049 0-.7889-.269-.7889-.7461zm7.347-7.83785h-4.7721v6.23995h4.7721z"/><path d="m52.9089 12.4143v-.853c0-.4771.2841-.7449.7901-.7449h5.7199c.506 0 .7901.2678.7901.7449v.853c0 .478-.2841.7461-.7901.7461h-5.7199c-.506 0-.7901-.2681-.7901-.7461z"/><path d="m64.9229 8.75708v-2.37402c0-.47803.283-.7461.7901-.7461h.8679c.5071 0 .79.26807.79.7461v2.37402c0 2.92502-.349 5.32792-1.375 7.88082-.156.4021-.458.583-.901.583h-1.12c-.5849 0-.8389-.3439-.6159-.8659 1.089-2.6428 1.5639-5.344 1.5639-7.59792zm4.928-2.37402c0-.47803.2851-.7461.791-.7461h.8691c.0629 0 .1259 0 .1879.01416-.062-.12011-.0939-.26904-.0939-.46216v-.86596c0-.47803.2209-.74683.5999-.74683.3791 0 .6.2688.6.74683v.86596c0 .47608-.204.7461-.6.7461h-.015c.062.1189.11.26904.11.448v2.37402c0 2.25392.473 4.95512 1.5651 7.59792.2199.522-.032.8659-.6171.8659h-1.122c-.442 0-.743-.1809-.9-.583-1.027-2.5529-1.375-4.9558-1.375-7.88082zm3.6341-1.1941v-.86596c0-.47803.223-.74683.5999-.74683.38 0 .6021.2688.6021.74683v.86596c0 .47608-.2061.7461-.6021.7461-.3769 0-.5999-.27002-.5999-.7461z"/><path d="m78.6081 10.0691v-3.4939c0-.47803.2849-.7461.7899-.7461h.807c.505 0 .789.26807.789.7461v3.4939c0 2.104-.378 4.866-1.2 6.6121-.174.3889-.49.5388-.917.5388h-1.011c-.6 0-.8371-.344-.6-.866.854-1.9109 1.3421-3.9109 1.3421-6.2849zm3.729 6.5979v-10.25489c0-.47803.2858-.74805.7908-.74805h.8201c.506 0 .792.27002.792.74805v7.89699c.884-.3601 1.5-.7171 2.117-1.2251.536-.4329.947-.283.947.373v1.104c0 .3741-.11.6731-.4261.972-1.2009 1.059-2.7819 1.5962-4.2019 1.8352-.523.0898-.8389-.1932-.8389-.7012z"/><path d="m91.1279 15.1897c.3461-.5979.6631-1.2988.8991-2.031.159-.4778.5059-.6419.9959-.4629l.506.1799c.458.1641.6471.4922.505.9402-.2529.8508-.5849 1.732-.964 2.4629-.2359.4331-.6319.523-1.0749.2691l-.6-.3282c-.441-.2529-.5061-.5969-.2671-1.03zm1.1051-10.18189c0-.47705.2849-.74609.7899-.74609h9.4001c.506 0 .791.26904.791.74609v5.82199c0 .4781-.285.7471-.791.7471h-4.3121c.6.3279 1.2161.731 1.7061 1.1189.394.3291.379.717.016 1.061l-.427.4019c-.3631.344-.7421.3291-1.1221 0-.442-.4019-1.027-.835-1.6119-1.1919-.411-.241-.458-.584-.1271-.896l.5231-.4939h-4.0451c-.505 0-.7899-.269-.7899-.7471zm4.424 1.11988h-2.354v.91015h2.354zm0 2.64306h-2.354v.94116h2.354zm-2.1971 4.94115c0-.478.2851-.7451.7901-.7451h1.422v2.1331c0 .4619.1119.5068.79.5068h1.7379c.4261 0 .6-.1189.6951-.7749.08-.523.301-.6421.775-.4329.174.073.378.148.569.2239.459.148.679.4319.601.9099-.301 1.5962-.949 2.0291-2.45 2.0291h-2.212c-2.1971 0-2.7181-.6121-2.7181-2.4329zm6.5881-7.58421h-2.2741v.91015h2.2741zm0 2.64306h-2.2741v.94116h2.2741zm.839 4.07495.506-.209c.441-.1789.805-.104 1.058.2991.506.7461.979 1.5969 1.28 2.343.173.448-.017.761-.458.9561l-.68.2819c-.49.21-.822.045-.996-.446-.252-.688-.632-1.4929-1.058-2.2251-.269-.4468-.142-.791.348-1z"/><path d="m107.895 11.8604c1.058-.4031 2.102-.8802 3.081-1.4031.047-.239.174-.3289.316-.313l.237.029c.38-.20797.744-.43307 1.105-.65694h-4.122c-.506 0-.79-.26807-.79-.7461v-.31298c0-.47803.284-.74585.79-.74585h3.649v-.88208h-2.511c-.507 0-.791-.26807-.791-.7461v-.2539c0-.47803.284-.7461.791-.7461h2.511v-.68701c0-.47803.284-.74585.79-.74585h.585c.505 0 .789.25391.789.71704v.71582h2.134c.506 0 .79.12012.79.35816v.37402c.331-.34399.632-.68701.916-1.04517.3-.37402.648-.46289 1.089-.22387l.381.20898c.458.25293.568.62598.221 1.02905-.553.67286-1.154 1.31495-1.785 1.92701h2.117c.505 0 .789.26782.789.74585v.31298c0 .47803-.284.7461-.789.7461h-4.219c-.521.38794-1.027.76194-1.564 1.11984 1.121-.134 2.196-.2988 3.081-.5078.426-.0891.757 0 1.043.313l.173.1948c.395.4331.285.866-.315.9861-1.723.3579-3.761.582-5.626.6851l-.127.583h5.973c.537 0 .838.165.806.4328-.015.1492-.047.313-.079.4331-.332 1.941-.727 2.97-1.248 3.448-.458.4329-.917.553-1.627.597-.363.031-.901.0451-1.501.0451-.506 0-.743-.238-.854-.687-.031-.1482-.078-.299-.125-.447-.207-.5391-.017-.8362.6-.8071.458.0161.884.03 1.121.03.269 0 .474-.03.648-.1479.221-.1502.411-.523.585-1.1651h-4.757s-.426.6121-.915.5371l-.585-.0752c-.537-.0739-.742-.4028-.6-.895.11-.3879.222-.8208.332-1.2678-.459.2229-.932.4328-1.39.6399-.443.195-.79.0749-1.076-.2979-.095-.134-.205-.269-.315-.403-.348-.4332-.253-.805.268-1zm8.326-5.03105h-1.896v.88208h.854c.364-.28418.71-.58301 1.042-.88208z"/><path d="m137.304 7.1875c0 .1792-.015.37207-.032.49219-.284 5.86691-.568 8.15091-1.248 8.97191-.489.6409-.979.8359-1.674.94-.426.0749-1.043.0891-1.691.0891-.49 0-.727-.2381-.837-.687-.047-.2381-.127-.4771-.221-.7151-.205-.5369-.033-.836.584-.8069.489.0158.9.0158 1.154.0158.299 0 .49-.061.695-.2539.426-.4331.71-2.3139.931-6.33004h-3.743c-.222 2.94094-1.201 6.37404-4.819 8.64304-.411.2539-.775.1651-1.091-.1931-.189-.2258-.394-.4328-.616-.6428-.395-.3731-.348-.717.127-1 2.922-1.8211 3.807-4.4941 4.06-6.80714h-3.571c-.506 0-.79-.26806-.79-.74609v-.73193c0-.47803.284-.74585.79-.74585h3.666v-2.25415c0-.47803.284-.74585.79-.74585h.742c.505 0 .79.26782.79.74585v2.25415h5.214c.521 0 .805.17895.79.50781z"/><path d="m140.881 16.2795v-.852c0-.4768.284-.7459.79-.7459h6.351v-6.23995h-6.351c-.506 0-.79-.26807-.79-.74609v-.8501c0-.47778.284-.7478.79-.7478h8.136c.506 0 .79.27002.79.7478v9.43404c0 .4781-.284.7461-.79.7461h-8.136c-.506 0-.79-.268-.79-.7461z"/><path d="m154.33 12.4143v-.853c0-.4771.285-.7449.791-.7449h5.719c.506 0 .791.2678.791.7449v.853c0 .478-.285.7461-.791.7461h-5.719c-.506 0-.791-.2681-.791-.7461z"/><path d="m164.699 16.7878v-1.195c0-.4031.174-.6709.538-.896 2.78-1.6409 4.581-3.627 5.766-6.44802h-4.929c-.506 0-.79-.26904-.79-.74609v-.91089c0-.47803.284-.7461.79-.7461h7.409c.553 0 .837.31299.695.82105-.49 1.96997-1.374 3.65695-2.338 5.06005.742 1.03 1.818 2 2.717 2.7319.316.2542.443.522.443.9102v1.21c0 .6259-.443.8498-.979.4609-1.375-1.0291-2.465-2.0889-3.586-3.5061-1.091 1.2681-3.003 2.821-4.804 3.791-.521.2981-.932.0452-.932-.5369z"/></g></svg>