<svg fill="none" height="22" viewBox="0 0 134 22" width="134" xmlns="http://www.w3.org/2000/svg"><g fill="#231815"><path d="m25.673 12.6289c0-.48.2409-.749.662-.749h.66v-2.67092c0-.47998.27-.75.75-.75h3.285v-.6311c0-.47998.2699-.75.75-.75h.6759c.4801 0 .75.25513.75.68994v.69116h3.4961c.48 0 .75.27002.75.75v2.67092h.435c.4799 0 .75.269.75.749v.511c0 .48-.2701.75-.75.75h-3.9461c.9301.946 2.2951 1.5461 4.1421 1.8459.57.0901.6899.4051.374.8692-.149.2109-.284.4519-.405.676-.2101.3909-.51.5559-.9601.4658-2.2059-.4658-3.7059-1.3808-4.8009-2.8659-.8711 1.1989-2.415 2.176-4.9961 2.8349-.4509.1052-.751-.0298-.9909-.4199l-.345-.5249c-.345-.4641-.21-.8101.376-.9451 2.129-.48 3.3299-1.1411 3.99-1.936h-3.9001c-.4809 0-.7519-.27-.7519-.75zm.1209-6.82592v-.43506c0-.47998.2701-.75.75-.75h1.9201v-.28589c0-.47998.271-.75.751-.75h.555c.48 0 .75.17993.75.51099v.5249h3.226v-.28589c0-.47998.271-.75.7509-.75h.5701c.48 0 .75.17993.75.51099v.5249h1.95c.4809 0 .7509.27002.7509.75v.43506c0 .47998-.27.75-.7509.75h-1.95v.46606c0 .47998-.27.74878-.75.74878h-.5701c-.4799 0-.7509-.22387-.7509-.61499v-.59985h-3.226v.46606c0 .47998-.27.74878-.75.74878h-.555c-.48 0-.751-.2688-.751-.74878v-.46606h-1.9201c-.4799 0-.75-.27002-.75-.75zm5.2361 4.53202h-2.041v1.5449h2.041zm4.307 0h-2.1311v1.5449h2.1311z"/><path d="m41.3741 12.7949c.6599-1.155 1.2159-2.7461 1.5299-4.17088h-.7639c-.48 0-.7511-.27099-.7511-.75097v-.50904c0-.47998.2711-.75.7511-.75h.854v-2.28198c0-.47998.2699-.75.75-.75h.4209c.4801 0 .75.27002.75.75v2.28198h.676.494v.01392c1.126-.6001 2.176-1.59106 2.8511-2.53491.241-.34497.496-.4961.901-.4961h.719c.3899 0 .662.13599.9149.46509.766.97486 1.7411 1.84595 2.791 2.38696.4511.22388.5561.53907.301.97388-.1049.18018-.211.37598-.301.55615-.225.44996-.5389.61499-.885.3899-.1789-.10596-.345-.22486-.525-.34497 0 .46508-.2689.7351-.75.7351h-.8999v.71997h2.1899c.48 0 .751.27002.751.75v2.8359c0 .48-.271.751-.751.751h-1.5899c.66 1.095 1.41 1.635 2.296 2.01.4809.1951.5539.481.24.8999-.1211.1651-.225.3311-.3151.4961-.255.4351-.556.585-.991.374-1.005-.4951-1.859-1.1999-2.5799-2.4309-.5701.9759-1.5 1.875-3.046 2.521-.4361.18-.75.0298-.99-.374l-.2261-.3162c-.3149-.4499-.209-.7788.316-1.0058 1.4411-.5991 2.1601-1.365 2.505-2.1741h-1.695c-.481 0-.75-.271-.75-.751v-2.8359c0-.47998.269-.75.75-.75h2.026v-.71997h-.8109c-.48 0-.75-.15014-.75-.406v-.40503c-.1651.10596-.3151.22485-.48.31494-.421.28589-.766.19604-.9301-.16406-.0909-.18091-.181-.375-.286-.55493v.3291c0 .47998-.2099.75097-.584.75097h-.586v.48096c.255.38989.8561 1.33402 1.2301 1.94902.2099.361.1959.6909-.0141 1.0358l-.1049.1802c-.3311.555-.7211.676-.8561.314-.075-.208-.1649-.449-.255-.6741v5.176c0 .48-.2699.751-.75.751h-.4209c-.4801 0-.75-.271-.75-.751v-4.021c-.1341.3899-.2841.7801-.4351 1.125-.27.6011-.75.6011-.989.076l-.2259-.4361c-.1951-.375-.1801-.6757.03-1.0349zm7.9679-1.6799h-.991v1.05h.991zm2.2351-4.12696c-.525-.49414-.99-1.03516-1.3201-1.53003-.3299.51001-.78 1.03589-1.3209 1.53003zm.72 4.12696h-1.095v1.05h1.095z"/><path d="m60.427 12.7053v-1.5158c0-.48.27-.75.75-.75h1.5c.48 0 .75.27.75.75v1.5158c0 .48-.27.75-.75.75h-1.5c-.48 0-.75-.27-.75-.75z"/><path d="m58.167 7.3584c-1.356 0-2.458-1.10108-2.458-2.45801 0-1.35596 1.102-2.45703 2.458-2.45703 1.3559 0 2.464 1.10107 2.464 2.45703 0 1.35693-1.1081 2.45801-2.464 2.45801zm.007-4.56397c-1.157 0-2.107.94995-2.107 2.10596 0 1.15698.95 2.10693 2.107 2.10693 1.156 0 2.106-.94995 2.106-2.10693 0-1.15601-.95-2.10596-2.106-2.10596zm.785 3.63501-.7161-1.20507h-.4889v1.20507h-.5581v-3.0979h1.0601c.62 0 1.081.30982 1.081.9148 0 .43408-.186.7041-.5161.86914l.7781 1.31396zm-.744-2.56103h-.461v.83301h.4679c.296 0 .5371-.10303.5371-.448 0-.28198-.269-.38501-.544-.38501z"/><path d="m67.989 6.61304c0-.47998.272-.75098.752-.75098h4.7259v-1.53003c0-.48096.27-.75.75-.75h.6311c.4779 0 .75.26904.75.75v1.53003h4.8009c.4801 0 .75.271.75.75098v.62988c0 .47998-.2699.75-.75.75h-1.26c-.7369 2.08598-1.7109 3.82588-2.9419 5.28098 1.2009.93 2.656 1.666 4.366 2.1621.541.149.645.48.316.93-.2101.3-.421.6001-.586.8999-.24.3911-.554.5251-.99.3911-1.95-.617-3.5561-1.4861-4.876-2.6421-1.35 1.126-2.9561 1.9961-4.787 2.656-.436.165-.75.0142-.974-.3899-.151-.2561-.316-.54-.4811-.7952-.2999-.4509-.1799-.8108.3461-.9599 1.6649-.5249 3.105-1.23 4.3209-2.1619-1.1849-1.4851-2.1009-3.2851-2.8519-5.37108h-1.259c-.48 0-.752-.27002-.752-.75zm6.573 5.13086c.885-1.0501 1.59-2.29493 2.115-3.75098h-4.35c.539 1.39502 1.2749 2.65598 2.235 3.75098z"/><path d="m84.183 8.20386c.2409-.37598.5859-.49488 1.005-.31494.5109.21093 1.051.47998 1.5019.75.4041.25512.464.63012.2101 1.03613l-.3451.53975c-.271.4351-.615.4651-1.036.1792-.3899-.2551-.856-.53902-1.3049-.76412-.4501-.24096-.5561-.58593-.2851-1.02099zm1.771 4.14114c.2399-.48.63-.5701 1.036-.21l.4189.376c.3311.2839.406.615.2251 1.0339-.4951 1.126-1.05 2.2661-1.6201 3.346-.24.466-.615.5561-1.0339.2251l-.5871-.449c-.359-.2861-.4349-.6311-.194-1.0361.5251-.9161 1.1711-2.086 1.7551-3.2859zm.405-5.92703c-.374-.28394-.854-.58399-1.306-.82495-.449-.25513-.554-.61499-.2551-1.03614l.2861-.38989c.255-.36011.5999-.479 1.005-.28418.5109.23902 1.0499.53907 1.4849.8252.4051.27002.45.62988.1801 1.03589l-.359.52514c-.286.40479-.63.44995-1.036.14893zm1.23 3.76583c0-.47994.271-.74996.7509-.74996h2.761v-1.78589h-2.056c-.48 0-.75-.26904-.75-.74902v-.57007c0-.48096.27-.75.75-.75h2.056v-1.24683c0-.47998.27-.75.75-.75h.6601c.4799 0 .75.27002.75.75v1.24683h2.176c.48 0 .75.26904.75.75v.57007c0 .47998-.27.74902-.75.74902h-2.176v1.78589h2.88c.4809 0 .7519.27002.7519.74996v.5701c0 .48-.271.752-.7519.752h-4.08l.1649.0441c-.4199 1.17-.9149 2.3709-1.381 3.3899l3.016-.1799c-.165-.2842-.3449-.5552-.525-.8252-.2839-.4189-.21-.7798.2411-1.0339l.495-.271c.4039-.2249.7639-.1641 1.0349.2099.75 1.021 1.4861 2.2061 1.9351 3.2112.1799.4358.045.75-.359.99l-.6601.3899c-.452.2551-.781.1799-.916-.1799-.0749-.18-.151-.374-.241-.5701-2.175.21-4.4559.405-6.2719.5559-.48.0452-.7641-.2109-.824-.6758l-.0911-.6892c-.0589-.511.1061-.7968.421-.8108l.5101-.0151c.4189-1.0501.8709-2.3709 1.155-3.54h-1.4251c-.4799 0-.7509-.272-.7509-.752z"/><path d="m101.089 16.2749v-.856c0-.4799.27-.75.75-.75h6.031v-6.27193h-6.031c-.48 0-.75-.27002-.75-.75v-.854c0-.47998.27-.75195.75-.75195h7.727c.48 0 .75.27197.75.75195v9.48193c0 .48-.27.75-.75.75h-7.727c-.48 0-.75-.27-.75-.75z"/><path d="m113.861 12.3892v-.856c0-.48.27-.75.75-.75h5.432c.48 0 .75.27.75.75v.856c0 .4799-.27.75-.75.75h-5.432c-.48 0-.75-.2701-.75-.75z"/><path d="m123.708 16.7871v-1.2009c0-.405.165-.6751.509-.9011 2.642-1.649 4.352-3.6448 5.477-6.481h-4.68c-.482 0-.75-.27002-.75-.75v-.91504c0-.48095.268-.75.75-.75h7.036c.524 0 .795.31519.659.8252-.464 1.97998-1.304 3.67604-2.22 5.08594.705 1.0349 1.727 2.01 2.581 2.7461.3.2549.421.5249.421.9148v1.216c0 .629-.421.8541-.93.4642-1.306-1.0352-2.341-2.1011-3.406-3.5252-1.036 1.2752-2.852 2.8362-4.562 3.811-.495.3001-.885.044-.885-.54z"/></g><path d="m21.4199 10.71c0-5.52201-2.73-10.71-10.7099-10.71-7.98002 0-10.71 5.18799-10.71 10.71 0 5.5219 2.72998 10.7099 10.71 10.7099 7.9799 0 10.7099-5.188 10.7099-10.7099z" fill="#fccf00"/><path d="m4.896 14.2764c0-.8011.40893-1.399 1.46704-1.399.76794 0 1.51892.3589 2.16699.4949.22192-.3918.34094-1.0918.40991-1.5359l.13599-.9551c-1.14295-.1879-2.50794-.666-3.46399-1.65498l1.07507-1.41699c.90491.75097 1.84302 1.1101 2.62793 1.28003.35803-2.45704 1.33106-4.02686 3.66906-4.02686 1.177 0 2.526.78491 2.526 2.38892 0 1.29712-1.041 3.27608-4.4031 3.51488l-.1709 1.1782c-.085.563-.29 1.45-.5631 1.9109.4441.187 1.0241.273 1.6731.273 1.211 0 2.167-.6829 2.9519-2.1839l1.4501.699c-.887 1.8938-2.338 3.208-4.4711 3.1399-1.0069-.0339-2.01291-.29-2.95188-.614-.58007.4431-1.31408.614-2.06506.614-1.29602 0-2.047-.7681-2.06396-1.707zm8.6-6.77396c0-.427-.273-.64795-.648-.64795-.717 0-1.229.95484-1.451 2.30298 1.706-.23804 2.099-1.19409 2.099-1.65503z" fill="#fff"/></svg>