<svg fill="none" height="22" viewBox="0 0 106 22" width="106" xmlns="http://www.w3.org/2000/svg"><g fill="#231815"><path d="m25.568 12.6233c0-.481.241-.75.661-.75h.6599v-2.67115c0-.47998.27-.75.75-.75h3.286v-.63086c0-.47998.27-.75.75-.75h.6761c.4799 0 .75.25586.75.69092v.68994h3.4949c.4811 0 .75.27002.75.75v2.67115h.4361c.48 0 .749.269.749.75v.51c0 .48-.269.75-.749.75h-3.9461c.9301.946 2.2951 1.5469 4.141 1.8469.5701.0901.6911.4041.375.8679-.1499.2112-.2849.4522-.4049.6761-.2101.3911-.511.5561-.9601.466-2.2049-.466-3.7069-1.3808-4.802-2.8659-.87 1.1999-2.4149 2.176-4.995 2.8359-.4519.104-.7519-.031-.9909-.4209l-.345-.5251c-.3461-.4639-.2111-.8099.375-.9439 2.13-.4809 3.3309-1.1421 3.991-1.937h-3.901c-.48 0-.751-.27-.751-.75zm.12-6.82716v-.43481c0-.47998.27-.75.75-.75h1.921v-.28516c0-.48096.271-.75.751-.75h.5539c.48 0 .75.1792.75.51001v.52515h3.2261v-.28516c0-.48096.271-.75.752-.75h.57c.48 0 .75.1792.75.51001v.52515h1.951c.478 0 .749.27002.749.75v.43481c0 .48023-.271.75-.749.75h-1.951v.46607c0 .47998-.27.75-.75.75h-.57c-.481 0-.752-.22486-.752-.61499v-.60108h-3.2261v.46607c0 .47998-.27.75-.75.75h-.5539c-.48 0-.751-.27002-.751-.75v-.46607h-1.921c-.48 0-.75-.26977-.75-.75zm5.2369 4.53226h-2.0409v1.5449h2.0409zm4.3061 0h-2.131v1.5449h2.131z"/><path d="m41.7039 8.13745c1.9201-1.02197 3.647-2.62695 4.636-4.052.225-.32983.496-.47998.901-.47998h1.0351c.391 0 .66.13501.916.46411 1.3039 1.71191 2.9989 3.00195 4.8009 3.78198.4801.22486.5701.54004.254.98999-.15.22486-.2989.44995-.4499.69092-.2391.40503-.584.52513-1.005.29907-.5561-.31494-1.11-.65991-1.651-1.03393v.47998c0 .47998-.2701.75001-.75.75001h-5.1011c-.48 0-.75-.27003-.75-.75001v-.36206c-.5399.37597-1.095.75195-1.6819 1.06689-.4191.23898-.764.12008-1.019-.2998-.105-.18018-.225-.37598-.36-.55616-.3001-.41894-.225-.75.2249-.98901zm.241 3.54005c0-.48.2691-.75.75-.75h10.3671c.48 0 .75.27.75.75v.5261c0 .48-.27.75-.75.75h-2.2051c.9601.9148 1.9491 2.0398 2.6111 3.0149.2839.405.1939.7661-.2261 1.0361l-.6599.419c-.4201.2549-.7201.241-.9-.0452-.0751-.135-.1651-.2839-.271-.4348-2.9551.1809-6.0761.3308-8.432.4509-.48.0149-.75-.2099-.8091-.6899l-.0759-.6311c-.059-.51.1799-.7791.6749-.8101l1.395-.0449c.316-.7051.615-1.5159.8411-2.2649h-2.3101c-.4809 0-.75-.27-.75-.75zm5.896-5.98609c-.541.76513-1.291 1.57519-2.176 2.34008h4.456c-.9289-.75-1.74-1.56103-2.28-2.34008zm2.115 9.31709c-.1799-.2099-.36-.405-.5399-.601-.3611-.4041-.3001-.795.1639-1.0501l.7521-.4038h-2.7771c-.359.7349-.719 1.499-1.08 2.19z"/><path d="m56.817 6.8766c0-.47999.27-.75.75-.75h4.023c.4799 0 .749.27001.749.75v.19409c0 .48095-.2691.75-.749.75h-4.023c-.48 0-.75-.26905-.75-.75zm.646 6.4971c0-.48.2689-.751.75-.751h3.015c.48 0 .752.271.752.751v3.165c0 .48-.272.75-.752.75h-2.055c0 .345-.27.541-.75.541h-.21c-.4811 0-.75-.271-.75-.751zm.0449-4.29203c0-.47998.2691-.75.75-.75h2.88c.48 0 .75.27002.75.75v.11988c0 .48022-.27.75-.75.75h-2.88c-.4809 0-.75-.26978-.75-.75zm0 2.13083c0-.4809.2691-.75.75-.75h2.88c.48 0 .75.2691.75.75v.1202c0 .4799-.27.75-.75.75h-2.88c-.4809 0-.75-.2701-.75-.75zm3.646-5.58175h-2.807c-.48 0-.7489-.27002-.7489-.75v-.12012c0-.47998.2689-.75.7489-.75h2.807c.4801 0 .75.27002.75.75v.12012c0 .47998-.2699.75-.75.75zm-.9309 8.68705h-1.05v1.2749h1.05zm2.235-5.65507c0-.48096.272-.7522.752-.7522h2.16v-1.48486c-.51.06103-1.006.10595-1.486.15088-.4651.03003-.7191-.1958-.854-.646-.031-.11987-.061-.22485-.106-.34497-.165-.51099.0159-.82495.541-.88501 1.649-.17993 3.316-.46582 4.6059-.83984.4041-.12012.7201-.01612.9901.31494l.45.57007c.345.43481.241.87085-.3151 1.00488-.5409.13501-1.1109.2561-1.6949.36011v1.7998h2.175c.48 0 .75.27124.75.7522v.55395c0 .47998-.27.75098-.75.75098h-2.175v1.66504h1.634c.48 0 .752.27.752.75v4.6509c0 .48-.272.751-.752.751h-.5701c-.4799 0-.75-.1199-.75-.3309v-.3291h-2.7009c0 .4642-.269.72-.75.72h-.4491c-.48 0-.75-.27-.75-.75v-4.7119c0-.48.27-.75.75-.75h1.4551v-1.66504h-2.16c-.48 0-.752-.271-.752-.75098zm5.3569 4.91997h-2.7009v1.591h2.7009z"/><path d="m72.9979 16.2693v-.856c0-.48.27-.75.75-.75h6.031v-6.27194h-6.031c-.48 0-.75-.27002-.75-.75v-.85401c0-.47998.27-.75219.75-.75219h7.7271c.48 0 .75.27221.75.75219v9.48195c0 .48-.27.75-.75.75h-7.7271c-.48 0-.75-.27-.75-.75z"/><path d="m85.77 12.3833v-.856c0-.4799.2699-.75.75-.75h5.432c.48 0 .75.2701.75.75v.856c0 .48-.27.75-.75.75h-5.432c-.4801 0-.75-.27-.75-.75z"/><path d="m95.6169 16.7793v-1.2009c0-.4051.1651-.6741.5091-.9012 2.6419-1.6489 4.352-3.645 5.477-6.48091h-4.681c-.48 0-.749-.27002-.749-.75v-.91504c0-.47998.269-.75.749-.75h7.037c.525 0 .795.31494.66.82495-.466 1.97998-1.305 3.676-2.221 5.0862.705 1.0359 1.726 2.01 2.581 2.7458.3.2552.42.5252.42.9151v1.216c0 .6289-.42.854-.929.4639-1.306-1.0339-2.342-2.0999-3.406-3.5249-1.036 1.2749-2.852 2.8359-4.562 3.811-.495.3001-.8851.045-.8851-.54z"/></g><path d="m21.4199 10.71c0-5.52201-2.73-10.71-10.7099-10.71-7.98002 0-10.71 5.18799-10.71 10.71 0 5.5219 2.72998 10.7099 10.71 10.7099 7.9799 0 10.7099-5.188 10.7099-10.7099z" fill="#55b032"/><path d="m4.896 14.2766c0-.802.40893-1.3992 1.46704-1.3992.76794 0 1.51892.3582 2.16699.4952.22192-.3921.34192-1.0921.40991-1.5362l.13599-.9548c-1.14295-.188-2.50794-.666-3.46399-1.65601l1.07507-1.41602c.90491.75098 1.84302 1.10889 2.62793 1.28003.35803-2.45703 1.33106-4.0271 3.66906-4.0271 1.177 0 2.526.78491 2.526 2.38892 0 1.29712-1.041 3.27608-4.4031 3.51518l-.1709 1.177c-.085.5639-.29 1.4509-.5631 1.9108.4441.188 1.0241.2742 1.6731.2742 1.211 0 2.167-.6831 2.9519-2.185l1.4501.6999c-.887 1.894-2.338 3.208-4.4711 3.1401-1.006-.0341-2.01291-.29-2.95188-.6152-.58007.4441-1.31408.6152-2.06506.6152-1.29602 0-2.047-.768-2.06396-1.707zm8.6-6.77416c0-.427-.273-.64795-.648-.64795-.717 0-1.229.95508-1.451 2.30298 1.706-.23901 2.099-1.19385 2.099-1.65503z" fill="#fff"/></svg>