<svg preserveAspectRatio="none" width="100%" height="100%" overflow="visible" style="display: block;" viewBox="0 0 1920 2343.75" fill="none" xmlns="http://www.w3.org/2000/svg">
<g id="&#227;&#130;&#176;&#227;&#131;&#171;&#227;&#131;&#188;&#227;&#131;&#151; 190">
<mask id="mask0_0_57" style="mask-type:alpha" maskUnits="userSpaceOnUse" x="0" y="0" width="1920" height="2344">
<rect id="&#233;&#149;&#183;&#230;&#150;&#185;&#229;&#189;&#162; 121" width="1920" height="2343.75" fill="var(--fill-0, #D9D9D9)"/>
</mask>
<g mask="url(#mask0_0_57)">
<path id="&#227;&#131;&#145;&#227;&#130;&#185; 205" d="M15.6539 327.666C15.1269 328.797 14.5279 329.589 13.7709 330.229L22.0619 334.096C22.9079 333.266 23.7499 332.282 24.3059 331.089C30.341 318.147 26.2219 310.415 15.1029 305.23L-15.9291 290.76L-13.4981 285.546L-18.5031 283.212V305.391L9.03995 318.234C15.7609 321.368 17.1189 324.525 15.6539 327.666Z" fill="var(--fill-0, #D089C3)"/>
<path id="&#227;&#131;&#145;&#227;&#130;&#185; 206" d="M1891.29 937.591C1873.92 943.572 1857.95 936.118 1852.22 919.474C1845.44 899.774 1854.1 886.538 1872.19 880.308C1890.37 874.051 1904.95 880.361 1911.21 898.534C1917 915.338 1911.39 930.67 1891.29 937.591ZM1879.12 900.41C1869.39 903.76 1862.5 909.099 1864.63 915.29C1866.24 920.222 1874.48 921.164 1884.45 917.73C1894.98 914.103 1900.36 908.027 1898.59 902.881C1896.84 897.815 1889.09 896.977 1879.12 900.41Z" fill="var(--fill-0, #D089C3)"/>
<path id="&#227;&#131;&#145;&#227;&#130;&#185; 207" d="M367.774 963.372C366.824 964.778 361.63 970.507 357.711 974.878L348.289 985.15L337.394 978.861L342.44 962.501C343.673 958.674 345.576 954.047 346.826 951.278L346.565 951.126C344.994 953.362 340.959 958.295 339.218 960.221L332.841 967.154L335.722 968.817L331.791 975.625L316.813 966.977L320.743 960.17L323.623 961.832L348.632 936.539L361.044 943.705L356.99 957.983C356.433 960.036 355.225 963.458 354.55 965.233L354.759 965.354C355.876 963.903 358.462 960.997 359.705 959.69L370.156 948.966L382.307 955.98L372.015 989.771L374.949 991.465L371.018 998.272L353.735 988.294L357.665 981.486L360.703 983.24L363.756 974.807C364.631 971.961 367.339 965.215 368.036 963.523L367.774 963.372Z" fill="var(--fill-0, #FDA126)"/>
<path id="&#227;&#131;&#145;&#227;&#130;&#185; 208" d="M1827.41 1282.17L1815.05 1277.18L1833.11 1268.06L1830.91 1273.53L1840.69 1277.48L1850.9 1252.22L1841.11 1248.26L1839.33 1252.66L1825.41 1259.83L1807.7 1234.85L1809.48 1230.45L1799.62 1226.47L1787.67 1256.06L1797.53 1260.04L1799.61 1254.88L1809.2 1268.28L1802.15 1271.97L1794.03 1268.69L1795.69 1264.59L1785.83 1260.61L1776.17 1284.5L1786.03 1288.49L1787.69 1284.39L1821.07 1297.88L1819.41 1301.97L1829.2 1305.93L1838.85 1282.03L1829.07 1278.08L1827.41 1282.17Z" fill="var(--fill-0, #24BCC7)"/>
<path id="&#227;&#131;&#145;&#227;&#130;&#185; 209" d="M1184.79 15.3901C1182.68 13.2822 1179.46 10.2742 1178.22 9.30615L1158.02 -7.57776L1146.84 0.25415L1155.8 25.8052C1156.17 26.9022 1157.61 30.4402 1159.32 33.2272L1159.1 33.3782L1144.34 12.2932L1147.39 10.1552L1142.56 3.2522L1128.05 13.4082L1132.89 20.3112L1135.78 18.2872L1152.3 41.8892L1149.47 43.8762L1154.3 50.7792L1174.58 36.5762L1165.97 12.7762L1185.13 29.1942L1205.52 14.9161L1200.68 8.01221L1197.74 10.0752L1181.25 -13.4749L1184.2 -15.5358L1179.32 -22.4928L1162.41 -10.6508L1167.28 -3.69385L1170.28 -5.79077L1182.8 12.0822L1185.01 15.2412L1184.79 15.3901Z" fill="var(--fill-0, #D089C3)"/>
<path id="&#227;&#131;&#145;&#227;&#130;&#185; 210" d="M670.761 -277.632L676.531 -265.801L686.833 -270.826L690.13 -264.066L655.201 -247.03L651.943 -253.71L641.239 -248.489L655.841 -218.55L666.545 -223.771L663.326 -230.371L698.255 -247.406L701.631 -240.485L691.329 -235.46L697.1 -223.63L718.024 -233.835L691.685 -287.837L670.761 -277.632Z" fill="var(--fill-0, #FF5D8F)"/>
<path id="&#227;&#131;&#145;&#227;&#130;&#185; 211" d="M902.47 1329.27C891.954 1338.74 878.245 1340.39 867.606 1328.57C858.882 1318.88 859.6 1307.32 864.231 1298.45C861.205 1296.04 858.096 1293.06 855.224 1289.87C833.732 1266 832.781 1236.91 860.666 1211.8C884.769 1190.1 916.147 1190.73 937.532 1214.48C962.64 1242.36 957.138 1269.99 931.97 1292.65C919.564 1303.82 906.542 1309.56 893.6 1309.44C890.791 1313.69 887.942 1318.6 890.602 1321.56C892.517 1323.69 896.038 1320.94 898.046 1319.13L901.473 1316.05L908.496 1323.85L902.47 1329.27ZM903.531 1270.34C905.055 1269.18 906.698 1267.91 908.352 1266.42C921.94 1254.19 928.046 1238.63 920.174 1229.89C913.908 1222.69 897.897 1225.35 884.073 1237.79C881.708 1239.92 879.689 1241.95 877.998 1244.12C883.282 1244.28 889.947 1245.98 896.224 1252.95C900.799 1258.03 902.844 1264.11 903.531 1270.34ZM881.185 1277.83C886.349 1271.69 889.089 1266.65 885.472 1262.64C881.961 1258.74 875.933 1259.88 869.718 1262.48C869.246 1267.19 870.394 1271.08 872.948 1273.91C874.969 1276.16 877.829 1277.43 881.185 1277.83Z" fill="var(--fill-0, #C6D739)"/>
<path id="&#227;&#131;&#145;&#227;&#130;&#185; 212" d="M122.207 829.299C122.334 820.149 119.528 809.373 110.867 801.297C96.8509 788.226 79.1449 788.525 65.3969 803.268C51.2169 818.474 54.1459 838.263 62.8079 846.34C69.4179 852.505 75.8469 851.577 77.1809 851.339L75.2489 856.458L85.629 866.138L103.138 847.362L91.3029 836.327C87.0979 840.439 81.2219 842.499 76.5279 838.121C71.768 833.683 74.1479 824.901 80.8679 817.695C86.9709 811.15 95.8289 808.41 102.11 814.267C107.664 819.445 106.601 829.332 106.581 830.549L122.207 829.299Z" fill="var(--fill-0, #C8D93B)"/>
<path id="&#227;&#131;&#145;&#227;&#130;&#185; 213" d="M438.921 651.236C437.289 647.613 437.924 641.073 442 635.252C451.264 622.022 468.904 618.713 485.233 630.147C501.714 641.687 505.061 661.043 496.803 672.837C489.127 683.799 482.186 682.769 480.13 683.132L484.462 688.531L476.574 699.795L454.273 684.179L463.748 670.647C470.03 674.708 476.26 673.212 479.383 668.752C483.671 662.628 479.983 653.736 472.423 648.442C464.711 643.043 455.866 642.483 451.26 649.06C448.244 653.369 448.711 656.4 449.882 658.911L453.058 661.135L456.287 656.523L464.377 662.187L446.802 687.286L438.713 681.622L440.83 678.598L421.93 665.364L432.518 650.244L438.921 651.236Z" fill="var(--fill-0, #25BDC8)"/>
<path id="&#227;&#131;&#145;&#227;&#130;&#185; 214" d="M102.391 220.142L107.33 218.537L95.1549 181.067L90.216 182.672L86.646 171.686L118.411 161.365C132.547 156.772 140.99 159.867 144.006 169.149C146.331 176.302 145.507 180.429 139.95 185.06C146.635 184.771 153.211 187.624 155.895 195.885C159.797 207.892 154.784 215.358 138.348 220.698L105.988 231.213L102.391 220.142ZM117.016 188.369L122.212 186.681C126.725 185.214 127.2 182.33 125.871 178.242C124.599 174.325 121.467 172.8 118.231 173.852L112.866 175.595L117.016 188.369ZM131.771 210.596C135.347 209.434 137.783 205.63 136.289 201.032C134.878 196.689 131.385 194.34 126.7 195.862L120.143 197.992L124.958 212.81L131.771 210.596Z" fill="var(--fill-0, #C6D739)"/>
<path id="&#227;&#131;&#145;&#227;&#130;&#185; 215" d="M888.997 282.276C885.418 281.789 880.682 278.149 878.158 272.202C872.421 258.687 878.368 243.493 895.049 236.412C911.885 229.266 928.421 236.01 933.534 248.058C938.288 259.256 934.151 264.111 933.44 265.872L939.689 265.133L944.573 276.64L921.79 286.311L915.922 272.487C922.08 269.6 923.928 264.076 921.994 259.52C919.338 253.264 910.706 251.824 902.982 255.102C895.105 258.446 890.412 264.995 893.264 271.715C895.132 276.116 897.695 277.216 900.195 277.523L903.439 276.146L901.439 271.434L909.703 267.926L920.587 293.567L912.323 297.075L911.012 293.986L891.704 302.182L885.147 286.735L888.997 282.276Z" fill="var(--fill-0, #25BDC8)"/>
<path id="&#227;&#131;&#145;&#227;&#130;&#185; 216" d="M1167.05 904.982C1160.99 917.537 1157.92 934.225 1164.68 950.958C1175.62 978.034 1200.27 989.024 1228.75 977.517C1258.12 965.648 1266.82 936.432 1260.06 919.7C1254.9 906.929 1245.43 904.07 1243.43 903.542L1249.4 897.714L1241.29 877.662L1205.02 892.316L1214.26 915.179C1222.72 912.207 1232.16 913.147 1235.82 922.215C1239.54 931.411 1230.6 942.005 1216.67 947.63C1204.03 952.739 1190.03 950.817 1185.13 938.684C1180.79 927.957 1188.63 914.986 1189.44 913.32L1167.05 904.982Z" fill="var(--fill-0, #C8D93B)"/>
<path id="&#227;&#131;&#145;&#227;&#130;&#185; 217" d="M169.923 1246.29L181.678 1247.53L181.182 1252.25L219.83 1256.31L221.037 1244.82L209.729 1243.63L211.301 1228.67L234.454 1231.11L229.212 1280.97L217.368 1279.73L217.883 1274.83L179.235 1270.77L178.721 1275.67L166.965 1274.43L169.923 1246.29Z" fill="var(--fill-0, #FF5D8F)"/>
<path id="&#227;&#131;&#145;&#227;&#130;&#185; 218" d="M374.511 1324.75C366.232 1322.03 357.398 1316.16 352.811 1305.86C345.387 1289.19 351.146 1273.34 368.685 1265.53C386.775 1257.47 403.687 1266.25 408.274 1276.55C411.775 1284.41 408.947 1289.92 408.318 1291.04L413.528 1290.89L419.026 1303.24L396.69 1313.18L390.422 1299.11C395.429 1296.59 399.105 1291.94 396.619 1286.36C394.098 1280.69 385.452 1280.11 376.879 1283.93C369.093 1287.4 363.879 1294.52 367.206 1302C370.148 1308.6 379.38 1310.71 380.481 1311.07L374.511 1324.75Z" fill="var(--fill-0, #C8D93B)"/>
<path id="&#227;&#131;&#145;&#227;&#130;&#185; 219" d="M170.613 1028.34L182.816 1021.85L177.166 1011.23L184.139 1007.52L203.296 1043.55L196.406 1047.21L202.276 1058.25L233.158 1041.83L227.287 1030.79L220.48 1034.41L201.323 998.382L208.463 994.586L214.113 1005.21L226.316 998.723L214.84 977.14L159.137 1006.76L170.613 1028.34Z" fill="var(--fill-0, #FF5D8F)"/>
<path id="&#227;&#131;&#145;&#227;&#130;&#185; 220" d="M-17.467 691.884L6.43705 656.444L11.582 659.915L18.907 649.054L-18.503 623.82V639.622L-10.466 645.043L-18.503 656.96V704.517L-12.322 695.354L-17.467 691.884Z" fill="var(--fill-0, #C8D93B)"/>
<path id="&#227;&#131;&#145;&#227;&#130;&#185; 221" d="M1913.15 634.297L1927.28 643.826L1932.4 636.231L1937.43 639.622V623.82L1925.6 615.842L1913.15 634.297Z" fill="var(--fill-0, #C8D93B)"/>
<path id="&#227;&#131;&#145;&#227;&#130;&#185; 222" d="M1936.49 658.354L1920.98 647.889L1913.65 658.749L1929.17 669.214L1921.57 680.483L1908.5 671.67L1913.4 664.403L1899.28 654.874L1887.1 672.92L1936.34 706.132L1937.43 704.517V656.96L1936.49 658.354Z" fill="var(--fill-0, #C8D93B)"/>
<path id="&#227;&#131;&#145;&#227;&#130;&#185; 223" d="M1817.07 399.275C1837.77 382.513 1840.87 357.15 1824.81 337.314C1805.8 313.836 1782.86 314.319 1761.3 331.779C1739.65 349.316 1736.2 372.1 1753.74 393.757C1769.95 413.785 1793.11 418.675 1817.07 399.275ZM1780.7 355.736C1792.3 346.346 1804.15 341.981 1810.13 349.36C1814.96 355.127 1809.79 365.981 1797.9 375.604C1785.35 385.769 1773.75 387.707 1768.78 381.574C1763.89 375.536 1768.82 365.358 1780.7 355.736Z" fill="var(--fill-0, #D089C3)"/>
<path id="&#227;&#131;&#145;&#227;&#130;&#185; 224" d="M1717.35 -153.641L1715.01 -142.611L1710.39 -143.592L1706.47 -125.123C1703.54 -111.356 1706 -107.795 1711.47 -106.631C1716.69 -105.523 1720.54 -106.848 1723.67 -121.556L1727.52 -139.683L1722.91 -140.664L1725.31 -151.951L1750.62 -146.571L1748.27 -135.54L1743.65 -136.522L1739.24 -115.744C1734.93 -95.4778 1724.52 -88.1298 1708.45 -91.5468C1691.28 -95.7308 1683.97 -106.757 1688.1 -126.168L1692.59 -147.287L1687.8 -148.305L1690.16 -159.421L1717.35 -153.641Z" fill="var(--fill-0, #D089C3)"/>
<path id="&#227;&#131;&#145;&#227;&#130;&#185; 225" d="M1700.17 515.696L1705.17 535.757C1714.23 533.498 1718 542.181 1719.34 546.657C1720.28 550.432 1720.77 556.04 1716.24 557.169C1707.82 559.267 1701.06 516.963 1673.55 523.821C1657.59 527.8 1654.13 544.702 1656.76 555.271C1659.02 564.331 1664.22 572.773 1673.39 575.071L1664.6 578.407L1669.22 596.958L1696.29 590.209L1691.42 570.687C1683.44 572.677 1677.35 567.551 1675.47 560.001C1674.69 556.873 1675.56 552.075 1679.33 551.134C1690.44 548.364 1698.5 591.72 1723.85 585.401C1740.67 581.206 1742.79 563.953 1739.59 551.119C1736.87 540.225 1729.92 533.939 1724.04 531.051L1732.05 527.794L1727.35 508.919L1700.17 515.696Z" fill="var(--fill-0, #55B032)"/>
<path id="&#227;&#131;&#145;&#227;&#130;&#185; 226" d="M788.45 521.307L789.413 507.532L795.884 507.985L796.985 492.228L777.158 490.842L776.056 506.598L782.214 507.029L781.251 520.804L747.336 518.432L748.299 504.657L754.351 505.08L757.526 459.687L751.473 459.264L752.436 445.49L786.351 447.862L785.388 461.635L779.23 461.205L778.129 476.963L797.956 478.349L799.058 462.591L792.588 462.139L793.551 448.365L827.361 450.729L826.398 464.503L820.658 464.102L817.484 509.495L823.224 509.896L822.261 523.672L788.45 521.307Z" fill="var(--fill-0, #FFA52A)"/>
<path id="&#227;&#131;&#145;&#227;&#130;&#185; 227" d="M574.149 211.767C574.021 214.14 571.921 224.76 570.368 232.832L566.468 251.952L548.861 252.259L543.12 228.989C541.839 223.508 540.786 216.582 540.29 212.358L539.866 212.367C539.594 216.181 538.309 225.009 537.609 228.577L534.955 241.494L539.612 241.413L539.804 252.417L515.594 252.84L515.402 241.836L520.057 241.755L531.829 193.369L551.891 193.018L557.322 213.076C558.134 215.942 559.152 220.919 559.621 223.536L559.96 223.53C560.254 220.985 561.261 215.632 561.811 213.168L566.62 192.761L586.259 192.419L598.274 240.389L603.014 240.306L603.206 251.31L575.271 251.798L575.079 240.794L579.989 240.708L577.572 228.388C576.57 224.341 574.956 214.293 574.572 211.76L574.149 211.767Z" fill="var(--fill-0, #FDA126)"/>
<path id="&#227;&#131;&#145;&#227;&#130;&#185; 228" d="M1308.29 1605.92C1295.53 1592.7 1277.92 1592.1 1265.26 1604.33C1250.27 1618.8 1251.98 1634.53 1265.28 1648.29C1278.63 1662.11 1294.49 1663.11 1308.31 1649.76C1321.1 1637.42 1323.06 1621.21 1308.29 1605.92ZM1280.57 1633.52C1273.42 1626.12 1269.71 1618.24 1274.42 1613.69C1278.09 1610.02 1285.86 1612.92 1293.18 1620.51C1300.92 1628.52 1302.95 1636.38 1299.04 1640.16C1295.18 1643.88 1287.89 1641.11 1280.57 1633.52Z" fill="var(--fill-0, #D089C3)"/>
<path id="&#227;&#131;&#145;&#227;&#130;&#185; 229" d="M1513.47 1434.81C1505.71 1451.46 1489.25 1457.77 1473.3 1450.33C1454.42 1441.52 1450.91 1426.09 1459 1408.75C1467.12 1391.34 1481.79 1385.23 1499.21 1393.35C1515.32 1400.86 1522.45 1415.54 1513.47 1434.81ZM1478.27 1417.74C1473.92 1427.06 1472.98 1435.73 1478.91 1438.49C1483.58 1440.76 1489.98 1435.49 1494.43 1425.93C1499.14 1415.84 1498.5 1407.75 1493.57 1405.45C1488.71 1403.19 1482.72 1408.18 1478.27 1417.74Z" fill="var(--fill-0, #D089C3)"/>
<path id="&#227;&#131;&#145;&#227;&#130;&#185; 230" d="M1678.73 176.748L1660.14 169.98L1654.72 184.872L1662.21 187.598L1657.58 200.304L1642.94 194.975L1648.76 178.988L1637.57 174.915L1631.75 190.902L1621.07 187.013L1624.19 178.43L1613 174.357L1601.61 205.658L1612.8 209.731L1614.7 204.514L1651.21 217.805L1649.31 223.022L1660.42 227.065L1678.73 176.748Z" fill="var(--fill-0, #C8D93B)"/>
<path id="&#227;&#131;&#145;&#227;&#130;&#185; 231" d="M1255.48 104.346C1249.12 107.043 1245.57 112.763 1248.6 119.903C1251.09 125.757 1256.34 127.822 1261.22 127.606C1261.67 129.44 1262.34 131.429 1263.16 133.356C1269.28 147.777 1281.95 154.196 1298.8 147.044C1313.36 140.862 1319.55 126.86 1313.46 112.51C1306.31 95.6613 1292.96 92.3982 1277.75 98.8522C1270.25 102.034 1265.03 106.608 1262.42 112.353C1259.96 112.721 1257.2 112.967 1256.44 111.182C1255.9 109.898 1257.84 108.905 1259.05 108.39L1261.12 107.512L1259.12 102.799L1255.48 104.346ZM1281.75 116.026C1282.58 115.591 1283.48 115.126 1284.48 114.701C1292.69 111.215 1300.82 111.723 1303.07 117.005C1304.96 121.259 1300.48 127.791 1292.13 131.337C1290.7 131.943 1289.39 132.418 1288.08 132.72C1289.1 130.349 1289.72 127.053 1287.93 122.839C1286.63 119.769 1284.37 117.613 1281.75 116.026ZM1273.83 124.359C1277.61 123.343 1280.41 123.17 1281.44 125.597C1282.44 127.953 1280.69 130.381 1278.25 132.593C1276.08 131.832 1274.6 130.523 1273.87 128.809C1273.29 127.453 1273.32 125.925 1273.83 124.359Z" fill="var(--fill-0, #C6D739)"/>
<path id="&#227;&#131;&#145;&#227;&#130;&#185; 232" d="M1577.77 46.6932C1593.66 62.5782 1603.04 59.3602 1610.85 51.5542C1616.19 46.2133 1615.71 38.2032 1610.85 31.6982C1616.26 35.7372 1624.61 35.8752 1629.54 30.9442C1632.48 28.0012 1634.61 26.6992 1635.84 27.9323C1636.87 28.9592 1636.59 30.3282 1635.22 31.6982L1632.96 33.9572L1637.55 38.5452L1641.32 34.7792C1647 29.0962 1649.88 21.4261 1642.27 13.8262C1633.3 4.8562 1624.27 5.26721 1616.26 13.2782C1610.02 19.5092 1607.76 20.2632 1601.67 14.1692L1612.28 3.55615L1616.46 7.73218L1625.5 -1.30676L1603.38 -23.4218L1594.34 -14.3838L1598.18 -10.5488L1568.32 19.3052L1564.49 15.4702L1555.52 24.4392L1577.77 46.6932ZM1594 21.8383L1597.08 24.9192C1601.05 28.8901 1601.74 33.4102 1598.11 37.0382C1594.07 41.0782 1589.76 40.8732 1585.79 36.9012L1582.36 33.4781L1594 21.8383Z" fill="var(--fill-0, #FF5D8F)"/>
<path id="&#227;&#131;&#145;&#227;&#130;&#185; 233" d="M1251.09 1250.45L1201.45 1343.81L1182.37 1334.03L1148.31 1249.1L1134.23 1275.57L1152.45 1285.26L1139.05 1310.45L1102.06 1290.77L1152.07 1196.71L1170.57 1206.54L1205.08 1291.33L1219.3 1264.58L1200.8 1254.74L1213.66 1230.55L1251.09 1250.45Z" fill="var(--fill-0, #55B032)"/>
<path id="&#227;&#131;&#145;&#227;&#130;&#185; 234" d="M385.233 419.666L425.956 354.495L450.537 369.855L452.473 431.635L470.477 402.823L461.673 397.322L470.889 382.573L505.99 404.506L496.774 419.255L490.028 415.04L458.521 465.462L465.153 469.605L455.937 484.354L423.122 463.85L421.33 404.386L404.327 431.597L412.101 436.455L402.885 451.204L368.47 429.699L377.686 414.95L385.233 419.666Z" fill="var(--fill-0, #FDA126)"/>
<path id="&#227;&#131;&#145;&#227;&#130;&#185; 235" d="M204.915 -287.357C206.347 -288.025 207.528 -289.034 208.523 -290.049L205.54 -296.447H174.863C181.072 -284.603 190.175 -280.483 204.915 -287.357Z" fill="var(--fill-0, #D089C3)"/>
<path id="&#227;&#131;&#145;&#227;&#130;&#185; 236" d="M200.807 1658.2C197.038 1659.95 193.25 1658.32 189.489 1650.26L172.124 1613.02L178.606 1610L174.001 1600.12L145.658 1613.34L150.263 1623.21L156.52 1620.3L173.885 1657.53C174.201 1658.21 174.531 1658.85 174.863 1659.49H205.54L203.883 1655.94C203.114 1656.84 202.164 1657.56 200.807 1658.2Z" fill="var(--fill-0, #D089C3)"/>
<path id="&#227;&#131;&#145;&#227;&#130;&#185; 237" d="M1016.46 765.633C1021.5 762.134 1025.87 752.963 1025.1 742.008C1023.36 717.109 1002.63 698.684 971.894 700.833C940.876 703.002 921.036 725.98 922.588 748.175C924.03 768.807 934.044 772.967 936.479 775.086L926.444 778.789L927.927 799.989L969.9 797.054L968.119 771.586C956.564 771.965 949.502 765.025 948.915 756.63C948.109 745.105 960.073 736.261 974.302 735.266C988.815 734.251 1000.98 740.55 1001.84 752.929C1002.41 761.038 999.378 764.682 995.828 767.076L989.851 767.494L989.245 758.814L974.02 759.878L977.323 807.116L992.548 806.052L992.15 800.361L1027.72 797.873L1025.73 769.416L1016.46 765.633Z" fill="var(--fill-0, #25BDC8)"/>
<path id="&#227;&#131;&#145;&#227;&#130;&#185; 238" d="M406.761 779.136L436.192 818.192L421.461 829.293L384.316 816.354L397.328 833.62L402.603 829.645L409.264 838.483L388.229 854.335L381.568 845.496L385.611 842.45L362.84 812.233L358.866 815.227L352.206 806.388L371.871 791.57L407.607 804.066L395.318 787.759L390.66 791.27L383.999 782.431L404.623 766.889L411.284 775.728L406.761 779.136Z" fill="var(--fill-0, #FDA126)"/>
<path id="&#227;&#131;&#145;&#227;&#130;&#185; 239" d="M1916.7 1352.25L1937.43 1377.86V1335.46L1916.7 1352.25Z" fill="var(--fill-0, #FF5D8F)"/>
<path id="&#227;&#131;&#145;&#227;&#130;&#185; 240" d="M9.73515 1390.02L6.01615 1385.43L42.2571 1356.08L45.9752 1360.67L56.9981 1351.75L35.6301 1325.36L24.6081 1334.28L28.1911 1338.71L-8.04885 1368.06L-16.7719 1357.28L-6.16785 1348.7L-17.5279 1334.67L-18.5029 1335.46V1377.86L-1.37085 1399.01L9.73515 1390.02Z" fill="var(--fill-0, #FF5D8F)"/>
<path id="&#227;&#131;&#145;&#227;&#130;&#185; 241" d="M284.185 139.123C279.42 140.158 271.731 137.726 265.783 131.348C252.265 116.852 252.794 94.8312 270.686 78.1463C288.744 61.3073 312.835 62.2282 324.885 75.1502C336.086 87.1622 333.079 95.2312 332.99 97.7923L340.576 93.9702L352.086 106.313L327.649 129.101L313.822 114.272C320.301 107.767 320.094 99.9063 315.537 95.0192C309.28 88.3092 297.664 90.4682 289.38 98.1933C280.93 106.072 278.001 116.548 284.722 123.755C289.124 128.476 292.883 128.688 296.196 127.923L299.675 124.678L294.963 119.625L303.827 111.359L329.473 138.861L320.609 147.127L317.519 143.813L296.81 163.125L281.36 146.557L284.185 139.123Z" fill="var(--fill-0, #25BDC8)"/>
<path id="&#227;&#131;&#145;&#227;&#130;&#185; 242" d="M452.592 71.9032C447.827 72.9382 440.138 70.5062 434.19 64.1281C420.672 49.6322 421.201 27.6112 439.093 10.9261C457.151 -5.91289 481.242 -4.99187 493.292 7.93013C504.493 19.9421 501.486 28.0112 501.397 30.5721L508.983 26.7502L520.493 39.0921L496.056 61.8802L482.229 47.0522C488.708 40.5472 488.501 32.6861 483.944 27.7991C477.687 21.0892 466.071 23.2481 457.787 30.9731C449.337 38.8521 446.408 49.3282 453.129 56.5351C457.531 61.2562 461.29 61.4681 464.603 60.7032L468.082 57.4582L463.37 52.4041L472.234 44.1391L497.88 71.6412L489.016 79.9072L485.926 76.5931L465.217 95.9051L449.767 79.3371L452.592 71.9032Z" fill="var(--fill-0, #25BDC8)"/>
<path id="&#227;&#131;&#145;&#227;&#130;&#185; 243" d="M809.915 -37.2102L820.675 -40.7063L818.317 -47.9631L830.265 -65.4011L855.94 -57.0522L857.35 -52.7141L868.193 -56.2383L857.461 -89.2693L846.617 -85.7461L848.189 -80.9082L834.439 -85.4783L842.769 -97.5901L845.154 -90.2502L855.997 -93.7732L846.999 -121.466L836.156 -117.943L838.459 -110.853L826.453 -93.0261L801.055 -101.374L799.483 -106.212L788.639 -102.689L799.454 -69.4072L810.297 -72.9302L808.752 -77.6853L819.32 -74.1101L822.224 -73.1172L814.089 -60.9751L811.677 -68.3992L800.917 -64.9033L809.915 -37.2102Z" fill="var(--fill-0, #FFA52B)"/>
<path id="&#227;&#131;&#145;&#227;&#130;&#185; 244" d="M376.902 -252.413C377.78 -248.871 379.463 -232.33 380.807 -219.779L383.664 -189.948L357.944 -181.592L339.064 -213.188C334.722 -220.663 330.067 -230.361 327.441 -236.342L326.822 -236.142C328.135 -230.415 330.212 -216.873 330.786 -211.319L332.689 -191.158L339.491 -193.368L344.714 -177.292L309.348 -165.801L304.125 -181.877L310.926 -184.086L306.49 -260.432L335.796 -269.954L352.777 -242.935C355.257 -239.092 358.986 -232.238 360.85 -228.606L361.345 -228.767C360.634 -232.637 359.71 -240.95 359.411 -244.816L357.311 -276.945L385.999 -286.266L425.182 -221.21L432.107 -223.461L437.33 -207.385L396.524 -194.127L391.301 -210.202L398.473 -212.531L389.392 -229.54C386.103 -235.034 379.221 -249.066 377.52 -252.613L376.902 -252.413Z" fill="var(--fill-0, #FDA126)"/>
<path id="&#227;&#131;&#145;&#227;&#130;&#185; 245" d="M1793.41 1475.06C1818.07 1472.46 1833.35 1454.23 1830.87 1430.6C1827.93 1402.63 1809.78 1391.38 1784.09 1394.08C1758.29 1396.79 1744.04 1412.83 1746.75 1438.63C1749.26 1462.49 1764.86 1478.06 1793.41 1475.06ZM1787.09 1422.62C1800.9 1421.17 1812.38 1423.77 1813.3 1432.56C1814.15 1439.51 1804.6 1445.37 1790.44 1446.85C1775.49 1448.43 1765.45 1444.06 1764.68 1436.75C1763.92 1429.56 1772.93 1424.11 1787.09 1422.62Z" fill="var(--fill-0, #D089C3)"/>
<path id="&#227;&#131;&#145;&#227;&#130;&#185; 246" d="M754.788 107.199C751.141 110.73 745.934 116.117 744.251 118.19L714.954 152.02L727.934 171.263L771.63 156.795C773.506 156.2 779.562 153.856 784.351 151.028L784.6 151.397L748.321 175.867L744.781 170.617L732.903 178.629L749.734 203.584L761.612 195.572L758.259 190.6L798.866 163.21L802.157 168.09L814.035 160.077L790.496 125.179L749.786 139.107L778.261 107.041L754.597 71.9583L742.719 79.9702L746.136 85.0342L705.621 112.362L702.204 107.298L690.234 115.371L709.861 144.469L721.831 136.395L718.353 131.239L749.107 110.494L754.539 106.83L754.788 107.199Z" fill="var(--fill-0, #D089C3)"/>
<path id="&#227;&#131;&#145;&#227;&#130;&#185; 247" d="M1032.95 -5.56323L1017.85 2.80469L1021.78 9.89575L1004.51 19.4678L992.469 -2.26123L1009.74 -11.8333L1013.48 -5.08521L1028.57 -13.4531L1007.97 -50.6223L992.875 -42.2532L996.552 -35.6213L946.803 -8.04419L943.126 -14.6772L928.031 -6.3103L948.634 30.8589L963.729 22.4907L959.989 15.7427L977.258 6.16968L989.303 27.8997L972.033 37.4727L968.103 30.3818L953.007 38.7488L973.547 75.8037L988.643 67.4358L985.156 61.1448L1034.9 33.5698L1038.39 39.8599L1053.49 31.4917L1032.95 -5.56323Z" fill="var(--fill-0, #FFA52A)"/>
<path id="&#227;&#131;&#145;&#227;&#130;&#185; 248" d="M1758.37 993.09L1749.29 998.986L1708.01 935.432L1717.09 929.536L1704.54 910.206L1659.88 939.211C1624.44 962.224 1618.4 997.167 1636.56 1025.14C1658.25 1058.53 1690.91 1064.59 1726.94 1041.19L1771.01 1012.57L1758.37 993.09ZM1713.7 1022.1C1697.99 1031.88 1682.13 1021.57 1670.24 1003.26C1660.07 987.595 1656.91 968.622 1672.43 958.542L1677.99 954.928L1719.27 1018.48L1713.7 1022.1Z" fill="var(--fill-0, #FFA52B)"/>
<path id="&#227;&#131;&#145;&#227;&#130;&#185; 249" d="M280.466 1394.67L265.228 1392.26L263.6 1402.53L238.288 1416.32L212.261 1390.29L213.234 1384.14L197.878 1381.71L190.469 1428.49L205.825 1430.92L206.91 1424.07L220.788 1438.13L203.168 1447.69L204.815 1437.3L189.459 1434.87L183.247 1474.08L198.603 1476.52L200.193 1466.48L225.818 1452.25L251.508 1478.12L250.423 1484.97L265.779 1487.4L273.244 1440.27L257.888 1437.83L256.822 1444.57L246.195 1433.68L243.281 1430.68L260.682 1420.96L259.017 1431.47L274.255 1433.89L280.466 1394.67Z" fill="var(--fill-0, #FFA52B)"/>
<path id="&#227;&#131;&#145;&#227;&#130;&#185; 250" d="M836.604 1023.21L847.679 1002.38L837.895 997.179L850.563 973.354L880.543 989.295L867.875 1013.12L858.565 1008.17L847.49 1029L898.771 1056.26L909.846 1035.43L900.694 1030.57L937.189 961.932L946.341 966.798L957.414 945.971L906.133 918.705L895.06 939.532L904.37 944.482L891.701 968.309L861.721 952.368L874.39 928.542L884.174 933.743L895.247 912.917L844.124 885.734L833.05 906.561L841.729 911.175L805.234 979.813L796.555 975.198L785.48 996.026L836.604 1023.21Z" fill="var(--fill-0, #FFA52A)"/>
<path id="&#227;&#131;&#145;&#227;&#130;&#185; 251" d="M1080.03 1506.62L1059.63 1506.97L1059.94 1524.74L1048.29 1524.94L1047.24 1464.71L1058.75 1464.51L1058.43 1446.06L1006.81 1446.96L1007.13 1465.41L1018.51 1465.21L1019.56 1525.44L1007.63 1525.65L1007.32 1507.89L986.917 1508.24L987.547 1544.32L1080.66 1542.7L1080.03 1506.62Z" fill="var(--fill-0, #FF5D8F)"/>
<path id="&#227;&#131;&#145;&#227;&#130;&#185; 252" d="M1896.45 1081.17L1921.33 1104.84C1922.46 1103.4 1928.42 1094.28 1937.43 1088.35V1052.31C1919.8 1057.74 1905.98 1069.07 1896.45 1081.17Z" fill="var(--fill-0, #C8D93B)"/>
<path id="&#227;&#131;&#145;&#227;&#130;&#185; 253" d="M1904.02 1138.21L1907.94 1194.31L1937.43 1192.25V1135.87L1904.02 1138.21Z" fill="var(--fill-0, #C8D93B)"/>
<path id="&#227;&#131;&#145;&#227;&#130;&#185; 254" d="M-13.2151 1180.76C-11.2721 1183.01 -1.60805 1193.45 18.1439 1192.07C44.0219 1190.26 76.2879 1160.61 73.1119 1115.17C70.0309 1071.12 40.3009 1046.21 -1.57505 1049.14C-7.56205 1049.55 -13.1981 1050.68 -18.5031 1052.31V1088.36C-14.4241 1085.68 -9.71805 1083.65 -4.54805 1083.29C14.2169 1081.98 25.5209 1098.85 26.8879 1118.41C28.3939 1139.94 20.3399 1158.17 6.11795 1159.16C-7.90905 1160.14 -15.0721 1148.54 -16.5611 1135.74L-18.5031 1135.87V1192.25L-16.9831 1192.14L-13.2151 1180.76Z" fill="var(--fill-0, #C8D93B)"/>
<path id="&#227;&#131;&#145;&#227;&#130;&#185; 255" d="M687.072 895.515L539.562 869.505L533.837 899.333L598.932 1011.44L557.105 1004.06L562.18 975.279L522.38 968.261L512.072 1026.72L660.706 1052.93L665.861 1023.7L601.297 911.228L643.573 918.682L638.419 947.914L676.644 954.654L687.072 895.515Z" fill="var(--fill-0, #55B032)"/>
<path id="&#227;&#131;&#145;&#227;&#130;&#185; 256" d="M1468.92 798.18L1478.11 807.373L1473.79 811.691L1504.02 841.919L1508.34 837.6L1517.6 846.864L1494.48 869.987L1485.22 860.723L1489.6 856.335L1459.38 826.108L1454.99 830.496L1445.8 821.303L1468.92 798.18Z" fill="var(--fill-0, #D089C3)"/>
<path id="&#227;&#131;&#145;&#227;&#130;&#185; 257" d="M742.727 704.854L756.301 705.565L756.587 700.116L801.215 702.455L800.52 715.72L787.461 715.035L786.556 732.311L813.292 733.712L816.31 676.126L802.633 675.41L802.336 681.065L757.708 678.726L758.004 673.071L744.43 672.36L742.727 704.854Z" fill="var(--fill-0, #FF5D8F)"/>
<path id="&#227;&#131;&#145;&#227;&#130;&#185; 258" d="M621.286 640.425L627.651 632.278L633.56 636.894L635.558 631.644L622.808 621.682L618.197 624.892L623.049 628.682L616.683 636.829L596.905 621.376L603.27 613.229L607.5 616.534L637.229 595.789L634.679 593.797L640.947 585.774L664.83 604.434L648.238 648.362L652.592 651.763L646.226 659.911L621.286 640.425ZM639.088 622.382L645.479 605.741L630.941 616.017L639.088 622.382Z" fill="var(--fill-0, #D089C3)"/>
<path id="&#227;&#131;&#145;&#227;&#130;&#185; 259" d="M1442.8 -6.41895L1425.9 -7.89795L1426.89 -19.301L1403.55 -40.7539L1368.84 -19.8889L1368.24 -13.074L1351.21 -14.5649L1355.75 -66.4629L1372.78 -64.9729L1372.12 -57.3708L1390.67 -68.6899L1374.41 -83.583L1373.4 -72.0488L1356.37 -73.54L1360.17 -117.051L1377.21 -115.56L1376.24 -104.421L1399.8 -82.418L1434.1 -103.189L1434.77 -110.79L1451.8 -109.299L1447.23 -57.0068L1430.19 -58.4968L1430.85 -65.968L1416.61 -57.176L1412.7 -54.7458L1428.68 -39.7449L1429.7 -51.4089L1446.61 -49.9299L1442.8 -6.41895Z" fill="var(--fill-0, #FFA52B)"/>
<path id="&#227;&#131;&#145;&#227;&#130;&#185; 260" d="M1012.81 1071.7C1004.93 1095.98 1013.02 1103.81 1024.95 1107.69C1033.12 1110.34 1040.98 1105.72 1045.06 1097.44C1043.76 1105.01 1047.93 1113.54 1055.47 1115.98C1059.97 1117.45 1062.38 1118.92 1061.76 1120.81C1061.26 1122.38 1059.73 1122.81 1057.63 1122.13L1054.18 1121L1051.9 1128.02L1057.66 1129.89C1066.35 1132.71 1075.59 1131.66 1079.37 1120.05C1083.82 1106.34 1078.74 1097.4 1066.5 1093.42C1056.98 1090.32 1055.05 1088.43 1058.07 1079.11L1074.29 1084.38L1072.22 1090.77L1086.03 1095.25L1097.02 1061.45L1083.2 1056.96L1081.3 1062.82L1035.67 1048L1037.58 1042.14L1023.87 1037.68L1012.81 1071.7ZM1046.35 1075.3L1044.82 1080.01C1042.85 1086.08 1038.63 1089.11 1033.08 1087.31C1026.91 1085.3 1024.89 1080.83 1026.86 1074.76L1028.56 1069.52L1046.35 1075.3Z" fill="var(--fill-0, #FF5D8F)"/>
<path id="&#227;&#131;&#145;&#227;&#130;&#185; 261" d="M1908.28 59.0721C1923.82 49.8122 1927.46 39.9432 1924.52 21.3712C1920.71 -2.72881 1901.07 -13.6718 1864.37 -7.85881L1781.9 5.2032L1786.41 33.7252L1799.24 31.6942L1814.65 128.978L1801.82 131.01L1806.38 159.752L1890.39 146.445C1914.15 142.682 1929.41 135.902 1937.43 125.255V75.7901C1930.77 65.5172 1919.9 60.4012 1908.28 59.0721ZM1845.11 25.1102L1859.04 22.9031C1867.44 21.5732 1874.58 26.5611 1876.19 36.7312C1877.87 47.3452 1875.57 54.2812 1863.85 56.1372L1850.36 58.2731L1845.11 25.1102ZM1878.1 118.928L1860.41 121.73L1854.32 83.2591L1871.34 80.5622C1883.51 78.6362 1891.21 85.8022 1893 97.0782C1894.89 109.017 1887.39 117.457 1878.1 118.928Z" fill="var(--fill-0, #C6D739)"/>
<path id="&#227;&#131;&#145;&#227;&#130;&#185; 262" d="M1427.14 1050.15C1426.61 1047.88 1424.83 1044.05 1422.55 1040.22L1412.27 1023.55L1416.61 1022.86L1414.92 1012.22L1391.68 1015.91L1393.36 1026.55L1397.38 1025.91L1424.4 1069.38L1439.46 1066.99L1453.77 1016.98L1458.27 1016.27L1456.59 1005.63L1426.47 1010.4L1428.15 1021.04L1432.57 1020.34L1428.52 1039.77C1427.84 1043.99 1427.35 1047.76 1427.55 1050.08L1427.14 1050.15Z" fill="var(--fill-0, #25BDC8)"/>
<path id="&#227;&#131;&#145;&#227;&#130;&#185; 263" d="M1779.31 751.51L1784.85 751.026L1788.23 789.739L1782.7 790.223L1783.73 801.998L1810.94 799.618C1832.52 797.73 1843.67 783.361 1842.18 766.325C1840.4 745.985 1827.07 735.378 1805.13 737.297L1778.28 739.647L1779.31 751.51ZM1806.52 749.13C1815.99 748.481 1820.69 756.968 1821.67 768.119C1822.5 777.664 1819.36 787.015 1809.91 787.843L1806.52 788.14L1803.13 749.428L1806.52 749.13Z" fill="var(--fill-0, #FFA52B)"/>
<path id="&#227;&#131;&#145;&#227;&#130;&#185; 264" d="M1644.39 1260.06C1640.08 1267.53 1632.44 1271.07 1624.04 1266.22C1617.16 1262.25 1615.4 1255.41 1616.41 1249.39C1614.2 1248.56 1611.84 1247.42 1609.57 1246.11C1592.61 1236.32 1586.58 1219.62 1598.02 1199.81C1607.9 1182.68 1626.22 1177.14 1643.1 1186.88C1662.91 1198.32 1664.93 1215.38 1654.6 1233.26C1649.51 1242.08 1643.04 1247.86 1635.51 1250.23C1634.68 1253.22 1633.96 1256.61 1636.06 1257.82C1637.57 1258.69 1639.09 1256.44 1639.92 1255.01L1641.32 1252.58L1646.87 1255.78L1644.39 1260.06ZM1633.9 1225.68C1634.57 1224.72 1635.28 1223.68 1635.96 1222.5C1641.54 1212.85 1642.15 1202.68 1635.94 1199.09C1630.95 1196.1 1622.16 1200.65 1616.49 1210.47C1615.52 1212.15 1614.73 1213.71 1614.16 1215.29C1617.25 1214.39 1621.44 1214.12 1626.39 1216.98C1630 1219.06 1632.33 1222.2 1633.9 1225.68ZM1622.36 1234.24C1624.19 1229.7 1624.84 1226.27 1621.98 1224.62C1619.21 1223.02 1615.93 1224.82 1612.82 1227.5C1613.43 1230.31 1614.83 1232.35 1616.84 1233.52C1618.44 1234.44 1620.34 1234.64 1622.36 1234.24Z" fill="var(--fill-0, #C6D739)"/>
<path id="&#227;&#131;&#145;&#227;&#130;&#185; 265" d="M1933.5 1535.96L1930.55 1543.25L1933.64 1544.49L1928.29 1552.25C1926.83 1554.4 1923.52 1559.84 1922.28 1562.28L1922 1562.16C1922.85 1559.25 1924.09 1554.4 1924.78 1550.44L1927.5 1533.53L1915.84 1528.82L1907.94 1540.31C1904.66 1545.18 1900.32 1551.58 1899.57 1553.1L1899.29 1552.99C1899.75 1551.21 1901.49 1544.16 1901.96 1541.22L1903.81 1532.44L1907.06 1533.76L1910.01 1526.47L1891.5 1518.99L1888.56 1526.28L1891.7 1527.55L1886.21 1562.44L1899.22 1567.7L1908.07 1555.62C1909.12 1554.16 1911.28 1550.92 1912.18 1549.33L1912.41 1549.42C1911.99 1551.27 1911.27 1554.83 1911 1556.94L1908.97 1571.64L1922.26 1577.01L1937.43 1556.64V1537.55L1933.5 1535.96Z" fill="var(--fill-0, #FDA126)"/>
<path id="&#227;&#131;&#145;&#227;&#130;&#185; 266" d="M1647.12 -267.202L1678.48 -296.447H1610.39C1587.32 -277.707 1577.75 -281.297 1568.81 -290.892C1567.11 -292.708 1565.69 -294.542 1564.61 -296.447H1516.93C1520.34 -284.675 1527.3 -272.921 1537.64 -261.154C1569.02 -227.5 1604.7 -227.639 1647.12 -267.202Z" fill="var(--fill-0, #D089C3)"/>
<path id="&#227;&#131;&#145;&#227;&#130;&#185; 267" d="M1587.02 1614.59L1625.69 1578.53L1634.7 1588.2L1657.79 1566.67L1604.71 1509.74L1581.44 1531.44L1590.79 1541.47L1546.57 1582.7C1518.8 1608.59 1509.58 1634.08 1516.93 1659.49H1564.61C1558.87 1649.37 1562.77 1637.21 1587.02 1614.59Z" fill="var(--fill-0, #D089C3)"/>
<path id="&#227;&#131;&#145;&#227;&#130;&#185; 268" d="M1699.64 1657.84L1722.73 1636.3L1673.32 1583.32L1649.69 1605.35L1658.7 1615.01L1620.75 1650.4C1617.02 1653.89 1613.57 1656.9 1610.39 1659.49H1678.48L1690.62 1648.17L1699.64 1657.84Z" fill="var(--fill-0, #D089C3)"/>
<path id="&#227;&#131;&#145;&#227;&#130;&#185; 269" d="M995.206 462.911C997.841 459.666 1001.89 455.007 1003.47 453.477L1029.12 427.014L1045.84 436.283L1037.1 473.169C1036.75 474.751 1035.26 479.887 1033.28 484.019L1033.61 484.196L1051.08 452.678L1046.52 450.149L1052.24 439.829L1073.92 451.847L1068.2 462.166L1063.88 459.773L1044.32 495.053L1048.56 497.402L1042.84 507.721L1012.52 490.915L1021.02 456.517L996.761 482.179L966.281 465.284L972.001 454.964L976.401 457.403L995.913 422.203L991.513 419.764L997.277 409.366L1022.56 423.378L1016.79 433.777L1012.31 431.294L997.502 458.014L994.886 462.733L995.206 462.911Z" fill="var(--fill-0, #D089C3)"/>
<path id="&#227;&#131;&#145;&#227;&#130;&#185; 270" d="M1524.01 620.151L1509.1 604.707C1502.12 611.442 1494.23 605.59 1490.69 602.263C1487.88 599.357 1484.54 594.564 1488.03 591.196C1494.5 584.942 1522.55 619.473 1543.73 599.026C1556.02 587.158 1550.36 570.16 1542.5 562.023C1535.76 555.048 1526.7 550.155 1517.27 552.848L1523.44 545.283L1509.65 531.001L1488.81 551.127L1503.32 566.156C1509.47 560.222 1517.6 561.67 1523.22 567.483C1525.54 569.891 1527.26 574.656 1524.35 577.462C1515.8 585.722 1486.04 550.915 1466.52 569.758C1453.57 582.268 1460.63 598.881 1470.17 608.762C1478.27 617.149 1487.78 619.192 1494.57 618.739L1489.06 625.827L1503.09 640.358L1524.01 620.151Z" fill="var(--fill-0, #55B032)"/>
<path id="&#227;&#131;&#145;&#227;&#130;&#185; 271" d="M489.645 1576.25L496.121 1566.27L503.352 1570.97L505.115 1564.76L489.51 1554.62L484.55 1558.76L490.487 1562.62L484.011 1572.59L459.804 1556.87L466.28 1546.9L471.456 1550.26L503.435 1523.51L500.315 1521.49L506.692 1511.67L535.923 1530.65L521.317 1582.64L526.646 1586.1L520.17 1596.07L489.645 1576.25ZM508.231 1553.79L513.885 1534.09L498.259 1547.32L508.231 1553.79Z" fill="var(--fill-0, #D089C3)"/>
<path id="&#227;&#131;&#145;&#227;&#130;&#185; 272" d="M147.401 -16.3345L77.0614 -32.5735L83.1864 -59.1045L137.467 -79.7185L106.37 -86.8975L104.176 -77.3955L88.2574 -81.0715L97.0044 -118.957L112.923 -115.281L111.242 -108L165.663 -95.4365L167.315 -102.594L183.234 -98.9185L175.058 -63.5015L122.789 -43.7234L152.159 -36.9424L154.096 -45.3335L170.015 -41.6584L161.439 -4.51343L145.52 -8.18848L147.401 -16.3345Z" fill="var(--fill-0, #FDA126)"/>
<path id="&#227;&#131;&#145;&#227;&#130;&#185; 273" d="M1060.53 1641.37L1031.53 1631.95L1022.58 1659.49H1072.93L1056.39 1654.11L1060.53 1641.37Z" fill="var(--fill-0, #FFA52A)"/>
<path id="&#227;&#131;&#145;&#227;&#130;&#185; 274" d="M1037.33 -243.161L1041.54 -256.125L1074.72 -245.346L1061.15 -203.602L1027.98 -214.381L1032.4 -228.003L1003.4 -237.426L980.276 -166.242L1009.27 -156.819L1013.2 -168.904L1108.77 -137.851L1104.84 -125.767L1133.85 -116.343L1156.98 -187.528L1127.97 -196.951L1123.55 -183.328L1090.37 -194.108L1103.94 -235.851L1137.11 -225.073L1132.9 -212.109L1161.9 -202.685L1185.1 -274.089L1156.1 -283.512L1151.96 -270.769L1072.93 -296.447H1022.58L1008.33 -252.583L1037.33 -243.161Z" fill="var(--fill-0, #FFA52A)"/>
<path id="&#227;&#131;&#145;&#227;&#130;&#185; 275" d="M649.265 -131.615L651.969 -124.923L605.128 -105.998L602.425 -112.69L588.178 -106.934L601.478 -74.0148C612.03 -47.8969 634.129 -39.4998 654.744 -47.8289C679.352 -57.7708 687.472 -78.3778 676.745 -104.928L663.62 -137.415L649.265 -131.615ZM662.565 -98.6958C666.972 -87.1688 658.206 -78.1028 644.714 -72.6519C633.165 -67.9858 620.347 -68.3308 615.725 -79.7708L614.068 -83.8728L660.908 -102.797L662.565 -98.6958Z" fill="var(--fill-0, #FFA52B)"/>
<path id="&#227;&#131;&#145;&#227;&#130;&#185; 276" d="M591.162 1291.47C551.507 1262.66 555.24 1241.35 569.397 1221.87C579.084 1208.53 596.511 1206.83 612.188 1215.09C601.636 1204.81 598.489 1186.86 607.431 1174.55C612.77 1167.2 614.849 1162.18 611.772 1159.95C609.209 1158.08 606.351 1159.14 603.868 1162.56L599.77 1168.2L588.317 1159.88L595.148 1150.48C605.455 1136.29 621.001 1127.48 639.973 1141.26C662.365 1157.53 664.564 1177.15 650.035 1197.15C638.733 1212.7 637.881 1217.83 653.093 1228.88L672.341 1202.39L661.916 1194.81L678.309 1172.25L733.517 1212.36L717.124 1234.92L707.552 1227.97L653.408 1302.49L662.98 1309.44L646.712 1331.83L591.162 1291.47ZM639.184 1248.02L631.492 1242.43C621.579 1235.23 611.607 1235.3 605.026 1244.36C597.699 1254.44 599.613 1263.67 609.527 1270.87L618.073 1277.08L639.184 1248.02Z" fill="var(--fill-0, #FF5D8F)"/>
<path id="&#227;&#131;&#145;&#227;&#130;&#185; 277" d="M210.672 759.449L254.054 720.388L223.476 686.428L206.005 702.159L177.725 670.751L204.815 646.358L238.398 683.656L264.505 660.15L230.922 622.852L262.92 594.04L291.2 625.449L272.943 641.887L303.521 675.848L347.886 635.901L241.306 517.531L215.198 541.039L226.333 553.407L141.138 630.117L130.002 617.75L104.092 641.079L210.672 759.449Z" fill="var(--fill-0, #C8D93B)"/>
<path id="&#227;&#131;&#145;&#227;&#130;&#185; 278" d="M168.624 393.193C165.572 396.996 158.066 399.945 149.43 398.732C129.802 395.973 116.355 378.527 119.759 354.301C123.196 329.849 142.497 315.404 159.994 317.863C176.258 320.149 179 328.313 180.543 330.359L184.033 322.615L200.745 324.963L196.094 358.051L176.017 355.23C176.958 346.097 171.851 340.118 165.234 339.188C156.148 337.911 148.479 346.899 146.903 358.115C145.295 369.556 149.611 379.541 159.37 380.912C165.762 381.81 168.816 379.61 170.91 376.93L171.572 372.219L164.729 371.257L166.416 359.255L203.654 364.489L201.967 376.491L197.481 375.86L193.54 403.901L171.107 400.748L168.624 393.193Z" fill="var(--fill-0, #25BDC8)"/>
<path id="&#227;&#131;&#145;&#227;&#130;&#185; 279" d="M1628.78 406.612L1616.27 401.301L1618.4 396.278L1577.26 378.816L1572.07 391.043L1584.11 396.153L1577.35 412.077L1552.7 401.616L1575.24 348.535L1587.84 353.887L1585.63 359.1L1626.77 376.561L1628.98 371.348L1641.49 376.659L1628.78 406.612Z" fill="var(--fill-0, #FF5D8F)"/>
<path id="&#227;&#131;&#145;&#227;&#130;&#185; 280" d="M1066.41 263.625L1071.06 251.518L1076.13 253.462L1083.91 233.191C1089.71 218.081 1087.55 213.593 1081.55 211.288C1075.82 209.09 1071.2 209.902 1065.01 226.044L1057.37 245.94L1062.44 247.886L1057.68 260.273L1029.9 249.611L1034.55 237.503L1039.62 239.449L1048.37 216.643C1056.91 194.399 1070.06 187.925 1087.7 194.698C1106.44 202.539 1112.76 216.377 1104.58 237.681L1095.68 260.863L1100.94 262.881L1096.26 275.082L1066.41 263.625Z" fill="var(--fill-0, #D089C3)"/>
<path id="&#227;&#131;&#145;&#227;&#130;&#185; 281" d="M1321.01 652.392L1297.01 775.833L1250.45 766.782L1211.27 673.539L1200.66 728.112L1217.33 731.353L1211.9 759.289L1145.42 746.366L1150.85 718.43L1163.62 720.913L1182.19 625.409L1169.63 622.967L1175.06 595.031L1237.21 607.112L1274.82 696.903L1284.84 645.362L1270.11 642.5L1275.55 614.564L1340.73 627.234L1335.3 655.171L1321.01 652.392Z" fill="var(--fill-0, #FDA126)"/>
<path id="&#227;&#131;&#145;&#227;&#130;&#185; 282" d="M1372.86 293.704L1343.16 306.925L1348.47 318.847L1250.84 362.314L1237.92 333.295L1266.49 320.576L1249.66 282.785L1191.18 308.824L1247.26 434.797L1277.18 421.476L1271.68 409.105L1369.3 365.638L1374.81 378.009L1404.51 364.788L1372.86 293.704Z" fill="var(--fill-0, #FF5D8F)"/>
<path id="&#227;&#131;&#145;&#227;&#130;&#185; 283" d="M1407.77 1205.35L1395.12 1206.01L1395.44 1211.95L1380.98 1212.71L1380.02 1194.51L1394.48 1193.76L1394.78 1199.41L1407.42 1198.75L1405.79 1167.62L1393.15 1168.29L1393.44 1173.84L1351.78 1176.02L1351.49 1170.47L1338.85 1171.13L1340.48 1202.25L1353.12 1201.59L1352.83 1195.94L1367.29 1195.18L1368.24 1213.38L1353.78 1214.13L1353.47 1208.2L1340.83 1208.86L1342.46 1239.89L1355.1 1239.22L1354.82 1233.96L1396.47 1231.77L1396.75 1237.04L1409.39 1236.38L1407.77 1205.35Z" fill="var(--fill-0, #FFA52A)"/>
<path id="&#227;&#131;&#145;&#227;&#130;&#185; 284" d="M334.541 1163.43L325.379 1151.28L320.29 1155.11L304.95 1134.75C293.515 1119.58 294.493 1113.82 300.525 1109.27C306.274 1104.94 311.749 1104.36 323.965 1120.57L339.021 1140.55L333.932 1144.39L343.307 1156.83L371.204 1135.81L362.043 1123.65L356.952 1127.48L339.694 1104.58C322.862 1082.24 305.933 1079.19 288.214 1092.54C269.602 1107.45 266.95 1125.11 283.073 1146.51L300.615 1169.79L295.337 1173.77L304.569 1186.02L334.541 1163.43Z" fill="var(--fill-0, #D089C3)"/>
<path id="&#227;&#131;&#145;&#227;&#130;&#185; 285" d="M751.491 1598.22L758.457 1554.24C778.32 1557.38 784.776 1538.04 786.824 1528.19C788.134 1519.91 788.113 1507.79 778.183 1506.21C759.739 1503.29 753.161 1595.33 692.862 1585.78C657.865 1580.24 647.264 1544.62 650.934 1521.45C654.08 1501.59 663.648 1482.5 682.882 1475.85L663.393 1470.34L669.835 1429.67L729.187 1439.07L722.408 1481.87C704.911 1479.1 692.807 1491.24 690.185 1507.79C689.098 1514.65 691.857 1524.78 700.132 1526.09C724.491 1529.95 733.646 1435.41 789.214 1444.21C826.104 1450.05 833.878 1486.68 829.422 1514.81C825.639 1538.7 811.902 1553.49 799.838 1560.79L817.633 1566.27L811.079 1607.66L751.491 1598.22Z" fill="var(--fill-0, #55B032)"/>
<path id="&#227;&#131;&#145;&#227;&#130;&#185; 286" d="M1873.68 504.783L1886.89 500.742L1883.37 489.233L1890.93 486.926L1902.86 525.947L1895.39 528.229L1899.05 540.187L1932.5 529.96L1928.84 518.002L1921.47 520.256L1909.54 481.234L1917.27 478.87L1920.79 490.379L1934.01 486.338L1926.86 462.961L1866.53 481.407L1873.68 504.783Z" fill="var(--fill-0, #FF5D8F)"/>
<path id="&#227;&#131;&#145;&#227;&#130;&#185; 287" d="M1926.42 -214.403L1887.78 -271.677L1895.14 -276.641L1883.53 -293.849L1840.84 -265.05C1810.36 -244.495 1812.6 -228.422 1822.71 -213.446C1829.62 -203.199 1842.63 -201.469 1854.6 -207.248C1846.42 -199.82 1843.59 -186.444 1849.97 -176.985C1853.78 -171.336 1855.21 -167.52 1852.85 -165.925C1850.88 -164.596 1848.76 -165.465 1846.99 -168.092L1844.07 -172.426L1835.26 -166.489L1840.14 -159.264C1847.49 -148.361 1858.91 -141.346 1873.49 -151.182C1890.7 -162.79 1892.87 -177.436 1882.5 -192.807C1874.44 -204.761 1873.93 -208.625 1885.62 -216.511L1899.36 -196.151L1891.34 -190.746L1903.04 -173.404L1937.43 -196.602V-213.944L1933.77 -219.364L1926.42 -214.403ZM1869.79 -227.238C1862.17 -222.099 1854.69 -222.408 1850 -229.372C1844.77 -237.122 1846.45 -243.987 1854.07 -249.125L1860.64 -253.557L1875.7 -231.226L1869.79 -227.238Z" fill="var(--fill-0, #FF5D8F)"/>
<path id="&#227;&#131;&#145;&#227;&#130;&#185; 288" d="M1654.83 732.52C1658.51 733.454 1664.55 731.772 1669.35 726.976C1680.25 716.075 1680.43 698.944 1666.98 685.489C1653.4 671.909 1634.65 671.972 1624.93 681.689C1615.9 690.722 1618.02 697.076 1618.02 699.069L1612.22 695.892L1602.94 705.173L1621.32 723.55L1632.47 712.399C1627.61 707.167 1627.98 701.062 1631.66 697.387C1636.7 692.341 1645.68 694.335 1651.9 700.564C1658.26 706.918 1660.25 715.14 1654.83 720.56C1651.28 724.11 1648.35 724.173 1645.8 723.488L1643.18 720.872L1646.98 717.071L1640.32 710.406L1619.64 731.087L1626.3 737.753L1628.79 735.261L1644.37 750.834L1656.83 738.375L1654.83 732.52Z" fill="var(--fill-0, #25BDC8)"/>
<path id="&#227;&#131;&#145;&#227;&#130;&#185; 289" d="M609.979 352.084L618.241 364.333L623.159 361.016L650.322 401.287L638.352 409.362L630.404 397.577L614.815 408.093L631.087 432.219L683.051 397.168L674.726 384.826L669.623 388.269L642.46 347.998L647.563 344.555L639.301 332.306L609.979 352.084Z" fill="var(--fill-0, #FF5D8F)"/>
<path id="&#227;&#131;&#145;&#227;&#130;&#185; 290" d="M1257.73 1443.12L1275.26 1444.35L1274.37 1457.06L1283.67 1454.89L1285.59 1427.45L1276.68 1424L1275.95 1434.44L1258.42 1433.21L1261.4 1390.65L1278.93 1391.88L1278.29 1400.98L1335.79 1423.16L1336.18 1417.67L1353.44 1418.88L1349.85 1470.28L1272.16 1488.65L1271.51 1498.02L1253.98 1496.79L1257.73 1443.12ZM1300.08 1451.06L1329.61 1444.25L1301.31 1433.52L1300.08 1451.06Z" fill="var(--fill-0, #D089C3)"/>
<path id="&#227;&#131;&#145;&#227;&#130;&#185; 291" d="M1486.89 142.937C1484.16 142.001 1471.25 139.535 1461.45 137.612L1438.15 133.306L1429.8 152.989L1453.38 170.038C1458.97 173.974 1466.29 178.309 1470.82 180.789L1470.62 181.262C1466.2 179.834 1455.68 177.265 1451.34 176.43L1435.59 173.541L1437.8 168.336L1425.5 163.114L1414.01 190.179L1426.31 195.401L1428.52 190.197L1488.35 198.952L1497.87 176.525L1477.76 161.287C1474.9 159.069 1469.76 155.659 1467.03 153.94L1467.19 153.561C1470.19 154.388 1476.67 155.689 1479.7 156.191L1504.86 160.059L1514.18 138.104L1465.64 102.757L1467.89 97.4572L1455.58 92.2352L1442.33 123.464L1454.63 128.686L1456.96 123.197L1469.73 131.522C1473.83 134.492 1484.41 140.88 1487.09 142.464L1486.89 142.937Z" fill="var(--fill-0, #FDA126)"/>
<path id="&#227;&#131;&#145;&#227;&#130;&#185; 292" d="M15.6539 2283.6C15.1269 2284.73 14.5279 2285.52 13.7709 2286.16L22.0619 2290.03C22.9079 2289.2 23.7499 2288.22 24.3059 2287.02C30.341 2274.08 26.2219 2266.35 15.1029 2261.17L-15.9291 2246.7L-13.4981 2241.48L-18.5031 2239.15V2261.33L9.03995 2274.17C15.7609 2277.3 17.1189 2280.46 15.6539 2283.6Z" fill="var(--fill-0, #D089C3)"/>
<path id="&#227;&#131;&#145;&#227;&#130;&#185; 293" d="M1184.79 1971.33C1182.68 1969.22 1179.46 1966.21 1178.22 1965.24L1158.02 1948.36L1146.84 1956.19L1155.8 1981.74C1156.17 1982.84 1157.61 1986.38 1159.32 1989.16L1159.1 1989.31L1144.34 1968.23L1147.39 1966.09L1142.56 1959.19L1128.05 1969.34L1132.89 1976.25L1135.78 1974.22L1152.3 1997.82L1149.47 1999.81L1154.3 2006.71L1174.58 1992.51L1165.97 1968.71L1185.13 1985.13L1205.52 1970.85L1200.68 1963.95L1197.74 1966.01L1181.25 1942.46L1184.2 1940.4L1179.32 1933.44L1162.41 1945.28L1167.28 1952.24L1170.28 1950.14L1182.8 1968.02L1185.01 1971.18L1184.79 1971.33Z" fill="var(--fill-0, #D089C3)"/>
<path id="&#227;&#131;&#145;&#227;&#130;&#185; 294" d="M670.761 1678.3L676.531 1690.13L686.833 1685.11L690.13 1691.87L655.201 1708.9L651.943 1702.22L641.239 1707.45L655.841 1737.38L666.545 1732.16L663.326 1725.56L698.255 1708.53L701.631 1715.45L691.329 1720.47L697.1 1732.3L718.024 1722.1L691.685 1668.1L670.761 1678.3Z" fill="var(--fill-0, #FF5D8F)"/>
<path id="&#227;&#131;&#145;&#227;&#130;&#185; 295" d="M102.391 2176.08L107.33 2174.47L95.1549 2137L90.216 2138.61L86.646 2127.62L118.411 2117.3C132.547 2112.71 140.99 2115.8 144.006 2125.08C146.331 2132.24 145.507 2136.37 139.95 2141C146.635 2140.71 153.211 2143.56 155.895 2151.82C159.797 2163.83 154.784 2171.29 138.348 2176.63L105.988 2187.15L102.391 2176.08ZM117.016 2144.3L122.212 2142.62C126.725 2141.15 127.2 2138.27 125.871 2134.18C124.599 2130.26 121.467 2128.74 118.231 2129.79L112.866 2131.53L117.016 2144.3ZM131.771 2166.53C135.347 2165.37 137.783 2161.57 136.289 2156.97C134.878 2152.62 131.385 2150.28 126.7 2151.8L120.143 2153.93L124.958 2168.75L131.771 2166.53Z" fill="var(--fill-0, #C6D739)"/>
<path id="&#227;&#131;&#145;&#227;&#130;&#185; 296" d="M888.997 2238.21C885.418 2237.73 880.682 2234.08 878.158 2228.14C872.421 2214.62 878.368 2199.43 895.049 2192.35C911.885 2185.2 928.421 2191.95 933.534 2203.99C938.288 2215.19 934.151 2220.05 933.44 2221.81L939.689 2221.07L944.573 2232.58L921.79 2242.25L915.922 2228.42C922.08 2225.54 923.928 2220.01 921.994 2215.46C919.338 2209.2 910.706 2207.76 902.982 2211.04C895.105 2214.38 890.412 2220.93 893.264 2227.65C895.132 2232.05 897.695 2233.15 900.195 2233.46L903.439 2232.08L901.439 2227.37L909.703 2223.86L920.587 2249.5L912.323 2253.01L911.012 2249.92L891.704 2258.12L885.147 2242.67L888.997 2238.21Z" fill="var(--fill-0, #25BDC8)"/>
<path id="&#227;&#131;&#145;&#227;&#130;&#185; 297" d="M1817.07 2355.21C1837.77 2338.45 1840.87 2313.09 1824.81 2293.25C1805.8 2269.77 1782.86 2270.25 1761.3 2287.71C1739.65 2305.25 1736.2 2328.04 1753.74 2349.69C1769.95 2369.72 1793.11 2374.61 1817.07 2355.21ZM1780.7 2311.67C1792.3 2302.28 1804.15 2297.92 1810.13 2305.3C1814.96 2311.06 1809.79 2321.92 1797.9 2331.54C1785.35 2341.71 1773.75 2343.64 1768.78 2337.51C1763.89 2331.47 1768.82 2321.29 1780.7 2311.67Z" fill="var(--fill-0, #D089C3)"/>
<path id="&#227;&#131;&#145;&#227;&#130;&#185; 298" d="M1717.35 1802.29L1715.01 1813.32L1710.39 1812.34L1706.47 1830.81C1703.54 1844.58 1706 1848.14 1711.47 1849.3C1716.69 1850.41 1720.54 1849.09 1723.67 1834.38L1727.52 1816.25L1722.91 1815.27L1725.31 1803.98L1750.62 1809.36L1748.27 1820.39L1743.65 1819.41L1739.24 1840.19C1734.93 1860.46 1724.52 1867.81 1708.45 1864.39C1691.28 1860.2 1683.97 1849.18 1688.1 1829.77L1692.59 1808.65L1687.8 1807.63L1690.16 1796.51L1717.35 1802.29Z" fill="var(--fill-0, #D089C3)"/>
<path id="&#227;&#131;&#145;&#227;&#130;&#185; 299" d="M574.149 2167.7C574.021 2170.08 571.921 2180.7 570.368 2188.77L566.468 2207.89L548.861 2208.19L543.12 2184.92C541.839 2179.44 540.786 2172.52 540.29 2168.29L539.866 2168.3C539.594 2172.12 538.309 2180.94 537.609 2184.51L534.955 2197.43L539.612 2197.35L539.804 2208.35L515.594 2208.78L515.402 2197.77L520.057 2197.69L531.829 2149.3L551.891 2148.95L557.322 2169.01C558.134 2171.88 559.152 2176.85 559.621 2179.47L559.96 2179.47C560.254 2176.92 561.261 2171.57 561.811 2169.1L566.62 2148.7L586.259 2148.35L598.274 2196.32L603.014 2196.24L603.206 2207.25L575.271 2207.73L575.079 2196.73L579.989 2196.64L577.572 2184.32C576.57 2180.28 574.956 2170.23 574.572 2167.7L574.149 2167.7Z" fill="var(--fill-0, #FDA126)"/>
<path id="&#227;&#131;&#145;&#227;&#130;&#185; 300" d="M1678.73 2132.68L1660.14 2125.91L1654.72 2140.81L1662.21 2143.53L1657.58 2156.24L1642.94 2150.91L1648.76 2134.92L1637.57 2130.85L1631.75 2146.84L1621.07 2142.95L1624.19 2134.36L1613 2130.29L1601.61 2161.59L1612.8 2165.67L1614.7 2160.45L1651.21 2173.74L1649.31 2178.96L1660.42 2183L1678.73 2132.68Z" fill="var(--fill-0, #C8D93B)"/>
<path id="&#227;&#131;&#145;&#227;&#130;&#185; 301" d="M1255.48 2060.28C1249.12 2062.98 1245.57 2068.7 1248.6 2075.84C1251.09 2081.69 1256.34 2083.76 1261.22 2083.54C1261.67 2085.37 1262.34 2087.36 1263.16 2089.29C1269.28 2103.71 1281.95 2110.13 1298.8 2102.98C1313.36 2096.8 1319.55 2082.8 1313.46 2068.45C1306.31 2051.6 1292.96 2048.33 1277.75 2054.79C1270.25 2057.97 1265.03 2062.54 1262.42 2068.29C1259.96 2068.66 1257.2 2068.9 1256.44 2067.12C1255.9 2065.83 1257.84 2064.84 1259.05 2064.33L1261.12 2063.45L1259.12 2058.73L1255.48 2060.28ZM1281.75 2071.96C1282.58 2071.53 1283.48 2071.06 1284.48 2070.64C1292.69 2067.15 1300.82 2067.66 1303.07 2072.94C1304.96 2077.19 1300.48 2083.73 1292.13 2087.27C1290.7 2087.88 1289.39 2088.35 1288.08 2088.65C1289.1 2086.28 1289.72 2082.99 1287.93 2078.77C1286.63 2075.7 1284.37 2073.55 1281.75 2071.96ZM1273.83 2080.29C1277.61 2079.28 1280.41 2079.11 1281.44 2081.53C1282.44 2083.89 1280.69 2086.32 1278.25 2088.53C1276.08 2087.77 1274.6 2086.46 1273.87 2084.74C1273.29 2083.39 1273.32 2081.86 1273.83 2080.29Z" fill="var(--fill-0, #C6D739)"/>
<path id="&#227;&#131;&#145;&#227;&#130;&#185; 302" d="M1577.77 2002.63C1593.66 2018.51 1603.04 2015.3 1610.85 2007.49C1616.19 2002.15 1615.71 1994.14 1610.85 1987.63C1616.26 1991.67 1624.61 1991.81 1629.54 1986.88C1632.48 1983.94 1634.61 1982.64 1635.84 1983.87C1636.87 1984.89 1636.59 1986.26 1635.22 1987.63L1632.96 1989.89L1637.55 1994.48L1641.32 1990.71C1647 1985.03 1649.88 1977.36 1642.27 1969.76C1633.3 1960.79 1624.27 1961.2 1616.26 1969.21C1610.02 1975.45 1607.76 1976.2 1601.67 1970.1L1612.28 1959.49L1616.46 1963.67L1625.5 1954.63L1603.38 1932.51L1594.34 1941.55L1598.18 1945.39L1568.32 1975.24L1564.49 1971.41L1555.52 1980.37L1577.77 2002.63ZM1594 1977.77L1597.08 1980.85C1601.05 1984.83 1601.74 1989.35 1598.11 1992.97C1594.07 1997.01 1589.76 1996.81 1585.79 1992.84L1582.36 1989.41L1594 1977.77Z" fill="var(--fill-0, #FF5D8F)"/>
<path id="&#227;&#131;&#145;&#227;&#130;&#185; 303" d="M385.233 2375.6L425.956 2310.43L450.537 2325.79L452.473 2387.57L470.477 2358.76L461.673 2353.26L470.889 2338.51L505.99 2360.44L496.774 2375.19L490.028 2370.97L458.521 2421.4L465.153 2425.54L455.937 2440.29L423.122 2419.78L421.33 2360.32L404.327 2387.53L412.101 2392.39L402.885 2407.14L368.47 2385.63L377.686 2370.89L385.233 2375.6Z" fill="var(--fill-0, #FDA126)"/>
<path id="&#227;&#131;&#145;&#227;&#130;&#185; 304" d="M204.915 1668.58C206.347 1667.91 207.528 1666.9 208.523 1665.89L205.54 1659.49H174.863C181.072 1671.33 190.175 1675.45 204.915 1668.58Z" fill="var(--fill-0, #D089C3)"/>
<path id="&#227;&#131;&#145;&#227;&#130;&#185; 305" d="M284.185 2095.06C279.42 2096.09 271.731 2093.66 265.783 2087.28C252.265 2072.79 252.794 2050.77 270.686 2034.08C288.744 2017.24 312.835 2018.16 324.885 2031.08C336.086 2043.1 333.079 2051.17 332.99 2053.73L340.576 2049.9L352.086 2062.25L327.649 2085.03L313.822 2070.21C320.301 2063.7 320.094 2055.84 315.537 2050.95C309.28 2044.24 297.664 2046.4 289.38 2054.13C280.93 2062.01 278.001 2072.48 284.722 2079.69C289.124 2084.41 292.883 2084.62 296.196 2083.86L299.675 2080.61L294.963 2075.56L303.827 2067.29L329.473 2094.8L320.609 2103.06L317.519 2099.75L296.81 2119.06L281.36 2102.49L284.185 2095.06Z" fill="var(--fill-0, #25BDC8)"/>
<path id="&#227;&#131;&#145;&#227;&#130;&#185; 306" d="M809.915 1918.72L820.675 1915.23L818.317 1907.97L830.265 1890.53L855.94 1898.88L857.35 1903.22L868.193 1899.7L857.461 1866.67L846.617 1870.19L848.189 1875.03L834.439 1870.46L842.769 1858.34L845.154 1865.68L855.997 1862.16L846.999 1834.47L836.156 1837.99L838.459 1845.08L826.453 1862.91L801.055 1854.56L799.483 1849.72L788.639 1853.25L799.454 1886.53L810.297 1883L808.752 1878.25L819.32 1881.82L822.224 1882.82L814.089 1894.96L811.677 1887.54L800.917 1891.03L809.915 1918.72Z" fill="var(--fill-0, #FFA52B)"/>
<path id="&#227;&#131;&#145;&#227;&#130;&#185; 307" d="M376.902 1703.52C377.78 1707.06 379.463 1723.61 380.807 1736.16L383.664 1765.99L357.944 1774.34L339.064 1742.75C334.722 1735.27 330.067 1725.57 327.441 1719.59L326.822 1719.79C328.135 1725.52 330.212 1739.06 330.786 1744.62L332.689 1764.78L339.491 1762.57L344.714 1778.64L309.348 1790.13L304.125 1774.06L310.926 1771.85L306.49 1695.5L335.796 1685.98L352.777 1713C355.257 1716.84 358.986 1723.7 360.85 1727.33L361.345 1727.17C360.634 1723.3 359.71 1714.99 359.411 1711.12L357.311 1678.99L385.999 1669.67L425.182 1734.73L432.107 1732.48L437.33 1748.55L396.524 1761.81L391.301 1745.73L398.473 1743.4L389.392 1726.39C386.103 1720.9 379.221 1706.87 377.52 1703.32L376.902 1703.52Z" fill="var(--fill-0, #FDA126)"/>
<path id="&#227;&#131;&#145;&#227;&#130;&#185; 308" d="M754.788 2063.13C751.141 2066.66 745.934 2072.05 744.251 2074.13L714.954 2107.95L727.934 2127.2L771.63 2112.73C773.506 2112.13 779.562 2109.79 784.351 2106.96L784.6 2107.33L748.321 2131.8L744.781 2126.55L732.903 2134.56L749.734 2159.52L761.612 2151.51L758.259 2146.53L798.866 2119.14L802.157 2124.02L814.035 2116.01L790.496 2081.11L749.786 2095.04L778.261 2062.98L754.597 2027.89L742.719 2035.9L746.136 2040.97L705.621 2068.3L702.204 2063.23L690.234 2071.31L709.861 2100.4L721.831 2092.33L718.353 2087.17L749.107 2066.43L754.539 2062.76L754.788 2063.13Z" fill="var(--fill-0, #D089C3)"/>
<path id="&#227;&#131;&#145;&#227;&#130;&#185; 309" d="M1032.95 1950.37L1017.85 1958.74L1021.78 1965.83L1004.51 1975.4L992.469 1953.67L1009.74 1944.1L1013.48 1950.85L1028.57 1942.48L1007.97 1905.31L992.875 1913.68L996.552 1920.31L946.803 1947.89L943.126 1941.26L928.031 1949.62L948.634 1986.79L963.729 1978.43L959.989 1971.68L977.258 1962.1L989.303 1983.83L972.033 1993.41L968.103 1986.32L953.007 1994.68L973.547 2031.74L988.643 2023.37L985.156 2017.08L1034.9 1989.5L1038.39 1995.79L1053.49 1987.43L1032.95 1950.37Z" fill="var(--fill-0, #FFA52A)"/>
<path id="&#227;&#131;&#145;&#227;&#130;&#185; 310" d="M495.196 2013.08C496.972 2013.23 505.079 2012.78 511.235 2012.47L525.843 2011.57L527.909 1998.53L511.226 1991.83C507.288 1990.31 502.255 1988.8 499.169 1987.99L499.219 1987.68C502.081 1987.88 508.772 1987.84 511.495 1987.7L521.365 1987.07L520.819 1990.52L528.972 1991.82L531.813 1973.88L523.66 1972.59L523.114 1976.04L485.949 1979.73L483.595 1994.59L497.925 2000.72C499.968 2001.62 503.559 2002.9 505.454 2003.52L505.414 2003.77C503.492 2003.72 499.412 2003.91 497.524 2004.06L481.866 2005.5L479.562 2020.05L513.935 2033.99L513.379 2037.5L521.532 2038.79L524.81 2018.09L516.657 2016.8L516.081 2020.44L507.183 2017.36C504.282 2016.19 496.987 2013.94 495.146 2013.39L495.196 2013.08Z" fill="var(--fill-0, #FDA126)"/>
<path id="&#227;&#131;&#145;&#227;&#130;&#185; 311" d="M1442.8 1949.52L1425.9 1948.04L1426.89 1936.63L1403.55 1915.18L1368.84 1936.05L1368.24 1942.86L1351.21 1941.37L1355.75 1889.47L1372.78 1890.96L1372.12 1898.56L1390.67 1887.24L1374.41 1872.35L1373.4 1883.89L1356.37 1882.39L1360.17 1838.88L1377.21 1840.37L1376.24 1851.51L1399.8 1873.52L1434.1 1852.75L1434.77 1845.14L1451.8 1846.64L1447.23 1898.93L1430.19 1897.44L1430.85 1889.97L1416.61 1898.76L1412.7 1901.19L1428.68 1916.19L1429.7 1904.53L1446.61 1906L1442.8 1949.52Z" fill="var(--fill-0, #FFA52B)"/>
<path id="&#227;&#131;&#145;&#227;&#130;&#185; 312" d="M1908.28 2015.01C1923.82 2005.75 1927.46 1995.88 1924.52 1977.31C1920.71 1953.21 1901.07 1942.26 1864.37 1948.08L1781.9 1961.14L1786.41 1989.66L1799.24 1987.63L1814.65 2084.91L1801.82 2086.94L1806.38 2115.69L1890.39 2102.38C1914.15 2098.62 1929.41 2091.84 1937.43 2081.19V2031.72C1930.77 2021.45 1919.9 2016.34 1908.28 2015.01ZM1845.11 1981.04L1859.04 1978.84C1867.44 1977.51 1874.58 1982.5 1876.19 1992.67C1877.87 2003.28 1875.57 2010.22 1863.85 2012.07L1850.36 2014.21L1845.11 1981.04ZM1878.1 2074.86L1860.41 2077.66L1854.32 2039.19L1871.34 2036.5C1883.51 2034.57 1891.21 2041.74 1893 2053.01C1894.89 2064.95 1887.39 2073.39 1878.1 2074.86Z" fill="var(--fill-0, #C6D739)"/>
<path id="&#227;&#131;&#145;&#227;&#130;&#185; 313" d="M1647.12 1688.73L1678.48 1659.49H1610.39C1587.32 1678.23 1577.75 1674.64 1568.81 1665.04C1567.11 1663.23 1565.69 1661.39 1564.61 1659.49H1516.93C1520.34 1671.26 1527.3 1683.01 1537.64 1694.78C1569.02 1728.44 1604.7 1728.3 1647.12 1688.73Z" fill="var(--fill-0, #D089C3)"/>
<path id="&#227;&#131;&#145;&#227;&#130;&#185; 314" d="M147.401 1939.6L77.0614 1923.36L83.1864 1896.83L137.467 1876.22L106.37 1869.04L104.176 1878.54L88.2574 1874.86L97.0044 1836.98L112.923 1840.65L111.242 1847.93L165.663 1860.5L167.315 1853.34L183.234 1857.02L175.058 1892.43L122.789 1912.21L152.159 1918.99L154.096 1910.6L170.015 1914.28L161.439 1951.42L145.52 1947.75L147.401 1939.6Z" fill="var(--fill-0, #FDA126)"/>
<path id="&#227;&#131;&#145;&#227;&#130;&#185; 315" d="M1037.33 1712.77L1041.54 1699.81L1074.72 1710.59L1061.15 1752.33L1027.98 1741.55L1032.4 1727.93L1003.4 1718.51L980.276 1789.69L1009.27 1799.11L1013.2 1787.03L1108.77 1818.08L1104.84 1830.17L1133.85 1839.59L1156.98 1768.41L1127.97 1758.98L1123.55 1772.61L1090.37 1761.83L1103.94 1720.08L1137.11 1730.86L1132.9 1743.83L1161.9 1753.25L1185.1 1681.84L1156.1 1672.42L1151.96 1685.17L1072.93 1659.49H1022.58L1008.33 1703.35L1037.33 1712.77Z" fill="var(--fill-0, #FFA52A)"/>
<path id="&#227;&#131;&#145;&#227;&#130;&#185; 316" d="M649.265 1824.32L651.969 1831.01L605.128 1849.94L602.425 1843.24L588.178 1849L601.478 1881.92C612.03 1908.04 634.129 1916.43 654.744 1908.11C679.352 1898.16 687.472 1877.56 676.745 1851.01L663.62 1818.52L649.265 1824.32ZM662.565 1857.24C666.972 1868.77 658.206 1877.83 644.714 1883.28C633.165 1887.95 620.347 1887.6 615.725 1876.16L614.068 1872.06L660.908 1853.14L662.565 1857.24Z" fill="var(--fill-0, #FFA52B)"/>
<path id="&#227;&#131;&#145;&#227;&#130;&#185; 317" d="M168.624 2349.13C165.572 2352.93 158.066 2355.88 149.43 2354.67C129.802 2351.91 116.355 2334.46 119.759 2310.24C123.196 2285.78 142.497 2271.34 159.994 2273.8C176.258 2276.08 179 2284.25 180.543 2286.29L184.033 2278.55L200.745 2280.9L196.094 2313.99L176.017 2311.16C176.958 2302.03 171.851 2296.05 165.234 2295.12C156.148 2293.85 148.479 2302.83 146.903 2314.05C145.295 2325.49 149.611 2335.48 159.37 2336.85C165.762 2337.75 168.816 2335.55 170.91 2332.87L171.572 2328.15L164.729 2327.19L166.416 2315.19L203.654 2320.42L201.967 2332.43L197.481 2331.8L193.54 2359.84L171.107 2356.68L168.624 2349.13Z" fill="var(--fill-0, #25BDC8)"/>
<path id="&#227;&#131;&#145;&#227;&#130;&#185; 318" d="M1628.78 2362.55L1616.27 2357.24L1618.4 2352.21L1577.26 2334.75L1572.07 2346.98L1584.11 2352.09L1577.35 2368.01L1552.7 2357.55L1575.24 2304.47L1587.84 2309.82L1585.63 2315.03L1626.77 2332.5L1628.98 2327.28L1641.49 2332.59L1628.78 2362.55Z" fill="var(--fill-0, #FF5D8F)"/>
<path id="&#227;&#131;&#145;&#227;&#130;&#185; 319" d="M1066.41 2219.56L1071.06 2207.45L1076.13 2209.4L1083.91 2189.13C1089.71 2174.02 1087.55 2169.53 1081.55 2167.22C1075.82 2165.02 1071.2 2165.84 1065.01 2181.98L1057.37 2201.88L1062.44 2203.82L1057.68 2216.21L1029.9 2205.55L1034.55 2193.44L1039.62 2195.38L1048.37 2172.58C1056.91 2150.33 1070.06 2143.86 1087.7 2150.63C1106.44 2158.47 1112.76 2172.31 1104.58 2193.62L1095.68 2216.8L1100.94 2218.82L1096.26 2231.02L1066.41 2219.56Z" fill="var(--fill-0, #D089C3)"/>
<path id="&#227;&#131;&#145;&#227;&#130;&#185; 320" d="M1372.86 2249.64L1343.16 2262.86L1348.47 2274.78L1250.84 2318.25L1237.92 2289.23L1266.49 2276.51L1249.66 2238.72L1191.18 2264.76L1247.26 2390.73L1277.18 2377.41L1271.68 2365.04L1369.3 2321.57L1374.81 2333.94L1404.51 2320.72L1372.86 2249.64Z" fill="var(--fill-0, #FF5D8F)"/>
<path id="&#227;&#131;&#145;&#227;&#130;&#185; 321" d="M1926.42 1741.53L1887.78 1684.26L1895.14 1679.29L1883.53 1662.09L1840.84 1690.88C1810.36 1711.44 1812.6 1727.51 1822.71 1742.49C1829.62 1752.74 1842.63 1754.47 1854.6 1748.69C1846.42 1756.12 1843.59 1769.49 1849.97 1778.95C1853.78 1784.6 1855.21 1788.41 1852.85 1790.01C1850.88 1791.34 1848.76 1790.47 1846.99 1787.84L1844.07 1783.51L1835.26 1789.45L1840.14 1796.67C1847.49 1807.57 1858.91 1814.59 1873.49 1804.75C1890.7 1793.15 1892.87 1778.5 1882.5 1763.13C1874.44 1751.17 1873.93 1747.31 1885.62 1739.42L1899.36 1759.79L1891.34 1765.19L1903.04 1782.53L1937.43 1759.33V1741.99L1933.77 1736.57L1926.42 1741.53ZM1869.79 1728.7C1862.17 1733.84 1854.69 1733.53 1850 1726.56C1844.77 1718.81 1846.45 1711.95 1854.07 1706.81L1860.64 1702.38L1875.7 1724.71L1869.79 1728.7Z" fill="var(--fill-0, #FF5D8F)"/>
<path id="&#227;&#131;&#145;&#227;&#130;&#185; 322" d="M609.979 2308.02L618.241 2320.27L623.159 2316.95L650.322 2357.22L638.352 2365.3L630.404 2353.51L614.815 2364.03L631.087 2388.15L683.051 2353.1L674.726 2340.76L669.623 2344.2L642.46 2303.93L647.563 2300.49L639.301 2288.24L609.979 2308.02Z" fill="var(--fill-0, #FF5D8F)"/>
<path id="&#227;&#131;&#145;&#227;&#130;&#185; 323" d="M1486.89 2098.87C1484.16 2097.94 1471.25 2095.47 1461.45 2093.55L1438.15 2089.24L1429.8 2108.92L1453.38 2125.97C1458.97 2129.91 1466.29 2134.24 1470.82 2136.72L1470.62 2137.2C1466.2 2135.77 1455.68 2133.2 1451.34 2132.37L1435.59 2129.48L1437.8 2124.27L1425.5 2119.05L1414.01 2146.11L1426.31 2151.34L1428.52 2146.13L1488.35 2154.89L1497.87 2132.46L1477.76 2117.22C1474.9 2115 1469.76 2111.59 1467.03 2109.88L1467.19 2109.5C1470.19 2110.32 1476.67 2111.62 1479.7 2112.13L1504.86 2115.99L1514.18 2094.04L1465.64 2058.69L1467.89 2053.39L1455.58 2048.17L1442.33 2079.4L1454.63 2084.62L1456.96 2079.13L1469.73 2087.46C1473.83 2090.43 1484.41 2096.82 1487.09 2098.4L1486.89 2098.87Z" fill="var(--fill-0, #FDA126)"/>
</g>
</g>
</svg>
