<svg preserveAspectRatio="none" width="100%" height="100%" overflow="visible" style="display: block;" viewBox="0 0 750.255 181.84" fill="none" xmlns="http://www.w3.org/2000/svg">
<g id="&#227;&#130;&#176;&#227;&#131;&#171;&#227;&#131;&#188;&#227;&#131;&#151; 211">
<path id="&#227;&#131;&#145;&#227;&#130;&#185; 385" d="M697.755 179.34H52.4995C24.8855 179.34 2.49951 156.954 2.49951 129.34V52.5002C2.49951 24.8862 24.8855 2.50024 52.4995 2.50024H697.755C725.37 2.50024 747.755 24.8862 747.755 52.5002V129.34C747.755 156.954 725.37 179.34 697.755 179.34Z" fill="var(--fill-0, #009844)"/>
<path id="&#233;&#149;&#183;&#230;&#150;&#185;&#229;&#189;&#162; 141" d="M2.5 52.5001C2.5 24.8858 24.8858 2.5 52.5 2.5H697.755C725.369 2.5 747.755 24.8858 747.755 52.5V129.34C747.755 156.954 725.369 179.34 697.755 179.34H52.4999C24.8857 179.34 2.5 156.954 2.5 129.34V52.5001Z" stroke="var(--stroke-0, white)" stroke-width="5"/>
<path id="&#227;&#131;&#145;&#227;&#130;&#185; 386" d="M682.004 72.5676L701.734 92.2976L682.004 112.028" stroke="var(--stroke-0, white)" stroke-width="5.053" stroke-linecap="round" stroke-linejoin="round"/>
</g>
</svg>
