<svg preserveAspectRatio="none" width="100%" height="100%" overflow="visible" style="display: block;" viewBox="0 0 117.923 22.6431" fill="none" xmlns="http://www.w3.org/2000/svg">
<g id="&#227;&#130;&#176;&#227;&#131;&#171;&#227;&#131;&#188;&#227;&#131;&#151; 213">
<path id="&#227;&#131;&#145;&#227;&#130;&#185; 387" d="M22.641 11.321C22.641 17.573 17.573 22.6431 11.32 22.6431C5.06799 22.6431 0 17.573 0 11.321C0 5.07007 5.06799 0 11.32 0C17.573 0 22.641 5.07007 22.641 11.321Z" fill="var(--fill-0, #369DCB)"/>
<path id="&#227;&#131;&#145;&#227;&#130;&#185; 388" d="M70.282 11.321C70.282 17.573 65.214 22.6431 58.961 22.6431C52.709 22.6431 47.641 17.573 47.641 11.321C47.641 5.07007 52.709 0 58.961 0C65.214 0 70.282 5.07007 70.282 11.321Z" fill="var(--fill-0, #CBCBCB)"/>
<path id="&#227;&#131;&#145;&#227;&#130;&#185; 389" d="M117.923 11.321C117.923 17.573 112.855 22.6431 106.602 22.6431C100.35 22.6431 95.282 17.573 95.282 11.321C95.282 5.07007 100.35 0 106.602 0C112.855 0 117.923 5.07007 117.923 11.321Z" fill="var(--fill-0, #CBCBCB)"/>
</g>
</svg>
